<?xml version="1.0" encoding="UTF-8" standalone="no"?>
<!DOCTYPE svg PUBLIC "-//W3C//DTD SVG 1.1//EN" "http://www.w3.org/Graphics/SVG/1.1/DTD/svg11.dtd">
<svg width="100%" height="100%" viewBox="0 0 1801 775" version="1.1" xmlns="http://www.w3.org/2000/svg" xmlns:xlink="http://www.w3.org/1999/xlink" xml:space="preserve" xmlns:serif="http://www.serif.com/" style="fill-rule:evenodd;clip-rule:evenodd;stroke-linecap:round;stroke-linejoin:round;stroke-miterlimit:1.5;">
    <rect id="Interface---cutoff-formula" serif:id="Interface - cutoff formula" x="0.833" y="0.889" width="1800" height="773.153" style="fill:none;"/>
    <g>
        <rect x="651.705" y="150.538" width="498.258" height="79.707" style="fill:rgb(125,97,186);stroke:rgb(125,97,186);stroke-width:10.42px;"/>
        <path d="M677.541,203.191c1.18,0 2.192,-0.2 3.037,-0.6c0.845,-0.4 1.554,-0.925 2.128,-1.575c0.574,-0.65 1.028,-1.4 1.363,-2.25c0.335,-0.85 0.598,-1.708 0.789,-2.575l0.191,-0.9l6.313,0l-0.191,0.9c-0.447,2.167 -1.052,4.059 -1.818,5.675c-0.765,1.617 -1.737,2.967 -2.917,4.05c-1.179,1.084 -2.582,1.9 -4.208,2.45c-1.626,0.55 -3.539,0.825 -5.739,0.825c-1.499,0 -2.869,-0.233 -4.113,-0.7c-1.243,-0.466 -2.311,-1.15 -3.204,-2.05c-0.893,-0.9 -1.586,-1.991 -2.08,-3.275c-0.495,-1.283 -0.742,-2.758 -0.742,-4.425c0,-0.6 0.032,-1.2 0.096,-1.8c0.064,-0.6 0.175,-1.283 0.335,-2.05l1.578,-7.8c0.988,-4.833 2.742,-8.425 5.261,-10.775c2.518,-2.35 5.802,-3.525 9.851,-3.525c1.594,0 3.021,0.267 4.28,0.8c1.26,0.534 2.328,1.259 3.204,2.175c0.877,0.917 1.547,1.992 2.009,3.225c0.462,1.234 0.694,2.55 0.694,3.95c-0,0.467 -0.032,0.934 -0.096,1.4c-0.064,0.467 -0.144,0.95 -0.239,1.45l-0.192,0.9l-6.312,0l0.191,-0.9c0.191,-0.8 0.287,-1.566 0.287,-2.3c0,-1.3 -0.359,-2.408 -1.076,-3.325c-0.717,-0.916 -1.969,-1.375 -3.754,-1.375c-1.052,0 -2.009,0.209 -2.87,0.625c-0.86,0.417 -1.61,0.984 -2.247,1.7c-0.638,0.717 -1.172,1.55 -1.602,2.5c-0.431,0.95 -0.758,1.942 -0.981,2.975l-1.769,8.8c-0.096,0.5 -0.176,0.992 -0.239,1.475c-0.064,0.484 -0.096,0.942 -0.096,1.375c0,1.5 0.375,2.7 1.124,3.6c0.749,0.9 2.001,1.35 3.754,1.35Z" style="fill:rgb(244,244,245);fill-rule:nonzero;"/>
        <path d="M705.279,183.691l-2.965,14.4c-0.128,0.567 -0.192,1.117 -0.192,1.65c0,1.267 0.335,2.209 1.005,2.825c0.669,0.617 1.562,0.925 2.678,0.925c1.689,0 2.989,-0.575 3.897,-1.725c0.909,-1.15 1.586,-2.775 2.033,-4.875l2.678,-13.2l6.026,0l-3.922,18.9l0.526,0.3l1.722,-1.3l3.013,4.6l-2.248,1.7c-0.606,0.467 -1.236,0.8 -1.889,1c-0.654,0.2 -1.299,0.3 -1.937,0.3c-1.307,0 -2.455,-0.391 -3.443,-1.175c-0.989,-0.783 -1.547,-1.925 -1.674,-3.425l-0.861,0c-0.701,1.7 -1.65,2.892 -2.845,3.575c-1.196,0.684 -2.543,1.025 -4.041,1.025c-2.073,0 -3.763,-0.658 -5.07,-1.975c-1.307,-1.316 -1.96,-3.158 -1.96,-5.525c-0,-0.833 0.095,-1.733 0.286,-2.7l3.157,-15.3l6.026,0Z" style="fill:rgb(244,244,245);fill-rule:nonzero;"/>
        <path d="M734.307,189.691l-6.695,0l0,-6l7.939,0l2.2,-10.9l6.025,0l-2.2,10.9l8.226,0l0,6l-9.469,0l-2.678,12.85l0.478,0.35l6.409,-4.6l3.012,4.7l-6.934,4.9c-1.212,0.867 -2.503,1.3 -3.874,1.3c-0.701,0 -1.371,-0.125 -2.008,-0.375c-0.638,-0.25 -1.196,-0.608 -1.674,-1.075c-0.478,-0.466 -0.861,-1.033 -1.148,-1.7c-0.287,-0.666 -0.43,-1.416 -0.43,-2.25c-0,-0.266 0.016,-0.508 0.048,-0.725c0.031,-0.216 0.079,-0.508 0.143,-0.875l2.63,-12.5Z" style="fill:rgb(244,244,245);fill-rule:nonzero;"/>
        <path d="M779.835,192.991c0,2.334 -0.319,4.492 -0.956,6.475c-0.638,1.984 -1.579,3.692 -2.822,5.125c-1.243,1.434 -2.798,2.559 -4.663,3.375c-1.865,0.817 -4.025,1.225 -6.48,1.225c-1.403,0 -2.718,-0.216 -3.945,-0.65c-1.228,-0.433 -2.304,-1.075 -3.228,-1.925c-0.925,-0.85 -1.658,-1.891 -2.2,-3.125c-0.542,-1.233 -0.813,-2.633 -0.813,-4.2c-0,-2.566 0.382,-4.858 1.148,-6.875c0.765,-2.016 1.809,-3.725 3.132,-5.125c1.323,-1.4 2.885,-2.466 4.687,-3.2c1.801,-0.733 3.738,-1.1 5.81,-1.1c1.499,0 2.886,0.242 4.161,0.725c1.275,0.484 2.367,1.159 3.276,2.025c0.908,0.867 1.618,1.917 2.128,3.15c0.51,1.234 0.765,2.6 0.765,4.1Zm-14.012,10.3c1.148,-0.033 2.208,-0.3 3.18,-0.8c0.973,-0.5 1.801,-1.158 2.487,-1.975c0.685,-0.816 1.219,-1.775 1.602,-2.875c0.383,-1.1 0.574,-2.266 0.574,-3.5c-0,-1.733 -0.446,-3.041 -1.339,-3.925c-0.893,-0.883 -2.088,-1.325 -3.587,-1.325c-1.148,0 -2.2,0.259 -3.156,0.775c-0.957,0.517 -1.786,1.2 -2.487,2.05c-0.701,0.85 -1.243,1.825 -1.626,2.925c-0.383,1.1 -0.574,2.25 -0.574,3.45c0,1.7 0.446,2.992 1.339,3.875c0.893,0.884 2.088,1.325 3.587,1.325Z" style="fill:rgb(244,244,245);fill-rule:nonzero;"/>
        <path d="M793.847,189.691l-6.743,0l0,-6l7.987,0l1.052,-5.1c0.127,-0.7 0.382,-1.366 0.765,-2c0.383,-0.633 0.837,-1.175 1.363,-1.625c0.526,-0.45 1.116,-0.808 1.769,-1.075c0.654,-0.266 1.316,-0.4 1.985,-0.4l8.417,0l0,6l-7.173,0c-0.861,0 -1.387,0.5 -1.579,1.5l-0.573,2.7l8.082,0l-0,6l-9.326,0l-5.308,24.8c-0.351,1.634 -1.005,2.809 -1.961,3.525c-0.957,0.717 -1.993,1.075 -3.109,1.075c-0.924,0 -1.825,-0.225 -2.702,-0.675c-0.876,-0.45 -1.554,-1.091 -2.032,-1.925l-3.013,-5.05l4.639,-2.95l2.104,3.8l0.574,-0.1l4.782,-22.5Z" style="fill:rgb(244,244,245);fill-rule:nonzero;"/>
        <path d="M823.115,189.691l-6.743,0l0,-6l7.987,0l1.052,-5.1c0.127,-0.7 0.382,-1.366 0.765,-2c0.383,-0.633 0.837,-1.175 1.363,-1.625c0.526,-0.45 1.116,-0.808 1.769,-1.075c0.654,-0.266 1.316,-0.4 1.985,-0.4l8.417,0l-0,6l-7.174,0c-0.86,0 -1.386,0.5 -1.578,1.5l-0.574,2.7l8.083,0l-0,6l-9.326,0l-5.308,24.8c-0.351,1.634 -1.005,2.809 -1.961,3.525c-0.957,0.717 -1.993,1.075 -3.109,1.075c-0.924,0 -1.825,-0.225 -2.702,-0.675c-0.876,-0.45 -1.554,-1.091 -2.032,-1.925l-3.013,-5.05l4.639,-2.95l2.104,3.8l0.574,-0.1l4.782,-22.5Z" style="fill:rgb(244,244,245);fill-rule:nonzero;"/>
        <path d="M878.112,173.491l20.134,0l-0,6.3l-15.112,0l-1.626,8l13.534,0l-0,6.3l-14.826,0l-2.917,14.4l-6.313,0l7.126,-35Z" style="fill:rgb(244,244,245);fill-rule:nonzero;"/>
        <path d="M908.002,189.591l-0.479,-0.3l-3.778,2.9l-3.204,-4.5l3.826,-3c0.733,-0.566 1.507,-0.991 2.319,-1.275c0.813,-0.283 1.587,-0.425 2.32,-0.425c1.275,0 2.391,0.367 3.348,1.1c0.956,0.734 1.53,1.767 1.721,3.1l0.861,0c0.638,-1.4 1.53,-2.45 2.678,-3.15c1.148,-0.7 2.439,-1.05 3.874,-1.05c1.817,0 3.292,0.592 4.423,1.775c1.132,1.184 1.698,2.825 1.698,4.925c0,0.434 -0.024,0.859 -0.072,1.275c-0.047,0.417 -0.135,0.925 -0.263,1.525l-0.239,1.1l-6.408,0.5l0.143,-0.7c0.096,-0.5 0.144,-0.95 0.144,-1.35c-0,-0.966 -0.255,-1.733 -0.765,-2.3c-0.51,-0.566 -1.276,-0.85 -2.296,-0.85c-1.275,0 -2.287,0.45 -3.037,1.35c-0.749,0.9 -1.299,2.184 -1.649,3.85l-1.722,8.4l5.739,0l-0,6l-16.356,0l0,-6l4.591,0l2.583,-12.9Z" style="fill:rgb(244,244,245);fill-rule:nonzero;"/>
        <path d="M936.648,198.141c-0.064,0.267 -0.096,0.55 -0.096,0.85c0,1.2 0.439,2.2 1.315,3c0.877,0.8 2.033,1.2 3.467,1.2c1.499,0 2.695,-0.283 3.587,-0.85c0.893,-0.566 1.578,-1.233 2.057,-2l4.782,3.15c-0.383,0.667 -0.885,1.334 -1.506,2c-0.622,0.667 -1.387,1.275 -2.296,1.825c-0.909,0.55 -1.977,1 -3.204,1.35c-1.228,0.35 -2.654,0.525 -4.28,0.525c-1.467,0 -2.814,-0.241 -4.041,-0.725c-1.228,-0.483 -2.28,-1.15 -3.157,-2c-0.876,-0.85 -1.562,-1.866 -2.056,-3.05c-0.494,-1.183 -0.741,-2.491 -0.741,-3.925c-0,-2.266 0.326,-4.4 0.98,-6.4c0.654,-2 1.602,-3.75 2.845,-5.25c1.244,-1.5 2.774,-2.683 4.592,-3.55c1.817,-0.866 3.905,-1.3 6.264,-1.3c1.658,0 3.101,0.275 4.328,0.825c1.228,0.55 2.24,1.284 3.037,2.2c0.797,0.917 1.395,1.959 1.794,3.125c0.398,1.167 0.597,2.367 0.597,3.6c0,0.4 -0.024,0.809 -0.071,1.225c-0.048,0.417 -0.136,0.959 -0.263,1.625l-0.527,2.55l-17.407,0Zm7.556,-9.45c-1.499,0 -2.798,0.392 -3.898,1.175c-1.1,0.784 -1.921,1.742 -2.463,2.875l11.191,0c0,-1.266 -0.375,-2.258 -1.124,-2.975c-0.749,-0.716 -1.984,-1.075 -3.706,-1.075Z" style="fill:rgb(244,244,245);fill-rule:nonzero;"/>
        <path d="M970.268,203.191c1.147,0 2.199,-0.25 3.156,-0.75c0.956,-0.5 1.785,-1.175 2.487,-2.025c0.701,-0.85 1.243,-1.825 1.626,-2.925c0.382,-1.1 0.574,-2.25 0.574,-3.45c-0,-1.6 -0.439,-2.841 -1.316,-3.725c-0.876,-0.883 -2.096,-1.325 -3.658,-1.325c-1.148,0 -2.208,0.259 -3.18,0.775c-0.973,0.517 -1.802,1.2 -2.487,2.05c-0.686,0.85 -1.22,1.825 -1.602,2.925c-0.383,1.1 -0.574,2.25 -0.574,3.45c-0,1.634 0.438,2.875 1.315,3.725c0.877,0.85 2.096,1.275 3.659,1.275Zm5.834,1.7l-0.861,0c-0.35,0.567 -0.749,1.109 -1.195,1.625c-0.447,0.517 -0.981,0.975 -1.602,1.375c-0.622,0.4 -1.363,0.717 -2.224,0.95c-0.861,0.234 -1.865,0.35 -3.013,0.35c-1.116,0 -2.16,-0.216 -3.133,-0.65c-0.972,-0.433 -1.833,-1.05 -2.582,-1.85c-0.749,-0.8 -1.339,-1.766 -1.769,-2.9c-0.431,-1.133 -0.646,-2.4 -0.646,-3.8c-0,-2.233 0.295,-4.375 0.885,-6.425c0.59,-2.05 1.458,-3.858 2.606,-5.425c1.148,-1.566 2.551,-2.816 4.209,-3.75c1.657,-0.933 3.554,-1.4 5.69,-1.4c1.945,0 3.404,0.417 4.376,1.25c0.973,0.834 1.634,1.85 1.985,3.05l0.861,0l0.717,-3.6l6.026,0l-5.882,28.75l0.478,0.35l2.678,-1.9l3.013,4.7l-3.204,2.2c-0.638,0.467 -1.3,0.8 -1.985,1c-0.685,0.2 -1.347,0.3 -1.985,0.3c-1.434,0 -2.654,-0.475 -3.658,-1.425c-1.004,-0.95 -1.507,-2.258 -1.507,-3.925c0,-0.466 0.064,-1.016 0.192,-1.65l1.53,-7.2Z" style="fill:rgb(244,244,245);fill-rule:nonzero;"/>
        <path d="M997.957,183.691l-2.965,14.4c-0.127,0.567 -0.191,1.117 -0.191,1.65c-0,1.267 0.335,2.209 1.004,2.825c0.67,0.617 1.562,0.925 2.678,0.925c1.69,0 2.989,-0.575 3.898,-1.725c0.909,-1.15 1.586,-2.775 2.032,-4.875l2.679,-13.2l6.025,0l-3.921,18.9l0.526,0.3l1.721,-1.3l3.013,4.6l-2.247,1.7c-0.606,0.467 -1.236,0.8 -1.889,1c-0.654,0.2 -1.3,0.3 -1.937,0.3c-1.307,0 -2.455,-0.391 -3.443,-1.175c-0.989,-0.783 -1.547,-1.925 -1.674,-3.425l-0.861,0c-0.702,1.7 -1.65,2.892 -2.846,3.575c-1.195,0.684 -2.542,1.025 -4.041,1.025c-2.072,0 -3.762,-0.658 -5.069,-1.975c-1.307,-1.316 -1.961,-3.158 -1.961,-5.525c0,-0.833 0.096,-1.733 0.287,-2.7l3.157,-15.3l6.025,0Z" style="fill:rgb(244,244,245);fill-rule:nonzero;"/>
        <path d="M1024.45,198.141c-0.063,0.267 -0.095,0.55 -0.095,0.85c-0,1.2 0.438,2.2 1.315,3c0.877,0.8 2.032,1.2 3.467,1.2c1.499,0 2.694,-0.283 3.587,-0.85c0.893,-0.566 1.578,-1.233 2.056,-2l4.783,3.15c-0.383,0.667 -0.885,1.334 -1.507,2c-0.622,0.667 -1.387,1.275 -2.295,1.825c-0.909,0.55 -1.977,1 -3.205,1.35c-1.227,0.35 -2.654,0.525 -4.28,0.525c-1.466,0 -2.813,-0.241 -4.041,-0.725c-1.227,-0.483 -2.279,-1.15 -3.156,-2c-0.877,-0.85 -1.562,-1.866 -2.057,-3.05c-0.494,-1.183 -0.741,-2.491 -0.741,-3.925c0,-2.266 0.327,-4.4 0.981,-6.4c0.653,-2 1.602,-3.75 2.845,-5.25c1.243,-1.5 2.774,-2.683 4.591,-3.55c1.817,-0.866 3.906,-1.3 6.265,-1.3c1.658,0 3.101,0.275 4.328,0.825c1.227,0.55 2.24,1.284 3.037,2.2c0.797,0.917 1.395,1.959 1.793,3.125c0.399,1.167 0.598,2.367 0.598,3.6c-0,0.4 -0.024,0.809 -0.072,1.225c-0.048,0.417 -0.135,0.959 -0.263,1.625l-0.526,2.55l-17.408,0Zm7.557,-9.45c-1.499,0 -2.798,0.392 -3.898,1.175c-1.1,0.784 -1.921,1.742 -2.463,2.875l11.191,0c-0,-1.266 -0.375,-2.258 -1.124,-2.975c-0.749,-0.716 -1.985,-1.075 -3.706,-1.075Z" style="fill:rgb(244,244,245);fill-rule:nonzero;"/>
        <path d="M1063.95,194.091c0.128,-0.633 0.192,-1.166 0.192,-1.6c-0,-1.2 -0.335,-2.133 -1.005,-2.8c-0.669,-0.666 -1.578,-1 -2.725,-1c-1.435,0 -2.663,0.534 -3.683,1.6c-1.02,1.067 -1.706,2.5 -2.056,4.3l-2.822,13.9l-6.026,0l5.022,-24.8l5.787,0l-0.813,4l0.86,0c0.766,-1.666 1.778,-2.866 3.037,-3.6c1.259,-0.733 2.654,-1.1 4.185,-1.1c2.008,0 3.61,0.634 4.806,1.9c1.195,1.267 1.793,3.05 1.793,5.35c0,0.534 -0.032,1.025 -0.095,1.475c-0.064,0.45 -0.144,0.942 -0.239,1.475l-1.913,9.35l0.478,0.35l2.056,-1.5l3.013,4.7l-2.582,1.8c-1.212,0.867 -2.503,1.3 -3.874,1.3c-0.701,0 -1.371,-0.125 -2.009,-0.375c-0.637,-0.25 -1.195,-0.6 -1.673,-1.05c-0.479,-0.45 -0.861,-1 -1.148,-1.65c-0.287,-0.65 -0.431,-1.391 -0.431,-2.225c0,-0.433 0.048,-0.933 0.144,-1.5l1.721,-8.3Z" style="fill:rgb(244,244,245);fill-rule:nonzero;"/>
        <path d="M1100.63,199.391c-0.893,2.967 -2.479,5.342 -4.758,7.125c-2.28,1.784 -5.333,2.675 -9.159,2.675c-1.402,0 -2.726,-0.233 -3.969,-0.7c-1.243,-0.466 -2.327,-1.166 -3.252,-2.1c-0.925,-0.933 -1.65,-2.091 -2.176,-3.475c-0.526,-1.383 -0.789,-2.991 -0.789,-4.825c0,-2.066 0.343,-4.016 1.028,-5.85c0.686,-1.833 1.682,-3.433 2.989,-4.8c1.307,-1.366 2.886,-2.45 4.735,-3.25c1.849,-0.8 3.953,-1.2 6.312,-1.2c1.722,0 3.236,0.267 4.544,0.8c1.307,0.534 2.391,1.259 3.252,2.175c0.86,0.917 1.514,1.992 1.96,3.225c0.447,1.234 0.67,2.534 0.67,3.9l-6.122,1.25c0,-1.7 -0.406,-3.016 -1.219,-3.95c-0.813,-0.933 -2.128,-1.4 -3.945,-1.4c-1.148,0 -2.208,0.225 -3.181,0.675c-0.972,0.45 -1.817,1.067 -2.534,1.85c-0.718,0.784 -1.276,1.7 -1.674,2.75c-0.399,1.05 -0.598,2.175 -0.598,3.375c0,1.9 0.478,3.3 1.435,4.2c0.956,0.9 2.168,1.35 3.634,1.35c2.009,0 3.571,-0.466 4.687,-1.4c1.116,-0.933 1.961,-2.25 2.535,-3.95l5.595,1.55Z" style="fill:rgb(244,244,245);fill-rule:nonzero;"/>
        <path d="M1115.27,198.091c-0.064,0.234 -0.112,0.484 -0.144,0.75c-0.031,0.267 -0.047,0.534 -0.047,0.8c-0,1.267 0.35,2.225 1.052,2.875c0.701,0.65 1.658,0.975 2.869,0.975c1.722,0 3.045,-0.583 3.969,-1.75c0.925,-1.166 1.611,-2.85 2.057,-5.05l2.63,-13l6.026,0l-6.265,30.9c-0.223,1.134 -0.749,2.067 -1.578,2.8c-0.829,0.734 -1.786,1.1 -2.87,1.1l-13.868,0l-0,-6l11.429,0c0.861,0 1.387,-0.5 1.579,-1.5l1.243,-6.1l-0.861,0c-0.701,1.5 -1.594,2.592 -2.678,3.275c-1.084,0.684 -2.439,1.025 -4.065,1.025c-0.956,0 -1.849,-0.175 -2.678,-0.525c-0.829,-0.35 -1.562,-0.85 -2.2,-1.5c-0.637,-0.65 -1.14,-1.45 -1.506,-2.4c-0.367,-0.95 -0.55,-2.041 -0.55,-3.275c-0,-0.833 0.095,-1.7 0.287,-2.6l1.865,-9.25l-0.478,-0.35l-2.87,2.1l-3.013,-4.7l3.491,-2.45c0.606,-0.433 1.228,-0.75 1.866,-0.95c0.637,-0.2 1.275,-0.3 1.912,-0.3c0.702,0 1.371,0.125 2.009,0.375c0.638,0.25 1.196,0.6 1.674,1.05c0.478,0.45 0.861,1 1.148,1.65c0.287,0.65 0.43,1.392 0.43,2.225c0,0.467 -0.048,0.967 -0.143,1.5l-1.722,8.3Z" style="fill:rgb(244,244,245);fill-rule:nonzero;"/>
    </g>
    <path d="M1049.58,348.197l-0,187.275c-0,7.209 -5.853,13.061 -13.061,13.061l-419.224,-0c-7.209,-0 -13.061,-5.852 -13.061,-13.061l0,-187.275c0,-7.208 5.852,-13.06 13.061,-13.06l419.224,-0c7.208,-0 13.061,5.852 13.061,13.06Z" style="fill:none;stroke:rgb(186,187,189);stroke-width:4px;"/>
    <path d="M1540.55,348.197l-0,187.275c-0,7.209 -5.853,13.061 -13.061,13.061l-384.633,-0c-7.209,-0 -13.061,-5.852 -13.061,-13.061l-0,-187.275c-0,-7.208 5.852,-13.06 13.061,-13.06l384.633,-0c7.208,-0 13.061,5.852 13.061,13.06Z" style="fill:none;stroke:rgb(186,187,189);stroke-width:3.83px;"/>
    <g>
        <g>
            <path d="M369.197,567.42l27.305,0" style="fill:none;stroke:rgb(131,133,136);stroke-width:3.96px;"/>
            <path d="M382.849,540.233l0,36.092" style="fill:none;stroke:rgb(131,133,136);stroke-width:3.96px;"/>
            <path d="M373.47,548.388l0,7.1c0,3.976 2.334,5.64 9.379,5.64c7.046,-0 9.379,-1.664 9.379,-5.64l0,-7.1" style="fill:none;stroke:rgb(131,133,136);stroke-width:3.96px;"/>
        </g>
        <g id="Large-MXR" serif:id="Large MXR">
            <circle cx="382.849" cy="428.032" r="99.803" style="fill:rgb(131,133,136);"/>
            <rect x="378.679" y="353.297" width="8.341" height="69.654" style="fill:white;"/>
            <circle cx="382.849" cy="337.8" r="4.171" style="fill:white;"/>
        </g>
        <path d="M461.113,538.319l-15.943,-4.527l4.527,-15.943" style="fill:none;stroke:rgb(125,97,186);stroke-width:10.42px;stroke-linejoin:miter;stroke-miterlimit:10;"/>
        <path d="M326.961,537.38c-39.098,-20.277 -65.84,-61.15 -65.84,-108.224c0,-67.23 54.545,-121.812 121.728,-121.812c67.184,0 121.728,54.582 121.728,121.812c0,44.445 -23.838,83.362 -59.407,104.636" style="fill:none;stroke:rgb(125,97,186);stroke-width:10.42px;"/>
    </g>
    <g>
        <path d="M671.258,501.5l-4.766,0l-0,-4.056l5.644,0l0.744,-3.447c0.09,-0.474 0.27,-0.924 0.541,-1.352c0.27,-0.428 0.591,-0.795 0.963,-1.099c0.372,-0.304 0.789,-0.546 1.251,-0.727c0.462,-0.18 0.929,-0.27 1.402,-0.27l5.949,0l0,4.056l-5.07,0c-0.608,0 -0.98,0.338 -1.115,1.014l-0.406,1.825l5.712,0l0,4.056l-6.591,0l-3.751,16.765c-0.248,1.104 -0.71,1.899 -1.386,2.383c-0.676,0.484 -1.409,0.727 -2.197,0.727c-0.654,-0 -1.29,-0.152 -1.91,-0.457c-0.62,-0.304 -1.098,-0.738 -1.436,-1.301l-2.13,-3.414l3.279,-1.994l1.487,2.569l0.406,-0.068l3.38,-15.21Z" style="fill:rgb(131,133,136);fill-rule:nonzero;"/>
        <path d="M698.433,502.447c0.045,-0.181 0.067,-0.338 0.067,-0.474c0,-0.63 -0.304,-0.946 -0.912,-0.946c-0.361,0 -0.631,0.118 -0.811,0.355c-0.181,0.237 -0.305,0.524 -0.372,0.862l-2.569,11.965l-4.259,0l2.501,-11.762c0.046,-0.226 0.068,-0.383 0.068,-0.474c0,-0.63 -0.293,-0.946 -0.879,-0.946c-0.653,0 -1.059,0.406 -1.217,1.217l-2.568,11.965l-4.225,0l3.549,-16.765l4.258,0l-0.338,1.623l0.609,-0c0.18,-0.699 0.518,-1.223 1.014,-1.572c0.496,-0.349 1.059,-0.524 1.69,-0.524c0.743,0 1.307,0.203 1.69,0.608c0.383,0.406 0.631,0.902 0.743,1.488l0.609,-0c0.248,-0.609 0.625,-1.11 1.132,-1.504c0.507,-0.395 1.166,-0.592 1.977,-0.592c0.947,0 1.674,0.304 2.181,0.913c0.507,0.608 0.76,1.34 0.76,2.197c0,0.157 -0.006,0.298 -0.017,0.422c-0.011,0.124 -0.039,0.276 -0.084,0.456l-1.995,9.228l0.338,0.236l1.15,-0.811l2.129,3.177l-1.521,1.014c-0.451,0.316 -0.907,0.541 -1.369,0.676c-0.462,0.136 -0.918,0.203 -1.369,0.203c-0.495,0 -0.963,-0.084 -1.402,-0.253c-0.44,-0.169 -0.829,-0.411 -1.167,-0.727c-0.338,-0.315 -0.602,-0.704 -0.794,-1.166c-0.191,-0.462 -0.287,-0.986 -0.287,-1.572c-0,-0.315 0.045,-0.698 0.135,-1.149l1.555,-7.368Z" style="fill:rgb(131,133,136);fill-rule:nonzero;"/>
        <path d="M711.716,509.95l3.651,-17.17l-0.609,-0l-3.954,8.112l-4.462,-0l0,-0.406l5.239,-9.937l8.721,0l-4.124,19.401l5.847,0l0,4.259l-17.001,0l-0,-4.259l6.692,0Z" style="fill:rgb(131,133,136);fill-rule:nonzero;"/>
        <g id="Flat-jack" serif:id="Flat jack">
            <path d="M692.233,400.056c0.248,-0.143 0.554,-0.143 0.801,-0c3.256,1.879 25.334,14.626 28.589,16.506c0.248,0.143 0.401,0.407 0.401,0.693c-0,3.759 0.001,29.253 0.001,33.012c0,0.286 -0.152,0.551 -0.4,0.694c-3.255,1.88 -25.332,14.626 -28.587,16.506c-0.248,0.143 -0.554,0.143 -0.802,-0c-3.255,-1.879 -25.333,-14.627 -28.589,-16.506c-0.247,-0.143 -0.4,-0.407 -0.4,-0.694c-0,-3.758 -0.001,-29.253 -0.002,-33.012c0,-0.286 0.153,-0.55 0.401,-0.693c3.255,-1.88 25.332,-14.627 28.587,-16.506Z" style="fill:rgb(213,213,213);"/>
            <path d="M691.296,398.432c0.828,-0.478 1.848,-0.478 2.676,-0l28.589,16.506c0.828,0.478 1.338,1.361 1.338,2.317l0.001,33.012c0,0.956 -0.51,1.84 -1.338,2.318l-28.587,16.506c-0.828,0.478 -1.848,0.478 -2.676,-0l-28.589,-16.506c-0.828,-0.478 -1.338,-1.362 -1.338,-2.318l-0.002,-33.011c0,-0.957 0.51,-1.84 1.338,-2.318l28.588,-16.506Zm0.937,1.624l-28.587,16.506c-0.248,0.143 -0.401,0.407 -0.401,0.693l0.002,33.012c-0,0.287 0.153,0.551 0.4,0.694l28.589,16.506c0.248,0.143 0.554,0.143 0.802,-0l28.587,-16.506c0.248,-0.143 0.4,-0.408 0.4,-0.694l-0.001,-33.012c-0,-0.286 -0.153,-0.55 -0.401,-0.693l-28.589,-16.506c-0.247,-0.143 -0.553,-0.143 -0.801,-0Z" style="fill:rgb(169,169,169);"/>
            <ellipse cx="692.635" cy="433.761" rx="17.849" ry="17.848" style="fill:rgb(131,133,136);"/>
        </g>
        <circle cx="692.635" cy="433.761" r="48.662" style="fill:none;stroke:url(#_Linear1);stroke-width:10.42px;"/>
    </g>
    <g>
        <path d="M923.71,501.5l-4.766,0l-0,-4.056l5.645,0l0.743,-3.447c0.09,-0.474 0.271,-0.924 0.541,-1.352c0.27,-0.428 0.591,-0.795 0.963,-1.099c0.372,-0.304 0.789,-0.546 1.251,-0.727c0.462,-0.18 0.929,-0.27 1.403,-0.27l5.948,0l0,4.056l-5.07,0c-0.608,0 -0.98,0.338 -1.115,1.014l-0.406,1.825l5.713,0l-0,4.056l-6.591,0l-3.752,16.765c-0.248,1.104 -0.71,1.899 -1.386,2.383c-0.676,0.484 -1.408,0.727 -2.197,0.727c-0.654,-0 -1.29,-0.152 -1.91,-0.457c-0.619,-0.304 -1.098,-0.738 -1.436,-1.301l-2.13,-3.414l3.279,-1.994l1.487,2.569l0.406,-0.068l3.38,-15.21Z" style="fill:rgb(131,133,136);fill-rule:nonzero;"/>
        <path d="M950.885,502.447c0.045,-0.181 0.068,-0.338 0.068,-0.474c-0,-0.63 -0.305,-0.946 -0.913,-0.946c-0.361,0 -0.631,0.118 -0.811,0.355c-0.18,0.237 -0.304,0.524 -0.372,0.862l-2.569,11.965l-4.259,0l2.502,-11.762c0.045,-0.226 0.067,-0.383 0.067,-0.474c0,-0.63 -0.293,-0.946 -0.879,-0.946c-0.653,0 -1.059,0.406 -1.216,1.217l-2.569,11.965l-4.225,0l3.549,-16.765l4.259,0l-0.338,1.623l0.608,-0c0.18,-0.699 0.518,-1.223 1.014,-1.572c0.496,-0.349 1.059,-0.524 1.69,-0.524c0.744,0 1.307,0.203 1.69,0.608c0.383,0.406 0.631,0.902 0.744,1.488l0.608,-0c0.248,-0.609 0.625,-1.11 1.132,-1.504c0.507,-0.395 1.166,-0.592 1.978,-0.592c0.946,0 1.673,0.304 2.18,0.913c0.507,0.608 0.76,1.34 0.76,2.197c0,0.157 -0.005,0.298 -0.017,0.422c-0.011,0.124 -0.039,0.276 -0.084,0.456l-1.994,9.228l0.338,0.236l1.149,-0.811l2.129,3.177l-1.521,1.014c-0.45,0.316 -0.907,0.541 -1.369,0.676c-0.462,0.136 -0.918,0.203 -1.369,0.203c-0.495,0 -0.963,-0.084 -1.402,-0.253c-0.44,-0.169 -0.828,-0.411 -1.166,-0.727c-0.338,-0.315 -0.603,-0.704 -0.795,-1.166c-0.191,-0.462 -0.287,-0.986 -0.287,-1.572c0,-0.315 0.045,-0.698 0.135,-1.149l1.555,-7.368Z" style="fill:rgb(131,133,136);fill-rule:nonzero;"/>
        <path d="M964.168,509.95l3.651,-17.17l-0.609,-0l-3.954,8.112l-4.462,-0l0,-0.406l5.239,-9.937l8.721,0l-4.124,19.401l5.847,0l0,4.259l-17.001,0l0,-4.259l6.692,0Z" style="fill:rgb(131,133,136);fill-rule:nonzero;"/>
        <g id="_1900h" serif:id="1900h">
            <circle cx="944.818" cy="433.761" r="50.7" style="fill:rgb(131,133,136);"/>
            <rect x="942.974" y="389.174" width="3.687" height="35.149" style="fill:white;"/>
        </g>
        <path d="M897.669,491.065l10.703,-2.741l-2.741,-10.703" style="fill:none;stroke:url(#_Linear2);stroke-width:10.42px;stroke-linejoin:miter;stroke-miterlimit:10;"/>
        <path d="M991.619,491.065l-10.704,-2.741l2.741,-10.703" style="fill:none;stroke:url(#_Linear3);stroke-width:10.42px;stroke-linejoin:miter;stroke-miterlimit:10;"/>
        <path d="M908.372,488.324c-17.44,-11.707 -28.927,-31.609 -28.927,-54.173c-0,-35.984 29.214,-65.199 65.199,-65.199c35.984,0 65.199,29.215 65.199,65.199c-0,22.564 -11.487,42.466 -28.928,54.173" style="fill:none;stroke:url(#_Linear4);stroke-width:10.42px;"/>
    </g>
    <g>
        <path d="M1207.41,501.5l-4.766,0l0,-4.056l5.645,0l0.743,-3.447c0.09,-0.474 0.271,-0.924 0.541,-1.352c0.271,-0.428 0.592,-0.795 0.963,-1.099c0.372,-0.304 0.789,-0.546 1.251,-0.727c0.462,-0.18 0.93,-0.27 1.403,-0.27l5.949,0l-0,4.056l-5.07,0c-0.609,0 -0.981,0.338 -1.116,1.014l-0.405,1.825l5.712,0l-0,4.056l-6.591,0l-3.752,16.765c-0.248,1.104 -0.71,1.899 -1.386,2.383c-0.676,0.484 -1.408,0.727 -2.197,0.727c-0.653,-0 -1.29,-0.152 -1.91,-0.457c-0.619,-0.304 -1.098,-0.738 -1.436,-1.301l-2.129,-3.414l3.278,-1.994l1.487,2.569l0.406,-0.068l3.38,-15.21Z" style="fill:rgb(131,133,136);fill-rule:nonzero;"/>
        <path d="M1234.59,502.447c0.045,-0.181 0.068,-0.338 0.068,-0.474c-0,-0.63 -0.304,-0.946 -0.913,-0.946c-0.36,0 -0.631,0.118 -0.811,0.355c-0.18,0.237 -0.304,0.524 -0.372,0.862l-2.569,11.965l-4.258,0l2.501,-11.762c0.045,-0.226 0.067,-0.383 0.067,-0.474c0,-0.63 -0.293,-0.946 -0.878,-0.946c-0.654,0 -1.059,0.406 -1.217,1.217l-2.569,11.965l-4.225,0l3.549,-16.765l4.259,0l-0.338,1.623l0.608,-0c0.18,-0.699 0.518,-1.223 1.014,-1.572c0.496,-0.349 1.059,-0.524 1.69,-0.524c0.744,0 1.307,0.203 1.69,0.608c0.383,0.406 0.631,0.902 0.744,1.488l0.608,-0c0.248,-0.609 0.626,-1.11 1.133,-1.504c0.507,-0.395 1.166,-0.592 1.977,-0.592c0.946,0 1.673,0.304 2.18,0.913c0.507,0.608 0.76,1.34 0.76,2.197c0,0.157 -0.005,0.298 -0.016,0.422c-0.012,0.124 -0.04,0.276 -0.085,0.456l-1.994,9.228l0.338,0.236l1.149,-0.811l2.129,3.177l-1.521,1.014c-0.45,0.316 -0.907,0.541 -1.368,0.676c-0.462,0.136 -0.919,0.203 -1.369,0.203c-0.496,0 -0.964,-0.084 -1.403,-0.253c-0.439,-0.169 -0.828,-0.411 -1.166,-0.727c-0.338,-0.315 -0.603,-0.704 -0.794,-1.166c-0.192,-0.462 -0.288,-0.986 -0.288,-1.572c0,-0.315 0.045,-0.698 0.135,-1.149l1.555,-7.368Z" style="fill:rgb(131,133,136);fill-rule:nonzero;"/>
        <path d="M1257.54,509.95l0,4.259l-17.102,0l0.98,-4.664c0.27,-1.33 0.681,-2.451 1.234,-3.363c0.552,-0.913 1.228,-1.668 2.028,-2.265c0.799,-0.597 1.729,-1.07 2.788,-1.42c1.059,-0.349 2.242,-0.636 3.549,-0.862c0.676,-0.112 1.335,-0.276 1.977,-0.49c0.643,-0.214 1.217,-0.49 1.724,-0.828c0.507,-0.338 0.913,-0.766 1.217,-1.284c0.304,-0.518 0.456,-1.138 0.456,-1.859c0,-0.856 -0.281,-1.544 -0.845,-2.062c-0.563,-0.518 -1.386,-0.777 -2.467,-0.777c-1.33,-0 -2.439,0.388 -3.329,1.166c-0.891,0.777 -1.482,1.853 -1.775,3.228l-0.304,1.487l-4.462,-0l0.406,-1.893c0.563,-2.614 1.695,-4.642 3.397,-6.084c1.701,-1.442 3.926,-2.163 6.675,-2.163c1.127,-0 2.141,0.174 3.042,0.524c0.902,0.349 1.662,0.822 2.282,1.419c0.619,0.597 1.098,1.29 1.436,2.079c0.338,0.789 0.507,1.611 0.507,2.467c0,2.457 -0.76,4.411 -2.281,5.865c-1.521,1.453 -3.656,2.473 -6.405,3.059c-1.217,0.248 -2.209,0.507 -2.975,0.777c-0.766,0.27 -1.374,0.563 -1.825,0.879c-0.451,0.315 -0.783,0.67 -0.997,1.065c-0.214,0.394 -0.389,0.839 -0.524,1.335l-0.101,0.405l11.694,0Z" style="fill:rgb(131,133,136);fill-rule:nonzero;"/>
        <g id="Flat-jack1" serif:id="Flat jack">
            <path d="M1229.5,397.55c0.248,-0.143 0.553,-0.143 0.801,-0c3.255,1.879 25.334,14.626 28.589,16.506c0.248,0.143 0.4,0.407 0.4,0.694c0.001,3.758 0.002,29.253 0.002,33.011c-0,0.287 -0.153,0.551 -0.401,0.694c-3.255,1.88 -25.332,14.627 -28.587,16.506c-0.248,0.143 -0.553,0.143 -0.801,0c-3.255,-1.879 -25.334,-14.626 -28.589,-16.506c-0.248,-0.143 -0.401,-0.407 -0.401,-0.694c0,-3.758 -0.001,-29.253 -0.001,-33.011c-0,-0.287 0.153,-0.551 0.4,-0.694c3.256,-1.88 25.333,-14.627 28.588,-16.506Z" style="fill:rgb(213,213,213);"/>
            <path d="M1228.57,395.926c0.828,-0.478 1.848,-0.478 2.676,0l28.589,16.506c0.828,0.478 1.338,1.361 1.338,2.317l0.002,33.012c-0,0.956 -0.51,1.84 -1.338,2.318l-28.587,16.506c-0.828,0.478 -1.849,0.478 -2.677,-0l-28.588,-16.506c-0.828,-0.478 -1.338,-1.361 -1.339,-2.317l-0.001,-33.012c-0,-0.956 0.51,-1.84 1.338,-2.318l28.587,-16.506Zm0.938,1.624l-28.588,16.506c-0.247,0.143 -0.4,0.407 -0.4,0.694l0.001,33.011c0,0.287 0.153,0.551 0.401,0.694l28.589,16.506c0.248,0.143 0.553,0.143 0.801,0l28.587,-16.506c0.248,-0.143 0.401,-0.407 0.401,-0.694l-0.002,-33.011c0,-0.287 -0.152,-0.551 -0.4,-0.694l-28.589,-16.506c-0.248,-0.143 -0.553,-0.143 -0.801,-0Z" style="fill:rgb(169,169,169);"/>
            <ellipse cx="1229.91" cy="431.255" rx="17.849" ry="17.848" style="fill:rgb(131,133,136);"/>
        </g>
        <circle cx="1229.91" cy="431.255" r="48.662" style="fill:none;stroke:rgb(64,140,148);stroke-width:10.42px;"/>
    </g>
    <g>
        <g id="Tall-Trimmer" serif:id="Tall Trimmer">
            <circle cx="1452.85" cy="433.61" r="23.953" style="fill:rgb(131,133,136);"/>
            <rect x="1450.52" y="409.657" width="4.667" height="12.839" style="fill:white;"/>
        </g>
        <path d="M1486.49,464.399l-10.823,-2.223l2.223,-10.823" style="fill:none;stroke:rgb(64,140,148);stroke-width:10.42px;stroke-linejoin:miter;stroke-miterlimit:10;"/>
        <path d="M1436.29,466.23c-11.623,-6.063 -19.574,-18.286 -19.574,-32.362c0,-20.104 16.216,-36.426 36.189,-36.426c19.973,0 36.189,16.322 36.189,36.426c0,11.424 -5.237,21.628 -13.424,28.308" style="fill:none;stroke:rgb(64,140,148);stroke-width:10.42px;"/>
    </g>
    <path d="M814.254,442.499l2.656,6.283l0.613,0l1.992,-3.678l5.108,2.656l-1.634,3.27c-1.363,2.792 -3.491,4.189 -6.386,4.189c-1.43,-0 -2.596,-0.324 -3.499,-0.971c-0.902,-0.647 -1.643,-1.686 -2.222,-3.116l-1.686,-3.933l-8.428,7.917l-4.342,-4.546l10.216,-9.553l-2.554,-6.078l-0.613,-0l-2.452,3.933l-4.904,-3.167l2.452,-3.78c1.464,-2.316 3.44,-3.474 5.926,-3.474c2.52,0 4.359,1.328 5.517,3.985l1.634,3.882l8.071,-7.56l4.342,4.546l-9.807,9.195Z" style="fill:rgb(35,31,32);fill-rule:nonzero;"/>
    <path d="M1351.52,442.499l2.656,6.283l0.613,0l1.993,-3.678l5.108,2.656l-1.635,3.27c-1.362,2.792 -3.49,4.189 -6.385,4.189c-1.43,-0 -2.597,-0.324 -3.499,-0.971c-0.903,-0.647 -1.643,-1.686 -2.222,-3.116l-1.686,-3.933l-8.429,7.917l-4.342,-4.546l10.217,-9.553l-2.554,-6.078l-0.613,-0l-2.452,3.933l-4.904,-3.167l2.452,-3.78c1.464,-2.316 3.439,-3.474 5.925,-3.474c2.52,0 4.359,1.328 5.517,3.985l1.635,3.882l8.071,-7.56l4.342,4.546l-9.808,9.195Z" style="fill:rgb(35,31,32);fill-rule:nonzero;"/>
    <path d="M544.509,438.185l10.566,-0l2.049,-9.734l7.3,0l-2.049,9.734l8.901,-0l0,7.3l-10.502,-0l-2.049,9.734l-7.3,-0l2.049,-9.734l-8.965,-0l-0,-7.3Z" style="fill:rgb(35,31,32);fill-rule:nonzero;"/>
    <path d="M665.594,572.793l5.26,0l1.021,-5.066l3.634,-0l-1.02,5.066l4.432,0l-0,3.8l-5.229,0l-1.02,5.067l-3.635,-0l1.02,-5.067l-4.463,0l-0,-3.8Zm-2.104,9.967l13.326,-0l0,3.6l-13.326,-0l-0,-3.6Z" style="fill:rgb(35,31,32);fill-rule:nonzero;"/>
    <path d="M683.607,575.96l2.615,-12.933l14.283,-0l-0,4.2l-10.904,-0l-1.307,6.333l0.574,-0c0.467,-0.978 1.116,-1.756 1.945,-2.333c0.829,-0.578 1.934,-0.867 3.315,-0.867c0.851,-0 1.626,0.155 2.328,0.467c0.701,0.311 1.307,0.75 1.817,1.316c0.51,0.567 0.903,1.261 1.18,2.084c0.276,0.822 0.414,1.744 0.414,2.766c0,1.334 -0.218,2.6 -0.653,3.8c-0.436,1.2 -1.068,2.245 -1.897,3.134c-0.829,0.888 -1.855,1.594 -3.077,2.116c-1.222,0.522 -2.62,0.784 -4.193,0.784c-1.147,-0 -2.189,-0.156 -3.124,-0.467c-0.935,-0.311 -1.732,-0.745 -2.391,-1.3c-0.659,-0.556 -1.169,-1.228 -1.53,-2.017c-0.362,-0.789 -0.542,-1.65 -0.542,-2.583c-0,-0.445 0.053,-0.945 0.159,-1.5l0.159,-0.8l4.209,-0l-0.096,0.467c-0.042,0.222 -0.074,0.394 -0.096,0.516c-0.021,0.122 -0.031,0.272 -0.031,0.45c-0,0.889 0.318,1.617 0.956,2.184c0.638,0.566 1.626,0.85 2.965,0.85c0.702,-0 1.35,-0.123 1.945,-0.367c0.595,-0.245 1.105,-0.583 1.53,-1.017c0.425,-0.433 0.755,-0.939 0.989,-1.516c0.233,-0.578 0.35,-1.212 0.35,-1.9c0,-1.178 -0.255,-2.017 -0.765,-2.517c-0.51,-0.5 -1.148,-0.75 -1.913,-0.75c-0.616,-0 -1.11,0.139 -1.482,0.417c-0.372,0.277 -0.654,0.605 -0.845,0.983l-6.887,-0Z" style="fill:rgb(35,31,32);fill-rule:nonzero;"/>
    <path d="M703.47,563.027l4.272,-0l0.733,21.133l0.574,-0l8.577,-21.133l4.399,-0l0,0.4l-9.628,22.933l-7.843,-0l-1.084,-23.333Z" style="fill:rgb(35,31,32);fill-rule:nonzero;"/>
    <path d="M310.955,612.259c-0,-0.756 0.266,-1.412 0.797,-1.967c0.531,-0.556 1.158,-0.833 1.881,-0.833c0.723,-0 1.35,0.277 1.881,0.833c0.531,0.555 0.797,1.211 0.797,1.967c0,0.755 -0.266,1.411 -0.797,1.966c-0.531,0.556 -1.158,0.834 -1.881,0.834c-0.723,-0 -1.35,-0.278 -1.881,-0.834c-0.531,-0.555 -0.797,-1.211 -0.797,-1.966Zm-5.037,-2.6c0.658,-3.289 1.796,-5.7 3.411,-7.234c1.615,-1.533 3.783,-2.3 6.504,-2.3c1.063,0 2.014,0.189 2.853,0.567c0.84,0.378 1.547,0.894 2.121,1.55c0.573,0.655 1.014,1.428 1.323,2.317c0.308,0.888 0.462,1.844 0.462,2.866c-0,0.778 -0.074,1.522 -0.223,2.234l-1.052,5.2c-0.659,3.288 -1.796,5.7 -3.412,7.233c-1.615,1.533 -3.783,2.3 -6.504,2.3c-1.062,-0 -2.014,-0.189 -2.853,-0.567c-0.84,-0.378 -1.546,-0.894 -2.12,-1.55c-0.574,-0.655 -1.015,-1.428 -1.323,-2.316c-0.309,-0.889 -0.463,-1.845 -0.463,-2.867c0,-0.778 0.075,-1.522 0.223,-2.233l1.053,-5.2Zm6.121,10.733c1.403,-0 2.503,-0.467 3.3,-1.4c0.797,-0.933 1.344,-2.133 1.642,-3.6l1.243,-6c0.128,-0.6 0.191,-1.167 0.191,-1.7c0,-1.089 -0.265,-1.956 -0.797,-2.6c-0.531,-0.645 -1.339,-0.967 -2.423,-0.967c-1.403,0 -2.503,0.467 -3.3,1.4c-0.797,0.934 -1.344,2.134 -1.641,3.6l-1.244,6c-0.127,0.6 -0.191,1.167 -0.191,1.7c-0,1.089 0.265,1.956 0.797,2.6c0.531,0.645 1.339,0.967 2.423,0.967Z" style="fill:rgb(35,31,32);fill-rule:nonzero;"/>
    <path d="M342.104,608.925l-0,6.667l-5.006,5.2l-2.582,-2.7l3.092,-3.233l2.2,-0.934l-0.223,-0.566l-1.977,0.8l-13.486,-0l0,-3.8l13.486,-0l1.977,0.8l0.223,-0.567l-2.2,-0.933l-3.092,-3.234l2.582,-2.7l5.006,5.2Z" style="fill:rgb(35,31,32);fill-rule:nonzero;"/>
    <path d="M358.746,619.725l0,4.2l-16.132,0l0.925,-4.6c0.255,-1.311 0.642,-2.416 1.163,-3.316c0.521,-0.9 1.159,-1.645 1.913,-2.234c0.755,-0.589 1.631,-1.055 2.63,-1.4c0.999,-0.344 2.115,-0.628 3.348,-0.85c0.638,-0.111 1.259,-0.272 1.865,-0.483c0.606,-0.211 1.148,-0.483 1.626,-0.817c0.478,-0.333 0.861,-0.755 1.148,-1.266c0.287,-0.512 0.43,-1.123 0.43,-1.834c0,-0.844 -0.265,-1.522 -0.797,-2.033c-0.531,-0.511 -1.307,-0.767 -2.327,-0.767c-1.254,0 -2.301,0.384 -3.14,1.15c-0.84,0.767 -1.398,1.828 -1.674,3.184l-0.287,1.466l-4.209,0l0.383,-1.866c0.531,-2.578 1.599,-4.578 3.204,-6c1.605,-1.423 3.704,-2.134 6.297,-2.134c1.063,0 2.019,0.172 2.869,0.517c0.85,0.344 1.568,0.811 2.152,1.4c0.585,0.589 1.036,1.272 1.355,2.05c0.319,0.778 0.478,1.589 0.478,2.433c0,2.422 -0.717,4.35 -2.152,5.784c-1.434,1.433 -3.448,2.438 -6.041,3.016c-1.148,0.245 -2.083,0.5 -2.806,0.767c-0.723,0.267 -1.296,0.555 -1.722,0.867c-0.425,0.311 -0.738,0.661 -0.94,1.05c-0.202,0.388 -0.367,0.827 -0.494,1.316l-0.096,0.4l11.031,0Z" style="fill:rgb(35,31,32);fill-rule:nonzero;"/>
    <path d="M369.491,612.259c-0,-0.756 0.265,-1.412 0.797,-1.967c0.531,-0.556 1.158,-0.833 1.881,-0.833c0.722,-0 1.349,0.277 1.881,0.833c0.531,0.555 0.797,1.211 0.797,1.967c-0,0.755 -0.266,1.411 -0.797,1.966c-0.532,0.556 -1.159,0.834 -1.881,0.834c-0.723,-0 -1.35,-0.278 -1.881,-0.834c-0.532,-0.555 -0.797,-1.211 -0.797,-1.966Zm-5.038,-2.6c0.659,-3.289 1.796,-5.7 3.412,-7.234c1.615,-1.533 3.783,-2.3 6.504,-2.3c1.062,0 2.014,0.189 2.853,0.567c0.84,0.378 1.546,0.894 2.12,1.55c0.574,0.655 1.015,1.428 1.323,2.317c0.309,0.888 0.463,1.844 0.463,2.866c-0,0.778 -0.075,1.522 -0.224,2.234l-1.052,5.2c-0.659,3.288 -1.796,5.7 -3.411,7.233c-1.615,1.533 -3.783,2.3 -6.504,2.3c-1.063,-0 -2.014,-0.189 -2.853,-0.567c-0.84,-0.378 -1.547,-0.894 -2.121,-1.55c-0.573,-0.655 -1.015,-1.428 -1.323,-2.316c-0.308,-0.889 -0.462,-1.845 -0.462,-2.867c-0,-0.778 0.074,-1.522 0.223,-2.233l1.052,-5.2Zm6.122,10.733c1.402,-0 2.502,-0.467 3.299,-1.4c0.798,-0.933 1.345,-2.133 1.642,-3.6l1.244,-6c0.127,-0.6 0.191,-1.167 0.191,-1.7c0,-1.089 -0.266,-1.956 -0.797,-2.6c-0.531,-0.645 -1.339,-0.967 -2.423,-0.967c-1.403,0 -2.503,0.467 -3.3,1.4c-0.797,0.934 -1.344,2.134 -1.642,3.6l-1.243,6c-0.128,0.6 -0.191,1.167 -0.191,1.7c-0,1.089 0.265,1.956 0.797,2.6c0.531,0.645 1.339,0.967 2.423,0.967Z" style="fill:rgb(35,31,32);fill-rule:nonzero;"/>
    <path d="M389.003,612.259c-0,-0.756 0.265,-1.412 0.797,-1.967c0.531,-0.556 1.158,-0.833 1.881,-0.833c0.722,-0 1.349,0.277 1.881,0.833c0.531,0.555 0.797,1.211 0.797,1.967c-0,0.755 -0.266,1.411 -0.797,1.966c-0.532,0.556 -1.159,0.834 -1.881,0.834c-0.723,-0 -1.35,-0.278 -1.881,-0.834c-0.532,-0.555 -0.797,-1.211 -0.797,-1.966Zm-5.038,-2.6c0.659,-3.289 1.796,-5.7 3.412,-7.234c1.615,-1.533 3.783,-2.3 6.504,-2.3c1.062,0 2.013,0.189 2.853,0.567c0.84,0.378 1.546,0.894 2.12,1.55c0.574,0.655 1.015,1.428 1.323,2.317c0.308,0.888 0.463,1.844 0.463,2.866c-0,0.778 -0.075,1.522 -0.224,2.234l-1.052,5.2c-0.659,3.288 -1.796,5.7 -3.411,7.233c-1.615,1.533 -3.783,2.3 -6.504,2.3c-1.063,-0 -2.014,-0.189 -2.854,-0.567c-0.839,-0.378 -1.546,-0.894 -2.12,-1.55c-0.574,-0.655 -1.015,-1.428 -1.323,-2.316c-0.308,-0.889 -0.462,-1.845 -0.462,-2.867c-0,-0.778 0.074,-1.522 0.223,-2.233l1.052,-5.2Zm6.122,10.733c1.402,-0 2.502,-0.467 3.299,-1.4c0.797,-0.933 1.345,-2.133 1.642,-3.6l1.244,-6c0.127,-0.6 0.191,-1.167 0.191,-1.7c0,-1.089 -0.266,-1.956 -0.797,-2.6c-0.531,-0.645 -1.339,-0.967 -2.423,-0.967c-1.403,0 -2.503,0.467 -3.3,1.4c-0.797,0.934 -1.344,2.134 -1.642,3.6l-1.243,6c-0.128,0.6 -0.192,1.167 -0.192,1.7c0,1.089 0.266,1.956 0.798,2.6c0.531,0.645 1.339,0.967 2.423,0.967Z" style="fill:rgb(35,31,32);fill-rule:nonzero;"/>
    <path d="M402.17,623.925l4.846,-23.8l4.017,0l-2.71,13.334l0.765,-0l6.409,-6.534l2.487,2.8l-5.867,5.734l0,0.6l2.551,4.4l0.382,-0l1.754,-1.267l1.945,2.933l-1.435,1.134c-0.531,0.422 -1.047,0.716 -1.546,0.883c-0.5,0.167 -0.983,0.25 -1.451,0.25c-0.68,-0 -1.296,-0.172 -1.849,-0.517c-0.553,-0.344 -1.01,-0.839 -1.371,-1.483l-2.869,-4.933l-0.734,-0l-1.307,6.466l-4.017,0Z" style="fill:rgb(35,31,32);fill-rule:nonzero;"/>
    <path d="M425.635,600.592l4.209,-0l-1.945,9.533l6.376,0l1.945,-9.533l4.209,-0l-4.751,23.333l-4.208,0l1.945,-9.6l-6.377,0l-1.945,9.6l-4.176,0l4.718,-23.333Z" style="fill:rgb(35,31,32);fill-rule:nonzero;"/>
    <path d="M455.381,619.925l0,4l-13.677,0l-0,-6.566l11.924,-5.5l-0,-0.6l-9.278,-0l0,-3.867l13.104,-0l-0,6.467l-11.86,5.466l-0,0.6l9.787,0Z" style="fill:rgb(35,31,32);fill-rule:nonzero;"/>
    <path d="M1202.74,572.327l5.261,-0l1.02,-5.067l3.635,-0l-1.021,5.067l4.432,-0l0,3.8l-5.229,-0l-1.02,5.066l-3.634,0l1.02,-5.066l-4.464,-0l0,-3.8Zm-2.104,9.966l13.327,0l-0,3.6l-13.327,0l0,-3.6Z" style="fill:rgb(35,31,32);fill-rule:nonzero;"/>
    <path d="M1220.76,575.493l2.614,-12.933l14.283,-0l0,4.2l-10.903,-0l-1.308,6.333l0.574,0c0.468,-0.978 1.116,-1.755 1.945,-2.333c0.829,-0.578 1.934,-0.867 3.316,-0.867c0.85,0 1.626,0.156 2.327,0.467c0.702,0.311 1.307,0.75 1.818,1.317c0.51,0.566 0.903,1.261 1.179,2.083c0.276,0.822 0.415,1.744 0.415,2.767c-0,1.333 -0.218,2.6 -0.654,3.8c-0.436,1.2 -1.068,2.244 -1.897,3.133c-0.829,0.889 -1.854,1.594 -3.077,2.117c-1.222,0.522 -2.619,0.783 -4.192,0.783c-1.148,-0 -2.189,-0.156 -3.125,-0.467c-0.935,-0.311 -1.732,-0.744 -2.391,-1.3c-0.659,-0.555 -1.169,-1.228 -1.53,-2.016c-0.361,-0.789 -0.542,-1.65 -0.542,-2.584c-0,-0.444 0.053,-0.944 0.159,-1.5l0.16,-0.8l4.208,0l-0.095,0.467c-0.043,0.222 -0.075,0.394 -0.096,0.517c-0.021,0.122 -0.032,0.272 -0.032,0.45c0,0.888 0.319,1.616 0.957,2.183c0.637,0.567 1.626,0.85 2.965,0.85c0.701,-0 1.349,-0.122 1.944,-0.367c0.596,-0.244 1.106,-0.583 1.531,-1.016c0.425,-0.434 0.754,-0.939 0.988,-1.517c0.234,-0.578 0.351,-1.211 0.351,-1.9c-0,-1.178 -0.255,-2.017 -0.765,-2.517c-0.511,-0.5 -1.148,-0.75 -1.913,-0.75c-0.617,0 -1.111,0.139 -1.483,0.417c-0.372,0.278 -0.653,0.605 -0.845,0.983l-6.886,0Z" style="fill:rgb(35,31,32);fill-rule:nonzero;"/>
    <path d="M1240.62,562.56l4.273,-0l0.733,21.133l0.574,0l8.576,-21.133l4.4,-0l-0,0.4l-9.629,22.933l-7.843,0l-1.084,-23.333Z" style="fill:rgb(35,31,32);fill-rule:nonzero;"/>
    <path d="M1429.82,574.693c-0,-0.755 0.265,-1.411 0.797,-1.966c0.531,-0.556 1.158,-0.834 1.881,-0.834c0.722,0 1.349,0.278 1.881,0.834c0.531,0.555 0.797,1.211 0.797,1.966c-0,0.756 -0.266,1.411 -0.797,1.967c-0.532,0.555 -1.159,0.833 -1.881,0.833c-0.723,0 -1.35,-0.278 -1.881,-0.833c-0.532,-0.556 -0.797,-1.211 -0.797,-1.967Zm-5.038,-2.6c0.659,-3.289 1.796,-5.7 3.412,-7.233c1.615,-1.533 3.783,-2.3 6.504,-2.3c1.062,-0 2.013,0.189 2.853,0.567c0.84,0.377 1.546,0.894 2.12,1.55c0.574,0.655 1.015,1.427 1.323,2.316c0.308,0.889 0.463,1.845 0.463,2.867c-0,0.778 -0.075,1.522 -0.224,2.233l-1.052,5.2c-0.659,3.289 -1.796,5.7 -3.411,7.234c-1.615,1.533 -3.783,2.3 -6.504,2.3c-1.063,-0 -2.014,-0.189 -2.854,-0.567c-0.839,-0.378 -1.546,-0.895 -2.12,-1.55c-0.574,-0.656 -1.015,-1.428 -1.323,-2.317c-0.308,-0.889 -0.462,-1.844 -0.462,-2.866c-0,-0.778 0.074,-1.523 0.223,-2.234l1.052,-5.2Zm6.122,10.734c1.402,-0 2.502,-0.467 3.299,-1.4c0.797,-0.934 1.345,-2.134 1.642,-3.6l1.244,-6c0.127,-0.6 0.191,-1.167 0.191,-1.7c0,-1.089 -0.266,-1.956 -0.797,-2.6c-0.531,-0.645 -1.339,-0.967 -2.423,-0.967c-1.403,-0 -2.503,0.467 -3.3,1.4c-0.797,0.933 -1.344,2.133 -1.642,3.6l-1.243,6c-0.128,0.6 -0.192,1.167 -0.192,1.7c0,1.089 0.266,1.955 0.798,2.6c0.531,0.644 1.339,0.967 2.423,0.967Z" style="fill:rgb(35,31,32);fill-rule:nonzero;"/>
    <path d="M1460.97,571.36l0,6.667l-5.005,5.2l-2.582,-2.7l3.092,-3.234l2.2,-0.933l-0.223,-0.567l-1.977,0.8l-13.486,0l-0,-3.8l13.486,0l1.977,0.8l0.223,-0.566l-2.2,-0.934l-3.092,-3.233l2.582,-2.7l5.005,5.2Z" style="fill:rgb(35,31,32);fill-rule:nonzero;"/>
    <path d="M1468.49,582.16l3.443,-16.933l-0.574,-0l-3.73,8l-4.209,-0l0,-0.4l4.942,-9.8l8.226,-0l-3.89,19.133l5.516,-0l-0,4.2l-16.037,-0l0,-4.2l6.313,-0Z" style="fill:rgb(35,31,32);fill-rule:nonzero;"/>
    <path d="M927.236,572.793l5.261,0l1.02,-5.066l3.634,-0l-1.02,5.066l4.432,0l-0,3.8l-5.229,0l-1.02,5.067l-3.635,-0l1.021,-5.067l-4.464,0l0,-3.8Zm-2.104,9.967l13.327,-0l-0,3.6l-13.327,-0l-0,-3.6Z" style="fill:rgb(35,31,32);fill-rule:nonzero;"/>
    <path d="M950.446,582.16l3.444,-16.933l-0.574,-0l-3.73,8l-4.209,-0l0,-0.4l4.942,-9.8l8.225,-0l-3.889,19.133l5.515,-0l0,4.2l-16.036,-0l-0,-4.2l6.312,-0Z" style="fill:rgb(35,31,32);fill-rule:nonzero;"/>
    <path d="M1078.94,438.185l10.566,-0l2.05,-9.734l7.3,0l-2.049,9.734l8.901,-0l-0,7.3l-10.502,-0l-2.05,9.734l-7.3,-0l2.049,-9.734l-8.965,-0l0,-7.3Z" style="fill:rgb(35,31,32);fill-rule:nonzero;"/>
    <defs>
        <linearGradient id="_Linear1" x1="0" y1="0" x2="1" y2="0" gradientUnits="userSpaceOnUse" gradientTransform="matrix(97.3245,0,0,97.3245,643.973,433.761)"><stop offset="0" style="stop-color:rgb(230,33,109);stop-opacity:1"/><stop offset="0.24" style="stop-color:rgb(238,62,128);stop-opacity:1"/><stop offset="0.77" style="stop-color:rgb(118,188,194);stop-opacity:1"/><stop offset="1" style="stop-color:rgb(124,192,198);stop-opacity:1"/></linearGradient>
        <linearGradient id="_Linear2" x1="0" y1="0" x2="1" y2="0" gradientUnits="userSpaceOnUse" gradientTransform="matrix(130.398,0,0,130.398,879.445,430.515)"><stop offset="0" style="stop-color:rgb(230,33,109);stop-opacity:1"/><stop offset="0.24" style="stop-color:rgb(238,62,128);stop-opacity:1"/><stop offset="0.77" style="stop-color:rgb(118,188,194);stop-opacity:1"/><stop offset="1" style="stop-color:rgb(124,192,198);stop-opacity:1"/></linearGradient>
        <linearGradient id="_Linear3" x1="0" y1="0" x2="1" y2="0" gradientUnits="userSpaceOnUse" gradientTransform="matrix(130.398,0,0,130.398,879.445,430.515)"><stop offset="0" style="stop-color:rgb(230,33,109);stop-opacity:1"/><stop offset="0.24" style="stop-color:rgb(238,62,128);stop-opacity:1"/><stop offset="0.77" style="stop-color:rgb(118,188,194);stop-opacity:1"/><stop offset="1" style="stop-color:rgb(124,192,198);stop-opacity:1"/></linearGradient>
        <linearGradient id="_Linear4" x1="0" y1="0" x2="1" y2="0" gradientUnits="userSpaceOnUse" gradientTransform="matrix(130.398,0,0,130.398,879.445,430.515)"><stop offset="0" style="stop-color:rgb(230,33,109);stop-opacity:1"/><stop offset="0.24" style="stop-color:rgb(238,62,128);stop-opacity:1"/><stop offset="0.77" style="stop-color:rgb(118,188,194);stop-opacity:1"/><stop offset="1" style="stop-color:rgb(124,192,198);stop-opacity:1"/></linearGradient>
    </defs>
</svg>
