<?xml version="1.0" encoding="UTF-8" standalone="no"?>
<!DOCTYPE svg PUBLIC "-//W3C//DTD SVG 1.1//EN" "http://www.w3.org/Graphics/SVG/1.1/DTD/svg11.dtd">
<svg width="100%" height="100%" viewBox="0 0 1801 1201" version="1.1" xmlns="http://www.w3.org/2000/svg" xmlns:xlink="http://www.w3.org/1999/xlink" xml:space="preserve" xmlns:serif="http://www.serif.com/" style="fill-rule:evenodd;clip-rule:evenodd;stroke-linecap:round;stroke-linejoin:round;stroke-miterlimit:1.5;">
    <rect id="Interface---output" serif:id="Interface - output" x="0.833" y="0.222" width="1800" height="1200" style="fill:none;"/>
    <g id="Base">
        <g id="Faceplate">
            <g>
                <rect id="Outline" x="658.91" y="87.232" width="483.847" height="1025.98" style="fill:none;stroke:rgb(12,12,12);stroke-width:4.17px;"/>
                <g id="Holes">
                    <path d="M734.761,111.105c-0,-7.117 -5.778,-12.894 -12.894,-12.894l-6.15,-0c-7.116,-0 -12.893,5.777 -12.893,12.894l-0,0.161c-0,7.116 5.777,12.894 12.893,12.894l6.15,-0c7.116,-0 12.894,-5.778 12.894,-12.894l-0,-0.161Z" style="fill:rgb(213,213,213);"/>
                    <path d="M734.761,1089.18c-0,-7.117 -5.778,-12.894 -12.894,-12.894l-6.15,-0c-7.116,-0 -12.893,5.777 -12.893,12.894l-0,0.161c-0,7.116 5.777,12.894 12.893,12.894l6.15,-0c7.116,-0 12.894,-5.778 12.894,-12.894l-0,-0.161Z" style="fill:rgb(213,213,213);"/>
                    <path d="M1099.8,111.105c0,-7.117 -5.777,-12.894 -12.893,-12.894l-6.15,-0c-7.116,-0 -12.894,5.777 -12.894,12.894l0,0.161c0,7.116 5.778,12.894 12.894,12.894l6.15,-0c7.116,-0 12.893,-5.778 12.893,-12.894l0,-0.161Z" style="fill:rgb(213,213,213);"/>
                    <path d="M1099.8,1089.18c0,-7.117 -5.777,-12.894 -12.893,-12.894l-6.15,-0c-7.116,-0 -12.894,5.777 -12.894,12.894l0,0.161c0,7.116 5.778,12.894 12.894,12.894l6.15,-0c7.116,-0 12.893,-5.778 12.893,-12.894l0,-0.161Z" style="fill:rgb(213,213,213);"/>
                </g>
            </g>
        </g>
        <g id="labels">
            <path d="M726.464,1044.05c-0.45,0.315 -0.912,0.541 -1.385,0.676c-0.474,0.135 -0.936,0.203 -1.386,0.203c-0.496,-0 -0.969,-0.085 -1.42,-0.254c-0.45,-0.169 -0.845,-0.405 -1.183,-0.71c-0.338,-0.304 -0.603,-0.676 -0.794,-1.115c-0.192,-0.439 -0.287,-0.93 -0.287,-1.47c-0,-0.406 0.045,-0.8 0.135,-1.183l3.684,-15.379l-0.338,-0.237l-4.529,3.11l-2.13,-3.178l4.901,-3.312c0.451,-0.315 0.913,-0.541 1.386,-0.676c0.473,-0.135 0.935,-0.203 1.386,-0.203c0.496,0 0.969,0.085 1.42,0.254c0.45,0.169 0.845,0.405 1.183,0.709c0.338,0.305 0.602,0.676 0.794,1.116c0.191,0.439 0.287,0.929 0.287,1.47c0,0.361 -0.045,0.755 -0.135,1.183l-3.684,15.379l0.338,0.237l4.529,-3.11l2.129,3.177l-4.901,3.313Z" style="fill:rgb(131,133,136);fill-rule:nonzero;"/>
            <path d="M738.632,1051.22l-4.258,0l4.157,-19.502l-0.338,-0.237l-1.555,1.149l-2.197,-3.042l1.825,-1.352c0.474,-0.338 0.964,-0.591 1.471,-0.76c0.507,-0.169 0.997,-0.254 1.47,-0.254c0.901,0 1.69,0.26 2.366,0.778c0.676,0.518 1.093,1.228 1.251,2.129l0.608,0c1.104,-1.938 2.907,-2.907 5.408,-2.907c0.766,0 1.499,0.147 2.197,0.44c0.699,0.293 1.313,0.721 1.842,1.284c0.53,0.564 0.947,1.256 1.251,2.079c0.304,0.822 0.456,1.763 0.456,2.822c0,1.33 -0.163,2.659 -0.49,3.989c-0.327,1.329 -0.839,2.518 -1.538,3.566c-0.698,1.047 -1.594,1.898 -2.687,2.551c-1.093,0.654 -2.405,0.981 -3.938,0.981c-0.721,-0 -1.352,-0.085 -1.893,-0.254c-0.54,-0.169 -1.002,-0.389 -1.385,-0.659c-0.383,-0.27 -0.699,-0.58 -0.947,-0.929c-0.248,-0.35 -0.417,-0.705 -0.507,-1.065l-0.608,-0l-1.961,9.193Zm6.49,-10.342c0.834,-0 1.566,-0.152 2.197,-0.457c0.631,-0.304 1.155,-0.726 1.572,-1.267c0.417,-0.541 0.726,-1.183 0.929,-1.927c0.203,-0.743 0.304,-1.555 0.304,-2.433c0,-0.947 -0.304,-1.769 -0.912,-2.468c-0.609,-0.698 -1.454,-1.048 -2.535,-1.048c-0.766,0 -1.454,0.152 -2.062,0.457c-0.608,0.304 -1.127,0.726 -1.555,1.267c-0.428,0.541 -0.76,1.183 -0.997,1.927c-0.236,0.743 -0.355,1.555 -0.355,2.433c0,1.059 0.304,1.91 0.913,2.552c0.608,0.643 1.442,0.964 2.501,0.964Z" style="fill:rgb(131,133,136);fill-rule:nonzero;"/>
            <path d="M700.895,910.13l-0.338,-0.203l-2.671,1.96l-2.264,-3.042l2.704,-2.028c0.518,-0.383 1.065,-0.67 1.639,-0.861c0.575,-0.192 1.121,-0.288 1.639,-0.288c0.902,0 1.69,0.248 2.366,0.744c0.676,0.496 1.082,1.194 1.217,2.095l0.609,0c0.45,-0.946 1.081,-1.656 1.892,-2.129c0.812,-0.473 1.724,-0.71 2.738,-0.71c1.285,0 2.327,0.4 3.127,1.2c0.8,0.8 1.2,1.91 1.2,3.329c-0,0.293 -0.017,0.581 -0.051,0.862c-0.034,0.282 -0.096,0.626 -0.186,1.031l-0.169,0.744l-4.529,0.338l0.101,-0.473c0.068,-0.338 0.102,-0.643 0.102,-0.913c-0,-0.653 -0.181,-1.172 -0.541,-1.555c-0.361,-0.383 -0.901,-0.574 -1.623,-0.574c-0.901,-0 -1.616,0.304 -2.146,0.912c-0.529,0.609 -0.918,1.476 -1.166,2.603l-1.217,5.678l4.056,0l0,4.056l-11.559,0l-0,-4.056l3.244,0l1.826,-8.72Z" style="fill:rgb(131,133,136);fill-rule:nonzero;"/>
            <path d="M721.141,915.91c-0.045,0.18 -0.068,0.371 -0.068,0.574c0,0.811 0.31,1.487 0.93,2.028c0.619,0.541 1.436,0.811 2.45,0.811c1.059,0 1.904,-0.191 2.535,-0.574c0.631,-0.383 1.116,-0.834 1.454,-1.352l3.38,2.129c-0.271,0.451 -0.626,0.902 -1.065,1.352c-0.439,0.451 -0.98,0.862 -1.622,1.234c-0.643,0.372 -1.397,0.676 -2.265,0.913c-0.868,0.236 -1.876,0.354 -3.025,0.354c-1.037,0 -1.989,-0.163 -2.856,-0.49c-0.868,-0.326 -1.611,-0.777 -2.231,-1.352c-0.62,-0.574 -1.104,-1.262 -1.453,-2.061c-0.35,-0.8 -0.524,-1.685 -0.524,-2.654c-0,-1.532 0.231,-2.974 0.693,-4.326c0.462,-1.352 1.132,-2.535 2.011,-3.549c0.878,-1.014 1.96,-1.814 3.245,-2.4c1.284,-0.586 2.76,-0.879 4.427,-0.879c1.172,0 2.192,0.186 3.059,0.558c0.868,0.372 1.583,0.867 2.147,1.487c0.563,0.62 0.985,1.324 1.267,2.113c0.282,0.788 0.423,1.6 0.423,2.433c-0,0.271 -0.017,0.547 -0.051,0.828c-0.034,0.282 -0.096,0.648 -0.186,1.099l-0.372,1.724l-12.303,-0Zm5.34,-6.389c-1.059,0 -1.977,0.265 -2.754,0.795c-0.778,0.529 -1.358,1.177 -1.741,1.943l7.909,0c0,-0.856 -0.265,-1.526 -0.794,-2.011c-0.53,-0.484 -1.403,-0.727 -2.62,-0.727Z" style="fill:rgb(131,133,136);fill-rule:nonzero;"/>
            <path d="M747.133,909.521c-0.248,0 -0.501,0.029 -0.76,0.085c-0.259,0.056 -0.502,0.141 -0.727,0.253c-0.225,0.113 -0.411,0.265 -0.558,0.457c-0.146,0.191 -0.219,0.422 -0.219,0.693c-0,0.473 0.27,0.822 0.811,1.047c0.541,0.226 1.464,0.417 2.771,0.575c1.465,0.18 2.648,0.625 3.549,1.335c0.902,0.71 1.352,1.73 1.352,3.059c0,1.983 -0.693,3.538 -2.078,4.664c-1.386,1.127 -3.307,1.69 -5.763,1.69c-1.24,0 -2.304,-0.18 -3.194,-0.54c-0.89,-0.361 -1.623,-0.812 -2.197,-1.352c-0.575,-0.541 -1.009,-1.138 -1.302,-1.792c-0.293,-0.653 -0.45,-1.273 -0.473,-1.859l4.191,-1.014c0.068,0.744 0.383,1.38 0.947,1.91c0.563,0.529 1.419,0.794 2.569,0.794c0.788,0 1.475,-0.124 2.061,-0.372c0.586,-0.247 0.879,-0.687 0.879,-1.318c0,-0.473 -0.225,-0.85 -0.676,-1.132c-0.451,-0.282 -1.284,-0.479 -2.501,-0.592c-1.622,-0.135 -2.912,-0.597 -3.87,-1.385c-0.958,-0.789 -1.437,-1.837 -1.437,-3.144c0,-0.946 0.198,-1.791 0.592,-2.535c0.394,-0.743 0.918,-1.363 1.572,-1.859c0.653,-0.496 1.414,-0.873 2.281,-1.132c0.868,-0.259 1.775,-0.389 2.721,-0.389c1.172,0 2.152,0.158 2.941,0.473c0.788,0.316 1.43,0.71 1.926,1.183c0.496,0.474 0.862,0.986 1.099,1.538c0.236,0.552 0.388,1.065 0.456,1.538l-4.124,1.082c-0.09,-0.609 -0.371,-1.087 -0.845,-1.437c-0.473,-0.349 -1.138,-0.524 -1.994,-0.524Z" style="fill:rgb(131,133,136);fill-rule:nonzero;"/>
            <path d="M775.796,912.428c-0,1.578 -0.226,3.037 -0.676,4.377c-0.451,1.341 -1.116,2.496 -1.995,3.465c-0.878,0.969 -1.977,1.729 -3.295,2.281c-1.318,0.552 -2.845,0.828 -4.58,0.828c-0.991,0 -1.921,-0.146 -2.789,-0.439c-0.867,-0.293 -1.628,-0.727 -2.281,-1.301c-0.653,-0.575 -1.172,-1.279 -1.555,-2.113c-0.383,-0.833 -0.574,-1.78 -0.574,-2.839c-0,-1.735 0.27,-3.284 0.811,-4.647c0.541,-1.364 1.279,-2.519 2.214,-3.465c0.935,-0.946 2.039,-1.667 3.312,-2.163c1.273,-0.496 2.642,-0.744 4.107,-0.744c1.059,0 2.039,0.164 2.94,0.49c0.902,0.327 1.674,0.783 2.316,1.369c0.642,0.586 1.143,1.296 1.504,2.13c0.36,0.833 0.541,1.757 0.541,2.771Zm-9.904,6.963c0.811,-0.022 1.561,-0.203 2.248,-0.541c0.687,-0.338 1.273,-0.783 1.758,-1.335c0.484,-0.552 0.861,-1.2 1.132,-1.943c0.27,-0.744 0.405,-1.533 0.405,-2.366c0,-1.172 -0.315,-2.057 -0.946,-2.654c-0.631,-0.597 -1.476,-0.895 -2.535,-0.895c-0.811,-0 -1.555,0.174 -2.231,0.524c-0.676,0.349 -1.262,0.811 -1.757,1.385c-0.496,0.575 -0.879,1.234 -1.15,1.978c-0.27,0.743 -0.405,1.521 -0.405,2.332c-0,1.149 0.315,2.022 0.946,2.619c0.631,0.597 1.476,0.896 2.535,0.896Z" style="fill:rgb(131,133,136);fill-rule:nonzero;"/>
            <path d="M815.346,909.529c-0.248,-0 -0.501,0.028 -0.76,0.084c-0.259,0.056 -0.502,0.141 -0.727,0.254c-0.225,0.112 -0.411,0.264 -0.558,0.456c-0.146,0.191 -0.219,0.422 -0.219,0.693c-0,0.473 0.27,0.822 0.811,1.048c0.541,0.225 1.464,0.417 2.771,0.574c1.465,0.181 2.648,0.626 3.549,1.335c0.902,0.71 1.352,1.73 1.352,3.059c0,1.983 -0.692,3.538 -2.078,4.665c-1.386,1.126 -3.307,1.69 -5.763,1.69c-1.24,-0 -2.304,-0.181 -3.194,-0.541c-0.89,-0.361 -1.623,-0.811 -2.197,-1.352c-0.575,-0.541 -1.009,-1.138 -1.302,-1.792c-0.293,-0.653 -0.45,-1.273 -0.473,-1.859l4.191,-1.014c0.068,0.744 0.383,1.381 0.947,1.91c0.563,0.53 1.419,0.794 2.569,0.794c0.788,0 1.476,-0.123 2.061,-0.371c0.586,-0.248 0.879,-0.688 0.879,-1.319c0,-0.473 -0.225,-0.85 -0.676,-1.132c-0.45,-0.281 -1.284,-0.479 -2.501,-0.591c-1.622,-0.136 -2.912,-0.597 -3.87,-1.386c-0.958,-0.789 -1.437,-1.837 -1.437,-3.144c0,-0.946 0.198,-1.791 0.592,-2.535c0.394,-0.743 0.918,-1.363 1.572,-1.859c0.653,-0.495 1.414,-0.873 2.281,-1.132c0.868,-0.259 1.775,-0.389 2.721,-0.389c1.172,0 2.152,0.158 2.941,0.474c0.788,0.315 1.43,0.709 1.926,1.183c0.496,0.473 0.862,0.985 1.099,1.538c0.236,0.552 0.388,1.064 0.456,1.537l-4.124,1.082c-0.09,-0.608 -0.371,-1.087 -0.845,-1.436c-0.473,-0.35 -1.138,-0.524 -1.994,-0.524Z" style="fill:rgb(131,133,136);fill-rule:nonzero;"/>
            <path d="M841.338,918.891l0.338,0.237l1.623,-1.149l2.129,3.177l-1.994,1.352c-0.879,0.586 -1.803,0.879 -2.772,0.879c-0.856,-0 -1.622,-0.237 -2.298,-0.71c-0.676,-0.473 -1.104,-1.138 -1.284,-1.994l-0.609,-0c-0.203,0.383 -0.439,0.738 -0.71,1.064c-0.27,0.327 -0.602,0.609 -0.997,0.845c-0.394,0.237 -0.856,0.429 -1.385,0.575c-0.53,0.146 -1.155,0.22 -1.876,0.22c-0.879,-0 -1.69,-0.175 -2.434,-0.524c-0.744,-0.349 -1.391,-0.834 -1.943,-1.454c-0.553,-0.619 -0.986,-1.346 -1.302,-2.18c-0.315,-0.833 -0.473,-1.746 -0.473,-2.738c0,-1.509 0.203,-2.918 0.608,-4.225c0.406,-1.306 0.992,-2.45 1.758,-3.43c0.766,-0.98 1.707,-1.752 2.822,-2.316c1.116,-0.563 2.372,-0.845 3.769,-0.845c1.239,0 2.22,0.248 2.941,0.744c0.721,0.496 1.205,1.149 1.453,1.96l0.608,0l0.474,-2.23l4.258,-0l-2.704,12.742Zm-8.179,0.44c0.811,-0 1.532,-0.164 2.163,-0.49c0.631,-0.327 1.155,-0.761 1.572,-1.302c0.417,-0.541 0.738,-1.177 0.963,-1.909c0.225,-0.733 0.338,-1.505 0.338,-2.316c0,-1.059 -0.304,-1.921 -0.913,-2.585c-0.608,-0.665 -1.419,-0.998 -2.433,-0.998c-0.811,0 -1.532,0.164 -2.163,0.491c-0.631,0.326 -1.161,0.76 -1.589,1.301c-0.428,0.541 -0.755,1.177 -0.98,1.91c-0.226,0.732 -0.338,1.504 -0.338,2.315c-0,0.946 0.276,1.78 0.828,2.501c0.552,0.721 1.403,1.082 2.552,1.082Z" style="fill:rgb(131,133,136);fill-rule:nonzero;"/>
            <path d="M858.441,922.508c-0.45,0.315 -0.912,0.541 -1.386,0.676c-0.473,0.135 -0.935,0.203 -1.385,0.203c-0.496,-0 -0.969,-0.085 -1.42,-0.254c-0.451,-0.169 -0.845,-0.405 -1.183,-0.71c-0.338,-0.304 -0.603,-0.676 -0.794,-1.115c-0.192,-0.439 -0.288,-0.93 -0.288,-1.47c0,-0.406 0.046,-0.8 0.136,-1.183l3.684,-15.379l-0.338,-0.237l-4.529,3.11l-2.13,-3.178l4.901,-3.312c0.451,-0.315 0.913,-0.541 1.386,-0.676c0.473,-0.135 0.935,-0.203 1.386,-0.203c0.496,0 0.969,0.085 1.419,0.254c0.451,0.169 0.845,0.405 1.183,0.71c0.338,0.304 0.603,0.676 0.795,1.115c0.191,0.439 0.287,0.929 0.287,1.47c0,0.361 -0.045,0.755 -0.135,1.183l-3.684,15.379l0.338,0.237l4.529,-3.11l2.129,3.177l-4.901,3.313Z" style="fill:rgb(131,133,136);fill-rule:nonzero;"/>
            <path d="M873.888,910.205l-4.732,-0l-0,-4.056l5.611,-0l1.555,-7.369l4.258,0l-1.554,7.369l5.813,-0l0,4.056l-6.692,-0l-1.893,8.686l0.338,0.237l4.529,-3.11l2.13,3.177l-4.901,3.313c-0.857,0.586 -1.769,0.879 -2.738,0.879c-0.496,-0 -0.969,-0.085 -1.42,-0.254c-0.451,-0.169 -0.845,-0.411 -1.183,-0.727c-0.338,-0.315 -0.608,-0.698 -0.811,-1.149c-0.203,-0.45 -0.304,-0.957 -0.304,-1.521c-0,-0.18 0.011,-0.343 0.034,-0.49c0.022,-0.146 0.056,-0.343 0.101,-0.591l1.859,-8.45Z" style="fill:rgb(131,133,136);fill-rule:nonzero;"/>
            <path d="M821.559,604.129c-0.248,0 -0.501,0.028 -0.76,0.085c-0.259,0.056 -0.502,0.14 -0.727,0.253c-0.225,0.113 -0.411,0.265 -0.558,0.456c-0.146,0.192 -0.219,0.423 -0.219,0.693c-0,0.474 0.27,0.823 0.811,1.048c0.541,0.225 1.465,0.417 2.771,0.575c1.465,0.18 2.648,0.625 3.549,1.335c0.902,0.71 1.352,1.729 1.352,3.059c0,1.983 -0.692,3.538 -2.078,4.664c-1.386,1.127 -3.307,1.69 -5.763,1.69c-1.239,0 -2.304,-0.18 -3.194,-0.541c-0.89,-0.36 -1.623,-0.811 -2.197,-1.352c-0.575,-0.54 -1.009,-1.138 -1.302,-1.791c-0.293,-0.653 -0.45,-1.273 -0.473,-1.859l4.191,-1.014c0.068,0.744 0.384,1.38 0.947,1.91c0.563,0.529 1.419,0.794 2.569,0.794c0.788,-0 1.476,-0.124 2.061,-0.372c0.586,-0.248 0.879,-0.687 0.879,-1.318c0,-0.473 -0.225,-0.851 -0.676,-1.132c-0.45,-0.282 -1.284,-0.479 -2.501,-0.592c-1.622,-0.135 -2.912,-0.597 -3.87,-1.386c-0.958,-0.788 -1.437,-1.836 -1.437,-3.143c0,-0.946 0.198,-1.791 0.592,-2.535c0.394,-0.744 0.918,-1.363 1.572,-1.859c0.653,-0.496 1.414,-0.873 2.281,-1.132c0.868,-0.259 1.775,-0.389 2.721,-0.389c1.172,-0 2.152,0.158 2.941,0.473c0.788,0.316 1.431,0.71 1.926,1.183c0.496,0.473 0.862,0.986 1.099,1.538c0.236,0.552 0.388,1.065 0.456,1.538l-4.124,1.082c-0.09,-0.609 -0.371,-1.088 -0.845,-1.437c-0.473,-0.349 -1.137,-0.524 -1.994,-0.524Z" style="fill:rgb(131,133,136);fill-rule:nonzero;"/>
            <path d="M847.552,613.492l0.338,0.236l1.622,-1.149l2.129,3.177l-1.994,1.352c-0.879,0.586 -1.803,0.879 -2.771,0.879c-0.857,0 -1.623,-0.236 -2.299,-0.71c-0.676,-0.473 -1.104,-1.138 -1.284,-1.994l-0.609,0c-0.203,0.383 -0.439,0.738 -0.71,1.065c-0.27,0.327 -0.602,0.608 -0.997,0.845c-0.394,0.236 -0.856,0.428 -1.385,0.574c-0.53,0.147 -1.155,0.22 -1.876,0.22c-0.879,0 -1.69,-0.174 -2.434,-0.524c-0.744,-0.349 -1.391,-0.833 -1.943,-1.453c-0.552,-0.62 -0.986,-1.346 -1.302,-2.18c-0.315,-0.834 -0.473,-1.747 -0.473,-2.738c0,-1.51 0.203,-2.918 0.608,-4.225c0.406,-1.307 0.992,-2.451 1.758,-3.431c0.766,-0.98 1.707,-1.752 2.822,-2.315c1.116,-0.563 2.372,-0.845 3.769,-0.845c1.239,-0 2.22,0.248 2.941,0.744c0.721,0.495 1.205,1.149 1.453,1.96l0.609,-0l0.473,-2.231l4.259,0l-2.704,12.743Zm-8.18,0.439c0.811,0 1.532,-0.163 2.163,-0.49c0.631,-0.327 1.155,-0.76 1.572,-1.301c0.417,-0.541 0.738,-1.178 0.963,-1.91c0.225,-0.732 0.338,-1.504 0.338,-2.315c0,-1.059 -0.304,-1.921 -0.913,-2.586c-0.608,-0.665 -1.419,-0.997 -2.433,-0.997c-0.811,-0 -1.532,0.163 -2.163,0.49c-0.631,0.327 -1.161,0.761 -1.589,1.301c-0.428,0.541 -0.755,1.178 -0.98,1.91c-0.225,0.732 -0.338,1.504 -0.338,2.315c-0,0.947 0.276,1.781 0.828,2.502c0.552,0.721 1.403,1.081 2.552,1.081Z" style="fill:rgb(131,133,136);fill-rule:nonzero;"/>
            <path d="M864.654,617.108c-0.45,0.316 -0.912,0.541 -1.385,0.676c-0.474,0.136 -0.936,0.203 -1.386,0.203c-0.496,0 -0.969,-0.084 -1.42,-0.253c-0.451,-0.169 -0.845,-0.406 -1.183,-0.71c-0.338,-0.304 -0.603,-0.676 -0.794,-1.116c-0.192,-0.439 -0.287,-0.929 -0.287,-1.47c-0,-0.405 0.045,-0.8 0.135,-1.183l3.684,-15.379l-0.338,-0.236l-4.529,3.109l-2.13,-3.177l4.901,-3.312c0.451,-0.316 0.913,-0.541 1.386,-0.676c0.473,-0.136 0.935,-0.203 1.386,-0.203c0.496,-0 0.969,0.084 1.42,0.253c0.45,0.169 0.845,0.406 1.183,0.71c0.338,0.304 0.602,0.676 0.794,1.115c0.191,0.44 0.287,0.93 0.287,1.471c0,0.36 -0.045,0.755 -0.135,1.183l-3.684,15.379l0.338,0.236l4.529,-3.109l2.129,3.177l-4.901,3.312Z" style="fill:rgb(131,133,136);fill-rule:nonzero;"/>
            <path d="M880.101,604.805l-4.732,0l-0,-4.056l5.611,0l1.555,-7.368l4.258,-0l-1.554,7.368l5.813,0l0,4.056l-6.692,0l-1.893,8.687l0.338,0.236l4.529,-3.109l2.13,3.177l-4.901,3.312c-0.857,0.586 -1.769,0.879 -2.738,0.879c-0.496,0 -0.969,-0.084 -1.42,-0.253c-0.45,-0.169 -0.845,-0.412 -1.183,-0.727c-0.338,-0.315 -0.608,-0.699 -0.811,-1.149c-0.203,-0.451 -0.304,-0.958 -0.304,-1.521c-0,-0.18 0.011,-0.344 0.034,-0.49c0.022,-0.147 0.056,-0.344 0.101,-0.592l1.859,-8.45Z" style="fill:rgb(131,133,136);fill-rule:nonzero;"/>
            <path d="M935.931,910.205l-4.766,-0l-0,-4.056l5.645,-0l0.743,-3.448c0.09,-0.473 0.271,-0.924 0.541,-1.352c0.27,-0.428 0.591,-0.794 0.963,-1.098c0.372,-0.305 0.789,-0.547 1.251,-0.727c0.462,-0.18 0.929,-0.271 1.403,-0.271l5.948,0l0,4.056l-5.07,0c-0.608,0 -0.98,0.338 -1.115,1.014l-0.406,1.826l5.713,-0l-0,4.056l-6.591,-0l-3.752,16.764c-0.248,1.105 -0.71,1.899 -1.386,2.383c-0.676,0.485 -1.408,0.727 -2.197,0.727c-0.653,0 -1.29,-0.152 -1.91,-0.456c-0.619,-0.304 -1.098,-0.738 -1.436,-1.302l-2.13,-3.413l3.279,-1.995l1.487,2.569l0.406,-0.067l3.38,-15.21Z" style="fill:rgb(131,133,136);fill-rule:nonzero;"/>
            <path d="M963.106,911.151c0.045,-0.18 0.068,-0.338 0.068,-0.473c-0,-0.631 -0.305,-0.947 -0.913,-0.947c-0.36,0 -0.631,0.119 -0.811,0.355c-0.18,0.237 -0.304,0.524 -0.372,0.862l-2.569,11.965l-4.259,0l2.502,-11.762c0.045,-0.225 0.067,-0.383 0.067,-0.473c0,-0.631 -0.293,-0.947 -0.879,-0.947c-0.653,0 -1.059,0.406 -1.216,1.217l-2.569,11.965l-4.225,0l3.549,-16.764l4.259,-0l-0.338,1.622l0.608,0c0.18,-0.698 0.518,-1.222 1.014,-1.572c0.496,-0.349 1.059,-0.524 1.69,-0.524c0.744,0 1.307,0.203 1.69,0.609c0.383,0.405 0.631,0.901 0.744,1.487l0.608,0c0.248,-0.608 0.625,-1.11 1.132,-1.504c0.507,-0.394 1.166,-0.592 1.978,-0.592c0.946,0 1.673,0.305 2.18,0.913c0.507,0.608 0.76,1.341 0.76,2.197c0,0.158 -0.005,0.299 -0.017,0.423c-0.011,0.123 -0.039,0.276 -0.084,0.456l-1.994,9.227l0.338,0.237l1.149,-0.811l2.129,3.177l-1.521,1.014c-0.45,0.315 -0.907,0.541 -1.369,0.676c-0.462,0.135 -0.918,0.203 -1.369,0.203c-0.495,-0 -0.963,-0.085 -1.402,-0.254c-0.44,-0.169 -0.828,-0.411 -1.166,-0.727c-0.338,-0.315 -0.603,-0.704 -0.795,-1.166c-0.191,-0.462 -0.287,-0.985 -0.287,-1.571c0,-0.316 0.045,-0.699 0.135,-1.15l1.555,-7.368Z" style="fill:rgb(131,133,136);fill-rule:nonzero;"/>
            <path d="M976.389,918.655l3.651,-17.171l-0.609,0l-3.954,8.112l-4.462,0l0,-0.405l5.239,-9.938l8.721,0l-4.124,19.402l5.847,-0l0,4.258l-17.001,0l0,-4.258l6.692,-0Z" style="fill:rgb(131,133,136);fill-rule:nonzero;"/>
            <path d="M1029.25,595.76l-4.766,0l0,-4.056l5.645,-0l0.743,-3.448c0.09,-0.473 0.271,-0.923 0.541,-1.352c0.271,-0.428 0.592,-0.794 0.963,-1.098c0.372,-0.304 0.789,-0.547 1.251,-0.727c0.462,-0.18 0.93,-0.27 1.403,-0.27l5.949,-0l-0,4.056l-5.07,-0c-0.609,-0 -0.981,0.338 -1.116,1.014l-0.405,1.825l5.712,-0l-0,4.056l-6.591,0l-3.752,16.765c-0.248,1.104 -0.71,1.898 -1.386,2.383c-0.676,0.484 -1.408,0.726 -2.197,0.726c-0.653,0 -1.29,-0.152 -1.91,-0.456c-0.619,-0.304 -1.098,-0.738 -1.436,-1.301l-2.129,-3.414l3.278,-1.994l1.487,2.569l0.406,-0.068l3.38,-15.21Z" style="fill:rgb(131,133,136);fill-rule:nonzero;"/>
            <path d="M1056.43,596.706c0.045,-0.18 0.068,-0.338 0.068,-0.473c-0,-0.631 -0.304,-0.946 -0.913,-0.946c-0.36,-0 -0.631,0.118 -0.811,0.355c-0.18,0.236 -0.304,0.524 -0.372,0.862l-2.569,11.965l-4.258,-0l2.501,-11.763c0.045,-0.225 0.067,-0.383 0.067,-0.473c0,-0.631 -0.293,-0.946 -0.878,-0.946c-0.654,-0 -1.059,0.405 -1.217,1.217l-2.569,11.965l-4.225,-0l3.549,-16.765l4.259,-0l-0.338,1.622l0.608,0c0.18,-0.698 0.518,-1.222 1.014,-1.571c0.496,-0.35 1.059,-0.524 1.69,-0.524c0.744,-0 1.307,0.203 1.69,0.608c0.383,0.406 0.631,0.902 0.744,1.487l0.608,0c0.248,-0.608 0.626,-1.109 1.133,-1.504c0.507,-0.394 1.166,-0.591 1.977,-0.591c0.946,-0 1.673,0.304 2.18,0.912c0.507,0.609 0.76,1.341 0.76,2.197c0,0.158 -0.005,0.299 -0.016,0.423c-0.012,0.124 -0.04,0.276 -0.085,0.456l-1.994,9.228l0.338,0.236l1.149,-0.811l2.129,3.177l-1.521,1.014c-0.45,0.316 -0.907,0.541 -1.368,0.676c-0.462,0.135 -0.919,0.203 -1.369,0.203c-0.496,0 -0.964,-0.084 -1.403,-0.253c-0.439,-0.169 -0.828,-0.412 -1.166,-0.727c-0.338,-0.316 -0.603,-0.704 -0.794,-1.166c-0.192,-0.462 -0.288,-0.986 -0.288,-1.572c0,-0.315 0.045,-0.699 0.135,-1.149l1.555,-7.369Z" style="fill:rgb(131,133,136);fill-rule:nonzero;"/>
            <path d="M1069.71,604.21l3.65,-17.17l-0.608,-0l-3.955,8.112l-4.462,-0l0,-0.406l5.239,-9.937l8.721,-0l-4.124,19.401l5.848,0l-0,4.259l-17.002,-0l0,-4.259l6.693,0Z" style="fill:rgb(131,133,136);fill-rule:nonzero;"/>
            <path d="M1043.84,910.197l-4.766,0l-0,-4.056l5.644,0l0.744,-3.447c0.09,-0.473 0.27,-0.924 0.541,-1.352c0.27,-0.428 0.591,-0.794 0.963,-1.099c0.372,-0.304 0.789,-0.546 1.251,-0.726c0.462,-0.181 0.929,-0.271 1.403,-0.271l5.948,0l0,4.056l-5.07,0c-0.608,0 -0.98,0.338 -1.115,1.014l-0.406,1.825l5.713,0l-0,4.056l-6.592,0l-3.751,16.765c-0.248,1.104 -0.71,1.899 -1.386,2.383c-0.676,0.485 -1.408,0.727 -2.197,0.727c-0.654,-0 -1.29,-0.152 -1.91,-0.456c-0.619,-0.305 -1.098,-0.738 -1.436,-1.302l-2.13,-3.414l3.279,-1.994l1.487,2.569l0.406,-0.068l3.38,-15.21Z" style="fill:rgb(131,133,136);fill-rule:nonzero;"/>
            <path d="M1071.01,911.144c0.045,-0.18 0.068,-0.338 0.068,-0.473c-0,-0.631 -0.305,-0.947 -0.913,-0.947c-0.361,0 -0.631,0.119 -0.811,0.355c-0.181,0.237 -0.304,0.524 -0.372,0.862l-2.569,11.965l-4.259,0l2.502,-11.762c0.045,-0.225 0.067,-0.383 0.067,-0.473c0,-0.631 -0.293,-0.947 -0.879,-0.947c-0.653,0 -1.059,0.406 -1.216,1.217l-2.569,11.965l-4.225,0l3.549,-16.765l4.259,0l-0.338,1.623l0.608,-0c0.18,-0.699 0.518,-1.223 1.014,-1.572c0.496,-0.349 1.059,-0.524 1.69,-0.524c0.744,0 1.307,0.203 1.69,0.609c0.383,0.405 0.631,0.901 0.744,1.487l0.608,-0c0.248,-0.609 0.625,-1.11 1.132,-1.504c0.507,-0.395 1.166,-0.592 1.978,-0.592c0.946,0 1.673,0.304 2.18,0.913c0.507,0.608 0.76,1.341 0.76,2.197c0,0.158 -0.005,0.298 -0.017,0.422c-0.011,0.124 -0.039,0.276 -0.084,0.457l-1.994,9.227l0.338,0.237l1.149,-0.812l2.129,3.178l-1.521,1.014c-0.451,0.315 -0.907,0.54 -1.369,0.676c-0.462,0.135 -0.918,0.202 -1.369,0.202c-0.495,0 -0.963,-0.084 -1.402,-0.253c-0.44,-0.169 -0.828,-0.411 -1.166,-0.727c-0.338,-0.315 -0.603,-0.704 -0.795,-1.166c-0.191,-0.462 -0.287,-0.986 -0.287,-1.572c-0,-0.315 0.045,-0.698 0.135,-1.149l1.555,-7.368Z" style="fill:rgb(131,133,136);fill-rule:nonzero;"/>
            <path d="M1093.96,918.647l0,4.259l-17.103,0l0.981,-4.664c0.27,-1.33 0.681,-2.451 1.233,-3.363c0.552,-0.913 1.228,-1.668 2.028,-2.265c0.8,-0.597 1.73,-1.07 2.789,-1.419c1.059,-0.35 2.242,-0.637 3.549,-0.862c0.676,-0.113 1.335,-0.276 1.977,-0.49c0.642,-0.215 1.217,-0.491 1.724,-0.829c0.507,-0.338 0.912,-0.766 1.217,-1.284c0.304,-0.518 0.456,-1.138 0.456,-1.859c-0,-0.856 -0.282,-1.544 -0.845,-2.062c-0.563,-0.518 -1.386,-0.777 -2.467,-0.777c-1.33,-0 -2.44,0.389 -3.33,1.166c-0.89,0.777 -1.481,1.853 -1.774,3.228l-0.304,1.487l-4.462,0l0.406,-1.893c0.563,-2.614 1.695,-4.642 3.396,-6.084c1.702,-1.442 3.927,-2.163 6.676,-2.163c1.127,0 2.141,0.175 3.042,0.524c0.901,0.349 1.662,0.822 2.282,1.42c0.619,0.597 1.098,1.29 1.436,2.078c0.338,0.789 0.507,1.611 0.507,2.468c0,2.456 -0.76,4.411 -2.281,5.864c-1.522,1.453 -3.657,2.473 -6.406,3.059c-1.216,0.248 -2.208,0.507 -2.974,0.777c-0.766,0.271 -1.375,0.564 -1.825,0.879c-0.451,0.316 -0.783,0.67 -0.997,1.065c-0.214,0.394 -0.389,0.839 -0.524,1.335l-0.102,0.405l11.695,0Z" style="fill:rgb(131,133,136);fill-rule:nonzero;"/>
            <path d="M838.939,1034.72c0.045,-0.248 0.079,-0.445 0.101,-0.592c0.023,-0.146 0.034,-0.309 0.034,-0.49c-0,-0.811 -0.237,-1.442 -0.71,-1.892c-0.473,-0.451 -1.115,-0.676 -1.927,-0.676c-1.149,-0 -2.09,0.405 -2.822,1.216c-0.732,0.812 -1.245,1.893 -1.538,3.245l-1.893,8.923l-4.258,0l5.137,-24.133l4.259,0l-2.062,9.667l0.609,-0c1.149,-1.848 2.794,-2.772 4.934,-2.772c1.398,0 2.541,0.417 3.431,1.251c0.89,0.834 1.335,2.051 1.335,3.65c0,0.316 -0.022,0.637 -0.067,0.964c-0.045,0.326 -0.102,0.67 -0.169,1.031l-1.352,6.32l0.338,0.237l2.163,-1.487l2.129,3.177l-2.535,1.69c-0.856,0.586 -1.769,0.879 -2.738,0.879c-0.495,-0 -0.968,-0.085 -1.419,-0.254c-0.451,-0.169 -0.845,-0.411 -1.183,-0.727c-0.338,-0.315 -0.609,-0.698 -0.811,-1.149c-0.203,-0.45 -0.305,-0.957 -0.305,-1.521c0,-0.293 0.046,-0.653 0.136,-1.081l1.183,-5.476Z" style="fill:rgb(131,133,136);fill-rule:nonzero;"/>
            <path d="M850.701,1051.22l-4.259,0l4.158,-19.502l-0.338,-0.237l-1.555,1.149l-2.197,-3.042l1.825,-1.352c0.473,-0.338 0.963,-0.591 1.47,-0.76c0.507,-0.169 0.997,-0.254 1.471,-0.254c0.901,0 1.69,0.26 2.366,0.778c0.676,0.518 1.093,1.228 1.25,2.129l0.609,0c1.104,-1.938 2.906,-2.907 5.408,-2.907c0.766,0 1.498,0.147 2.197,0.44c0.698,0.293 1.312,0.721 1.842,1.284c0.529,0.564 0.946,1.256 1.25,2.079c0.305,0.822 0.457,1.763 0.457,2.822c-0,1.33 -0.164,2.659 -0.49,3.989c-0.327,1.329 -0.84,2.518 -1.538,3.566c-0.699,1.047 -1.595,1.898 -2.687,2.551c-1.093,0.654 -2.406,0.981 -3.938,0.981c-0.721,-0 -1.352,-0.085 -1.893,-0.254c-0.541,-0.169 -1.003,-0.389 -1.386,-0.659c-0.383,-0.27 -0.698,-0.58 -0.946,-0.929c-0.248,-0.35 -0.417,-0.705 -0.507,-1.065l-0.609,-0l-1.96,9.193Zm6.49,-10.342c0.833,-0 1.566,-0.152 2.197,-0.457c0.631,-0.304 1.155,-0.726 1.571,-1.267c0.417,-0.541 0.727,-1.183 0.93,-1.927c0.203,-0.743 0.304,-1.555 0.304,-2.433c0,-0.947 -0.304,-1.769 -0.913,-2.468c-0.608,-0.698 -1.453,-1.048 -2.535,-1.048c-0.766,0 -1.453,0.152 -2.061,0.457c-0.609,0.304 -1.127,0.726 -1.555,1.267c-0.428,0.541 -0.761,1.183 -0.997,1.927c-0.237,0.743 -0.355,1.555 -0.355,2.433c-0,1.059 0.304,1.91 0.912,2.552c0.609,0.643 1.443,0.964 2.502,0.964Z" style="fill:rgb(131,133,136);fill-rule:nonzero;"/>
            <path d="M932.213,1031.82l-0.406,-0.135l-1.318,1.656l-2.941,-2.4l1.589,-2.028c0.451,-0.563 0.975,-0.985 1.572,-1.267c0.597,-0.282 1.222,-0.423 1.876,-0.423c0.473,0 0.935,0.079 1.385,0.237c0.451,0.158 0.851,0.389 1.2,0.693c0.35,0.304 0.637,0.693 0.862,1.166c0.226,0.473 0.361,1.014 0.406,1.622l0.71,11.492l0.608,0l6.828,-15.007l3.819,1.859l-7.098,15.176l-8.213,0l-0.879,-12.641Z" style="fill:rgb(131,133,136);fill-rule:nonzero;"/>
            <path d="M967.196,1033.98c-0,1.578 -0.225,3.037 -0.676,4.378c-0.451,1.34 -1.116,2.495 -1.994,3.464c-0.879,0.969 -1.978,1.729 -3.296,2.282c-1.318,0.552 -2.845,0.828 -4.58,0.828c-0.991,-0 -1.921,-0.147 -2.788,-0.44c-0.868,-0.293 -1.628,-0.726 -2.282,-1.301c-0.653,-0.575 -1.172,-1.279 -1.555,-2.113c-0.383,-0.833 -0.574,-1.78 -0.574,-2.839c-0,-1.735 0.27,-3.284 0.811,-4.647c0.541,-1.364 1.279,-2.518 2.214,-3.465c0.935,-0.946 2.039,-1.667 3.312,-2.163c1.273,-0.496 2.642,-0.744 4.107,-0.744c1.059,0 2.039,0.164 2.941,0.49c0.901,0.327 1.673,0.784 2.315,1.369c0.642,0.586 1.144,1.296 1.504,2.13c0.361,0.834 0.541,1.757 0.541,2.771Zm-9.904,6.963c0.812,-0.022 1.561,-0.203 2.248,-0.541c0.687,-0.338 1.273,-0.783 1.758,-1.335c0.484,-0.552 0.862,-1.2 1.132,-1.943c0.27,-0.744 0.406,-1.532 0.406,-2.366c-0,-1.172 -0.316,-2.056 -0.947,-2.654c-0.631,-0.597 -1.476,-0.895 -2.535,-0.895c-0.811,-0 -1.555,0.174 -2.231,0.524c-0.676,0.349 -1.261,0.811 -1.757,1.385c-0.496,0.575 -0.879,1.234 -1.149,1.978c-0.271,0.743 -0.406,1.521 -0.406,2.332c0,1.149 0.315,2.022 0.946,2.62c0.631,0.597 1.476,0.895 2.535,0.895Z" style="fill:rgb(131,133,136);fill-rule:nonzero;"/>
            <path d="M981.628,1044.05c-0.45,0.315 -0.912,0.541 -1.385,0.676c-0.474,0.135 -0.935,0.203 -1.386,0.203c-0.496,-0 -0.969,-0.085 -1.42,-0.254c-0.45,-0.169 -0.845,-0.405 -1.183,-0.71c-0.338,-0.304 -0.603,-0.676 -0.794,-1.115c-0.192,-0.439 -0.287,-0.93 -0.287,-1.47c-0,-0.406 0.045,-0.8 0.135,-1.183l3.684,-15.379l-0.338,-0.237l-4.529,3.11l-2.13,-3.178l4.901,-3.312c0.451,-0.315 0.913,-0.541 1.386,-0.676c0.473,-0.135 0.935,-0.203 1.386,-0.203c0.496,0 0.969,0.085 1.42,0.254c0.45,0.169 0.845,0.405 1.183,0.709c0.338,0.305 0.602,0.676 0.794,1.116c0.192,0.439 0.287,0.929 0.287,1.47c0,0.361 -0.045,0.755 -0.135,1.183l-3.684,15.379l0.338,0.237l4.529,-3.11l2.129,3.177l-4.901,3.313Z" style="fill:rgb(131,133,136);fill-rule:nonzero;"/>
            <path d="M1054.79,1033.79c-0,1.577 -0.225,3.037 -0.676,4.377c-0.451,1.341 -1.115,2.496 -1.994,3.465c-0.879,0.969 -1.978,1.729 -3.296,2.281c-1.318,0.552 -2.845,0.828 -4.58,0.828c-0.991,0 -1.921,-0.146 -2.788,-0.439c-0.868,-0.293 -1.628,-0.727 -2.282,-1.301c-0.653,-0.575 -1.171,-1.279 -1.555,-2.113c-0.383,-0.834 -0.574,-1.78 -0.574,-2.839c-0,-1.735 0.27,-3.284 0.811,-4.648c0.541,-1.363 1.279,-2.518 2.214,-3.464c0.935,-0.946 2.039,-1.668 3.312,-2.163c1.274,-0.496 2.642,-0.744 4.107,-0.744c1.059,0 2.039,0.163 2.941,0.49c0.901,0.327 1.673,0.783 2.315,1.369c0.642,0.586 1.144,1.296 1.504,2.13c0.361,0.833 0.541,1.757 0.541,2.771Zm-9.904,6.963c0.812,-0.023 1.561,-0.203 2.248,-0.541c0.687,-0.338 1.273,-0.783 1.758,-1.335c0.484,-0.552 0.862,-1.2 1.132,-1.943c0.271,-0.744 0.406,-1.533 0.406,-2.366c-0,-1.172 -0.316,-2.057 -0.947,-2.654c-0.631,-0.597 -1.476,-0.895 -2.535,-0.895c-0.811,-0 -1.555,0.174 -2.231,0.523c-0.676,0.35 -1.261,0.812 -1.757,1.386c-0.496,0.575 -0.879,1.234 -1.149,1.978c-0.271,0.743 -0.406,1.521 -0.406,2.332c0,1.149 0.316,2.022 0.946,2.619c0.631,0.597 1.476,0.896 2.535,0.896Z" style="fill:rgb(131,133,136);fill-rule:nonzero;"/>
            <path d="M1064.15,1027.5l-2.096,9.735c-0.09,0.383 -0.135,0.755 -0.135,1.115c-0,0.856 0.236,1.493 0.71,1.91c0.473,0.417 1.104,0.625 1.892,0.625c1.195,0 2.113,-0.389 2.755,-1.166c0.642,-0.777 1.121,-1.876 1.437,-3.295l1.892,-8.924l4.259,0l-2.771,12.777l0.371,0.203l1.217,-0.879l2.13,3.109l-1.589,1.15c-0.428,0.315 -0.873,0.54 -1.335,0.676c-0.462,0.135 -0.918,0.202 -1.369,0.202c-0.924,0 -1.735,-0.264 -2.434,-0.794c-0.698,-0.529 -1.093,-1.301 -1.183,-2.315l-0.608,-0c-0.496,1.149 -1.166,1.955 -2.011,2.416c-0.845,0.462 -1.797,0.693 -2.856,0.693c-1.465,0 -2.659,-0.445 -3.583,-1.335c-0.924,-0.89 -1.386,-2.135 -1.386,-3.735c0,-0.563 0.068,-1.171 0.203,-1.825l2.231,-10.343l4.259,0Z" style="fill:rgb(131,133,136);fill-rule:nonzero;"/>
            <path d="M1084.66,1031.56l-4.732,0l0,-4.056l5.611,0l1.555,-7.368l4.259,-0l-1.555,7.368l5.813,0l0,4.056l-6.692,0l-1.893,8.687l0.338,0.237l4.529,-3.11l2.13,3.177l-4.901,3.313c-0.856,0.585 -1.769,0.878 -2.738,0.878c-0.496,0 -0.969,-0.084 -1.42,-0.253c-0.45,-0.169 -0.845,-0.411 -1.183,-0.727c-0.338,-0.315 -0.608,-0.698 -0.811,-1.149c-0.203,-0.451 -0.304,-0.958 -0.304,-1.521c-0,-0.18 0.011,-0.344 0.034,-0.49c0.022,-0.147 0.056,-0.344 0.101,-0.592l1.859,-8.45Z" style="fill:rgb(131,133,136);fill-rule:nonzero;"/>
            <g>
                <path d="M979.798,416.66l27.305,0" style="fill:none;stroke:rgb(131,133,136);stroke-width:3.96px;"/>
                <path d="M993.451,389.473l-0,36.092" style="fill:none;stroke:rgb(131,133,136);stroke-width:3.96px;"/>
                <path d="M984.072,397.628l-0,7.1c-0,3.976 2.333,5.64 9.379,5.64c7.045,-0 9.379,-1.664 9.379,-5.64l-0,-7.1" style="fill:none;stroke:rgb(131,133,136);stroke-width:3.96px;"/>
            </g>
            <path d="M716.69,429.954l-0.338,-0.202l-2.67,1.96l-2.265,-3.042l2.704,-2.028c0.518,-0.383 1.065,-0.67 1.64,-0.862c0.574,-0.191 1.121,-0.287 1.639,-0.287c0.901,-0 1.69,0.248 2.366,0.743c0.676,0.496 1.081,1.195 1.217,2.096l0.608,-0c0.451,-0.946 1.082,-1.656 1.893,-2.129c0.811,-0.474 1.724,-0.71 2.738,-0.71c1.284,-0 2.326,0.4 3.126,1.2c0.8,0.8 1.2,1.909 1.2,3.329c0,0.293 -0.017,0.58 -0.051,0.862c-0.033,0.282 -0.095,0.625 -0.186,1.031l-0.169,0.743l-4.529,0.338l0.102,-0.473c0.067,-0.338 0.101,-0.642 0.101,-0.912c0,-0.654 -0.18,-1.172 -0.541,-1.555c-0.36,-0.383 -0.901,-0.575 -1.622,-0.575c-0.902,0 -1.617,0.304 -2.146,0.913c-0.53,0.608 -0.919,1.476 -1.167,2.602l-1.216,5.679l4.056,-0l-0,4.056l-11.56,-0l0,-4.056l3.245,-0l1.825,-8.721Z" style="fill:rgb(131,133,136);fill-rule:nonzero;"/>
            <path d="M736.936,435.734c-0.045,0.18 -0.067,0.372 -0.067,0.575c-0,0.811 0.309,1.487 0.929,2.028c0.62,0.541 1.437,0.811 2.451,0.811c1.059,0 1.904,-0.192 2.535,-0.575c0.631,-0.383 1.115,-0.833 1.453,-1.352l3.38,2.13c-0.27,0.45 -0.625,0.901 -1.065,1.352c-0.439,0.45 -0.98,0.862 -1.622,1.234c-0.642,0.371 -1.397,0.676 -2.265,0.912c-0.867,0.237 -1.876,0.355 -3.025,0.355c-1.036,0 -1.988,-0.163 -2.856,-0.49c-0.867,-0.327 -1.611,-0.777 -2.231,-1.352c-0.619,-0.575 -1.104,-1.262 -1.453,-2.062c-0.349,-0.8 -0.524,-1.684 -0.524,-2.653c0,-1.532 0.231,-2.975 0.693,-4.327c0.462,-1.352 1.132,-2.535 2.011,-3.549c0.879,-1.014 1.96,-1.814 3.245,-2.399c1.284,-0.586 2.76,-0.879 4.428,-0.879c1.171,-0 2.191,0.186 3.059,0.557c0.867,0.372 1.583,0.868 2.146,1.488c0.563,0.619 0.986,1.324 1.267,2.112c0.282,0.789 0.423,1.6 0.423,2.434c-0,0.27 -0.017,0.546 -0.051,0.828c-0.034,0.282 -0.096,0.648 -0.186,1.098l-0.372,1.724l-12.303,0Zm5.341,-6.388c-1.059,-0 -1.978,0.265 -2.755,0.794c-0.777,0.53 -1.358,1.178 -1.741,1.944l7.909,-0c0,-0.856 -0.264,-1.527 -0.794,-2.011c-0.529,-0.485 -1.403,-0.727 -2.619,-0.727Z" style="fill:rgb(131,133,136);fill-rule:nonzero;"/>
            <path d="M762.929,429.346c-0.248,-0 -0.502,0.028 -0.761,0.084c-0.259,0.057 -0.501,0.141 -0.727,0.254c-0.225,0.113 -0.411,0.265 -0.557,0.456c-0.147,0.192 -0.22,0.423 -0.22,0.693c-0,0.473 0.27,0.823 0.811,1.048c0.541,0.225 1.465,0.417 2.772,0.575c1.464,0.18 2.647,0.625 3.549,1.335c0.901,0.709 1.352,1.729 1.352,3.059c-0,1.983 -0.693,3.537 -2.079,4.664c-1.386,1.127 -3.307,1.69 -5.763,1.69c-1.239,0 -2.304,-0.18 -3.194,-0.541c-0.89,-0.36 -1.622,-0.811 -2.197,-1.352c-0.575,-0.541 -1.008,-1.138 -1.301,-1.791c-0.293,-0.654 -0.451,-1.273 -0.473,-1.859l4.191,-1.014c0.067,0.743 0.383,1.38 0.946,1.91c0.563,0.529 1.42,0.794 2.569,0.794c0.789,-0 1.476,-0.124 2.062,-0.372c0.586,-0.248 0.879,-0.687 0.879,-1.318c-0,-0.473 -0.226,-0.851 -0.676,-1.132c-0.451,-0.282 -1.285,-0.479 -2.502,-0.592c-1.622,-0.135 -2.912,-0.597 -3.87,-1.386c-0.957,-0.788 -1.436,-1.836 -1.436,-3.143c-0,-0.947 0.197,-1.792 0.591,-2.535c0.395,-0.744 0.918,-1.363 1.572,-1.859c0.653,-0.496 1.414,-0.873 2.281,-1.133c0.868,-0.259 1.775,-0.388 2.721,-0.388c1.172,-0 2.152,0.158 2.941,0.473c0.789,0.315 1.431,0.71 1.927,1.183c0.495,0.473 0.861,0.986 1.098,1.538c0.237,0.552 0.389,1.065 0.456,1.538l-4.123,1.081c-0.09,-0.608 -0.372,-1.087 -0.845,-1.436c-0.473,-0.349 -1.138,-0.524 -1.994,-0.524Z" style="fill:rgb(131,133,136);fill-rule:nonzero;"/>
            <path d="M791.591,432.253c-0,1.577 -0.225,3.036 -0.676,4.377c-0.451,1.341 -1.115,2.495 -1.994,3.464c-0.879,0.969 -1.978,1.73 -3.296,2.282c-1.318,0.552 -2.845,0.828 -4.58,0.828c-0.991,0 -1.921,-0.146 -2.788,-0.439c-0.868,-0.293 -1.628,-0.727 -2.282,-1.302c-0.653,-0.574 -1.171,-1.278 -1.554,-2.112c-0.384,-0.834 -0.575,-1.78 -0.575,-2.839c-0,-1.735 0.27,-3.285 0.811,-4.648c0.541,-1.363 1.279,-2.518 2.214,-3.464c0.935,-0.947 2.039,-1.668 3.312,-2.164c1.274,-0.495 2.642,-0.743 4.107,-0.743c1.059,-0 2.039,0.163 2.941,0.49c0.901,0.327 1.673,0.783 2.315,1.369c0.642,0.586 1.144,1.295 1.504,2.129c0.361,0.834 0.541,1.758 0.541,2.772Zm-9.903,6.963c0.811,-0.023 1.56,-0.203 2.247,-0.541c0.688,-0.338 1.273,-0.783 1.758,-1.335c0.484,-0.552 0.862,-1.2 1.132,-1.944c0.271,-0.743 0.406,-1.532 0.406,-2.366c-0,-1.172 -0.316,-2.056 -0.947,-2.653c-0.631,-0.597 -1.476,-0.896 -2.535,-0.896c-0.811,0 -1.554,0.175 -2.23,0.524c-0.676,0.349 -1.262,0.811 -1.758,1.386c-0.496,0.574 -0.879,1.234 -1.149,1.977c-0.271,0.744 -0.406,1.521 -0.406,2.332c0,1.15 0.316,2.023 0.947,2.62c0.63,0.597 1.475,0.896 2.535,0.896Z" style="fill:rgb(131,133,136);fill-rule:nonzero;"/>
            <g>
                <path d="M923.759,708.292l4.872,-7.331l3.913,6.777l-8.785,0.554Z" style="fill:rgb(131,133,136);stroke:rgb(131,133,136);stroke-width:3.24px;"/>
                <path d="M1040.35,708.292l-4.872,-7.331l-3.913,6.777l8.785,0.554Z" style="fill:rgb(131,133,136);stroke:rgb(131,133,136);stroke-width:3.24px;"/>
                <path d="M761.313,708.292l4.872,-7.331l3.913,6.777l-8.785,0.554Z" style="fill:rgb(131,133,136);stroke:rgb(131,133,136);stroke-width:3.24px;"/>
            </g>
            <g>
                <path d="M693.912,975.167c0,-0 -0.001,-0 -0.002,-0c-6.84,-0 -12.386,-5.546 -12.386,-12.386l0,-137.914c0,-15.265 12.376,-27.641 27.641,-27.641l11.146,0c9.983,0 18.076,-8.093 18.076,-18.076c0,0 0,-30.166 0,-30.166" style="fill:none;stroke:rgb(222,222,222);stroke-width:2.11px;"/>
                <path d="M900.833,748.984l0,30.167c0,9.946 -8.062,18.008 -18.008,18.008c-17.135,0 -43.165,0 -62.94,0c-15.294,0 -27.693,12.399 -27.693,27.693l-0,138.015c-0,6.793 5.507,12.3 12.3,12.3c0.001,-0 0.001,-0 0.001,-0" style="fill:none;stroke:rgb(222,222,222);stroke-width:2.11px;"/>
                <path d="M1107.96,853.806l0.006,-0c6.515,-0 11.798,-5.28 11.802,-11.795c0.003,-5.813 0.008,-13.055 0.012,-20.013c0.004,-6.586 -2.61,-12.904 -7.266,-17.563c-4.656,-4.658 -10.972,-7.276 -17.558,-7.276c-4.588,0 -9.297,0 -13.634,0c-9.951,0 -18.023,-8.057 -18.042,-18.008c-0,-0 -0,-0.001 -0,-0.001l-0,-30.166" style="fill:none;stroke:rgb(222,222,222);stroke-width:2.11px;"/>
                <path d="M998.867,975.167l25.29,-0" style="fill:none;stroke:rgb(222,222,222);stroke-width:1.86px;"/>
            </g>
            <g>
                <path d="M994.423,1087.99c-4.384,0.296 -6.23,3.204 -7.211,6.268c-0.864,2.694 -1.83,5.475 -2.883,6.905c-0.584,0.793 -1.235,1.201 -1.868,1.201c-0.628,-0 -1.088,-0.332 -1.383,-0.954c-0.449,-0.947 -0.438,-2.802 -0.319,-4.659c0.094,-1.458 0.237,-2.915 0.174,-3.848c-0.009,-0.135 -0.037,-0.288 -0.062,-0.401c-0.054,0.028 -0.108,0.066 -0.164,0.108c-0.207,0.156 -0.411,0.382 -0.618,0.65c-0.719,0.933 -1.43,2.347 -2.102,3.575c-0.573,1.047 -1.131,1.964 -1.628,2.425c-0.338,0.313 -0.681,0.453 -0.988,0.453c-0.581,-0 -0.999,-0.354 -1.16,-1.094c-0.205,-0.944 0.081,-2.798 0.418,-4.649c0.268,-1.467 0.556,-2.933 0.566,-3.871c0.002,-0.12 -0.012,-0.254 -0.026,-0.36c-0.08,0.048 -0.16,0.118 -0.245,0.197c-0.26,0.239 -0.518,0.584 -0.779,0.998c-0.87,1.374 -1.735,3.456 -2.524,5.264c-0.65,1.488 -1.258,2.798 -1.768,3.452c-0.367,0.471 -0.758,0.66 -1.064,0.66c-0.58,-0 -0.979,-0.301 -1.207,-0.864c-0.313,-0.771 -0.197,-2.283 0.026,-3.795c0.138,-0.939 0.303,-1.877 0.373,-2.599c0.017,-0.178 0.019,-0.377 0.016,-0.539c-0.052,0.025 -0.107,0.054 -0.166,0.084c-0.479,0.241 -1.095,0.631 -1.795,1.062c-1.225,0.756 -2.695,1.62 -4.151,2.132c-0.297,1.174 -0.776,2.291 -1.407,3.161c-0.838,1.157 -1.944,1.886 -3.231,1.886c-1.132,0 -1.837,-0.575 -2.284,-1.391c-0.377,-0.689 -0.553,-1.571 -0.66,-2.358c-0.049,-0.354 -0.114,-0.777 -0.159,-1.067c-0.232,0.101 -0.544,0.238 -0.824,0.371c-0.495,0.234 -1.071,0.492 -1.69,0.702c-0.261,1.227 -0.709,2.397 -1.31,3.304c-0.794,1.196 -1.856,1.942 -3.081,1.942c-1.089,-0 -1.802,-0.605 -2.263,-1.488c-0.383,-0.734 -0.579,-1.674 -0.701,-2.513c-0.052,-0.357 -0.091,-0.694 -0.129,-0.981c-0.148,0.171 -0.305,0.372 -0.474,0.584c-0.498,0.629 -1.079,1.347 -1.73,1.825c-0.517,0.379 -1.079,0.613 -1.676,0.613c-1.072,0 -1.909,-0.522 -2.52,-1.426c-0.503,-0.745 -0.845,-1.776 -1.036,-2.967c-0.877,0.64 -1.85,1.195 -2.802,1.701c-0.004,0.124 -0.012,0.248 -0.024,0.371c-0.127,1.326 -0.761,2.779 -1.572,3.729c-0.627,0.734 -1.372,1.164 -2.07,1.164c-0.363,-0 -0.787,-0.142 -1.159,-0.413c-0.531,-0.388 -0.949,-1.031 -0.949,-1.796c-0,-0.771 0.581,-1.515 1.614,-2.194c0.773,-0.509 1.812,-1.014 2.914,-1.579c-0.068,-0.747 -0.294,-1.467 -0.658,-1.991c-0.273,-0.393 -0.623,-0.674 -1.064,-0.674c-1.366,-0 -2.274,0.792 -2.925,1.793c-0.73,1.122 -1.15,2.505 -1.469,3.541c-0.222,0.72 -0.412,1.291 -0.593,1.572c-0.22,0.341 -0.496,0.45 -0.731,0.45c-0.126,-0 -0.261,-0.033 -0.392,-0.132c-0.083,-0.062 -0.224,-0.217 -0.319,-0.511c-0.147,-0.459 -0.328,-1.594 -0.476,-3.114c-0.585,0.938 -1.162,1.793 -1.703,2.525c-0.861,1.164 -1.645,2.021 -2.239,2.436c-0.37,0.259 -0.705,0.366 -0.967,0.366c-1.145,0 -1.788,-0.804 -1.986,-2.151c-0.224,-1.521 0.134,-3.824 0.481,-5.826c0.177,-1.017 0.347,-1.953 0.42,-2.65c0.02,-0.189 0.024,-0.399 0.022,-0.558c-0.528,0.044 -1.104,0.169 -1.688,0.297c-0.389,2.128 -1.581,4.677 -3.139,6.517c-1.315,1.555 -2.896,2.589 -4.446,2.589c-1.877,-0 -3.234,-0.733 -4.157,-1.858c-1.166,0.976 -2.458,1.583 -3.744,1.583c-1.357,0 -2.485,-1.031 -3.266,-2.805c-0.256,-0.584 -0.479,-1.25 -0.668,-1.979c-0.606,1.225 -1.219,2.338 -1.811,3.27c-0.707,1.113 -1.393,1.975 -2.004,2.491c-0.522,0.441 -1.022,0.646 -1.45,0.646c-0.929,-0 -1.588,-0.632 -1.954,-1.764c-0.415,-1.284 -0.469,-3.289 -0.448,-5.295c0.02,-1.899 0.103,-3.798 -0.056,-5.013c-0.036,-0.273 -0.082,-0.507 -0.151,-0.688c-0.011,-0.029 -0.029,-0.064 -0.045,-0.093c-0.039,0.026 -0.076,0.068 -0.12,0.11c-0.17,0.161 -0.335,0.398 -0.503,0.686c-0.592,1.011 -1.171,2.593 -1.742,4.174c-0.703,1.943 -1.398,3.883 -2.06,4.874c-0.427,0.639 -0.912,0.929 -1.326,0.929c-0.476,0 -0.885,-0.292 -1.118,-0.932c-0.298,-0.819 -0.317,-2.424 -0.306,-4.03c0.009,-1.259 0.029,-2.519 -0.119,-3.325c-0.024,-0.134 -0.079,-0.292 -0.114,-0.385c-0.281,0.06 -0.517,0.304 -0.759,0.611c-0.601,0.765 -1.124,1.963 -1.678,3.158c-0.605,1.302 -1.245,2.599 -2.004,3.433c-0.612,0.672 -1.308,1.062 -2.095,1.062c-1.256,-0 -1.932,-0.89 -2.088,-2.46c-0.179,-1.8 0.33,-4.614 0.819,-7.426c0.176,-1.01 0.35,-2.019 0.483,-2.977c-0.226,0.044 -0.461,0.067 -0.706,0.067c-2.557,0 -3.34,-2.392 -2.857,-4.349c0.335,-1.356 1.286,-2.416 2.507,-2.416c1.399,0 2.153,0.892 2.412,2.418c0.093,0.549 0.117,1.191 0.092,1.899c0.085,-0.117 0.166,-0.242 0.242,-0.371c0.622,-1.056 0.948,-2.465 0.99,-3.873c0.042,-1.405 -0.197,-2.811 -0.743,-3.865c-0.476,-0.918 -1.188,-1.562 -2.186,-1.562c-1.669,0 -3.058,0.996 -4.132,2.552c-1.738,2.515 -2.648,6.466 -2.504,10.473c0.185,5.163 1.295,10.423 0.689,13.114c-0.194,0.857 -0.557,1.488 -1.092,1.869c-0.379,0.269 -0.849,0.423 -1.434,0.423c-1.009,0 -1.886,-0.622 -2.607,-1.641c-0.916,-1.295 -1.602,-3.25 -2.152,-4.954c-0.346,-1.07 -0.635,-2.035 -0.905,-2.635c-0.01,-0.024 -0.022,-0.048 -0.035,-0.073l-0.031,0.044c-0.322,0.482 -0.685,1.26 -1.083,2.122c-0.75,1.626 -1.617,3.53 -2.511,4.53c-0.511,0.571 -1.06,0.87 -1.583,0.87c-0.615,0 -1.146,-0.419 -1.46,-1.32c-0.484,-1.392 -0.531,-4.183 -0.497,-7.345c0.042,-3.907 0.186,-8.4 -0.39,-11.369c-0.176,-0.906 -0.413,-1.661 -0.762,-2.186c-0.259,-0.389 -0.577,-0.634 -1.005,-0.634c-0.738,-0 -1.252,0.635 -1.666,1.487c-0.765,1.57 -1.09,3.919 -1.053,5.845c0.061,3.192 1.142,5.221 1.142,5.221c0.16,0.299 0.048,0.672 -0.25,0.832c-0.298,0.161 -0.671,0.049 -0.832,-0.249c-0,-0 -1.22,-2.243 -1.288,-5.781c-0.041,-2.112 0.338,-4.684 1.176,-6.406c0.654,-1.344 1.607,-2.177 2.771,-2.177c1.302,-0 2.225,1.026 2.739,2.822c0.639,2.236 0.714,5.73 0.686,9.224c-0.031,3.942 -0.196,7.884 0.271,9.895c0.067,0.286 0.145,0.528 0.245,0.712c0.055,0.101 0.084,0.201 0.173,0.201c0.127,-0 0.246,-0.077 0.372,-0.177c0.21,-0.166 0.415,-0.408 0.62,-0.695c0.71,-0.996 1.383,-2.505 1.987,-3.815c0.509,-1.104 0.98,-2.074 1.374,-2.56c0.316,-0.389 0.654,-0.537 0.92,-0.537c0.247,0 0.544,0.121 0.796,0.477c0.253,0.358 0.531,1.086 0.831,2.003c0.537,1.641 1.19,3.941 2.141,5.516c0.52,0.862 1.095,1.525 1.866,1.525c0.593,-0 0.954,-0.298 1.165,-0.808c0.187,-0.449 0.274,-1.029 0.307,-1.708c0.139,-2.842 -0.707,-7.265 -0.863,-11.618c-0.154,-4.294 0.859,-8.519 2.721,-11.216c1.326,-1.919 3.083,-3.081 5.143,-3.081c1.193,-0 2.141,0.572 2.834,1.509c0.93,1.258 1.382,3.218 1.323,5.183c-0.059,1.96 -0.626,3.914 -1.651,5.169c-0.285,0.35 -0.605,0.648 -0.959,0.883c-0.137,1.18 -0.349,2.452 -0.57,3.724c-0.468,2.687 -0.979,5.373 -0.808,7.093c0.078,0.782 0.241,1.353 0.866,1.353c0.596,0 1.059,-0.447 1.498,-1.043c0.55,-0.747 1.024,-1.745 1.486,-2.74c0.598,-1.29 1.178,-2.575 1.828,-3.4c0.554,-0.704 1.181,-1.096 1.861,-1.096c0.453,0 0.862,0.291 1.075,0.954c0.262,0.815 0.261,2.411 0.25,4.008c-0.009,1.254 -0.019,2.507 0.151,3.309c0.024,0.112 0.072,0.242 0.11,0.335c0.009,-0.009 0.018,-0.018 0.026,-0.026c0.153,-0.163 0.304,-0.402 0.459,-0.692c0.547,-1.016 1.105,-2.605 1.679,-4.193c0.707,-1.954 1.442,-3.902 2.178,-4.898c0.453,-0.614 0.956,-0.906 1.414,-0.906c0.475,0 0.882,0.279 1.121,0.907c0.308,0.805 0.344,2.419 0.317,4.249c-0.031,2.176 -0.128,4.68 0.234,6.334c0.084,0.382 0.191,0.713 0.338,0.972c0.14,0.244 0.312,0.414 0.573,0.414c0.201,0 0.411,-0.148 0.657,-0.356c0.54,-0.456 1.135,-1.227 1.76,-2.211c0.797,-1.255 1.632,-2.846 2.436,-4.595c-0.279,-1.727 -0.412,-3.649 -0.401,-5.572c0.008,-1.438 0.097,-2.876 0.261,-4.233c-3.469,0.194 -5.196,0.495 -5.196,0.495c-0.267,0.046 -0.522,-0.133 -0.569,-0.4c-0.046,-0.267 0.133,-0.522 0.4,-0.568c-0,-0 1.828,-0.321 5.501,-0.518c0.341,-2.218 0.893,-4.143 1.631,-5.384c0.668,-1.125 1.511,-1.725 2.433,-1.725c0.793,-0 1.346,0.488 1.58,1.467c0.242,1.011 0.115,2.678 -0.307,4.688c-0.055,0.263 -0.115,0.531 -0.179,0.806c2.329,-0.014 5.04,0.033 8.137,0.184c0.271,0.013 0.48,0.243 0.467,0.514c-0.014,0.271 -0.244,0.48 -0.515,0.467c-3.191,-0.155 -5.969,-0.2 -8.334,-0.18c-0.829,3.166 -2.175,6.886 -3.639,10.127c0.223,1.256 0.533,2.386 0.935,3.3c0.54,1.228 1.202,2.072 2.141,2.072c1.064,-0 2.112,-0.557 3.066,-1.39c-0.881,-1.695 -1.088,-3.881 -0.801,-5.841c0.227,-1.552 0.762,-2.942 1.468,-3.811c0.565,-0.696 1.248,-1.077 1.974,-1.077c0.784,0 1.366,0.25 1.784,0.655c0.583,0.566 0.854,1.485 0.793,2.61c-0.123,2.25 -1.563,5.407 -3.564,7.567l-0.085,0.09c0.719,0.893 1.779,1.471 3.266,1.471c1.05,0 2.085,-0.661 3.019,-1.614c1.522,-1.553 2.752,-3.904 3.246,-5.947l0.015,-0.061c-0.306,0.046 -0.606,0.074 -0.892,0.074c-1.945,0 -2.705,-1.712 -2.396,-3.092c0.216,-0.966 0.939,-1.753 2.093,-1.753c0.782,0 1.367,0.253 1.792,0.667c0.579,0.564 0.866,1.475 0.843,2.591c0.677,-0.147 1.34,-0.284 1.925,-0.284c0.318,0 0.575,0.145 0.736,0.481c0.09,0.188 0.146,0.503 0.131,0.923c-0.025,0.742 -0.241,1.934 -0.47,3.258c-0.324,1.87 -0.685,4.018 -0.477,5.439c0.091,0.618 0.245,1.101 0.771,1.101c0.031,-0 0.062,-0.024 0.103,-0.046c0.112,-0.058 0.234,-0.147 0.367,-0.259c0.492,-0.413 1.09,-1.11 1.748,-2c0.793,-1.071 1.664,-2.415 2.527,-3.895c-0.261,-4.331 -0.181,-10.216 1.063,-13.473c0.666,-1.748 1.699,-2.77 3.037,-2.77c0.64,-0 1.13,0.189 1.499,0.51c0.36,0.312 0.61,0.76 0.738,1.334c0.207,0.928 0.085,2.24 -0.303,3.769c-0.81,3.189 -2.759,7.393 -4.785,10.919c0.009,0.136 0.019,0.27 0.028,0.401c0.075,1.026 0.167,1.936 0.263,2.659c0.343,-1.112 0.809,-2.547 1.574,-3.724c0.873,-1.342 2.123,-2.352 3.955,-2.352c0.839,0 1.554,0.455 2.073,1.203c0.39,0.562 0.666,1.297 0.802,2.082c0.964,-0.528 1.921,-1.116 2.742,-1.806c-0.014,-0.233 -0.023,-0.47 -0.027,-0.71c-0.061,-3.526 0.889,-7.665 2.37,-9.834c0.748,-1.096 1.654,-1.709 2.601,-1.709c0.548,0 0.965,0.175 1.274,0.464c0.413,0.387 0.644,1.022 0.633,1.853c-0.033,2.517 -2.326,7.19 -5.376,10.25c-0.067,0.067 -0.136,0.133 -0.205,0.199c0.099,1.029 0.308,1.956 0.65,2.685c0.392,0.836 0.956,1.399 1.789,1.399c0.443,-0 0.837,-0.258 1.206,-0.582c0.46,-0.405 0.871,-0.928 1.237,-1.39c0.403,-0.51 0.767,-0.952 1.072,-1.176c0.243,-0.179 0.481,-0.255 0.691,-0.255c0.211,0 0.421,0.081 0.587,0.313c0.063,0.088 0.127,0.219 0.175,0.396c0.061,0.226 0.11,0.573 0.162,0.987c0.094,0.743 0.206,1.735 0.532,2.54c0.247,0.612 0.614,1.126 1.311,1.126c0.835,0 1.516,-0.576 2.057,-1.392c0.425,-0.642 0.76,-1.433 0.992,-2.28c-0.307,0.05 -0.617,0.079 -0.925,0.079c-3.118,-0 -4.288,-2.793 -3.861,-5.048c0.299,-1.578 1.373,-2.846 2.999,-2.846c2.144,-0 3.281,2.052 3.383,4.634c0.019,0.473 0.004,0.962 -0.043,1.454c0.539,-0.221 1.025,-0.465 1.42,-0.653c0.551,-0.263 0.982,-0.415 1.21,-0.415c0.262,-0 0.511,0.114 0.687,0.425c0.12,0.212 0.21,0.641 0.278,1.185c0.085,0.683 0.169,1.594 0.477,2.334c0.234,0.562 0.614,1.021 1.334,1.021c0.904,-0 1.648,-0.566 2.237,-1.379c0.426,-0.587 0.77,-1.304 1.022,-2.074c-0.311,0.053 -0.617,0.082 -0.916,0.082c-3.099,-0 -4.345,-2.797 -3.859,-5.05c0.335,-1.55 1.468,-2.823 3.318,-2.823c2.067,-0 3.154,2.018 3.186,4.564c0.006,0.475 -0.023,0.967 -0.086,1.461c1.144,-0.486 2.273,-1.18 3.243,-1.777c0.866,-0.535 1.614,-1.004 2.148,-1.239c0.32,-0.141 0.59,-0.204 0.792,-0.204c0.402,-0 0.746,0.227 0.864,0.805c0.104,0.509 -0.016,1.531 -0.194,2.687c-0.203,1.317 -0.468,2.83 -0.381,3.831c0.014,0.158 0.037,0.301 0.075,0.423c0.016,0.051 0.02,0.105 0.04,0.137c0.043,-0.041 0.105,-0.103 0.148,-0.158c0.124,-0.16 0.253,-0.366 0.389,-0.607c0.567,-1.008 1.216,-2.583 1.908,-4.157c0.847,-1.929 1.764,-3.851 2.65,-4.835c0.511,-0.567 1.046,-0.849 1.54,-0.849c0.361,-0 0.638,0.161 0.828,0.485c0.143,0.244 0.231,0.649 0.225,1.18c-0.012,0.988 -0.305,2.533 -0.586,4.077c-0.264,1.451 -0.521,2.901 -0.468,3.83c0.008,0.138 0.044,0.3 0.071,0.404c0.029,-0.02 0.06,-0.044 0.083,-0.065c0.109,-0.101 0.219,-0.232 0.334,-0.385c0.508,-0.679 1.058,-1.741 1.632,-2.802c0.615,-1.134 1.258,-2.265 1.896,-2.991c0.552,-0.628 1.138,-0.965 1.681,-0.965c0.422,0 0.787,0.244 0.967,0.829c0.192,0.629 0.152,1.89 0.053,3.319c-0.115,1.666 -0.292,3.581 -0.086,4.847c0.045,0.276 0.106,0.515 0.201,0.702c0.063,0.122 0.131,0.222 0.259,0.222c0.179,0 0.339,-0.115 0.508,-0.273c0.264,-0.247 0.516,-0.606 0.766,-1.042c0.837,-1.462 1.601,-3.733 2.307,-5.937c1.148,-3.586 3.367,-6.944 8.647,-7.137l0.07,-0.328c0.031,-0.146 0.175,-0.24 0.322,-0.209l0.327,0.07c0.147,0.031 0.24,0.176 0.209,0.322l-0.058,0.271c0.003,0.003 0.006,0.005 0.009,0.008l0.256,0.05l0.061,-0.285c0.043,-0.202 0.241,-0.331 0.443,-0.288l0.459,0.098c0.202,0.043 0.331,0.242 0.288,0.444l-0.057,0.267l0.243,0.048l0.054,-0.271c0.046,-0.234 0.271,-0.389 0.506,-0.349l4.149,0.714c0.243,0.042 0.404,0.276 0.357,0.518l-0.013,0.066l0.029,0.006c0.122,0.023 0.212,0.121 0.232,0.237l3.659,0.72c0.168,0.033 0.301,0.144 0.368,0.287l1.243,0.148l0.347,0.462l-0.08,0.409l-0.497,0.295l-1.203,-0.337c-0.117,0.108 -0.283,0.161 -0.452,0.128l-3.66,-0.721c-0.062,0.1 -0.181,0.156 -0.304,0.132l-0.029,-0.006l-0.013,0.065c-0.048,0.243 -0.286,0.398 -0.527,0.344l-4.109,-0.913c-0.233,-0.052 -0.382,-0.28 -0.336,-0.514l0.053,-0.271l-0.262,-0.051l-0.061,0.285c-0.043,0.202 -0.241,0.331 -0.443,0.288l-0.459,-0.098c-0.202,-0.043 -0.331,-0.242 -0.288,-0.444l0.057,-0.267l-0.266,-0.052l-0.062,0.29c-0.031,0.147 -0.175,0.24 -0.322,0.209l-0.327,-0.07c-0.147,-0.031 -0.24,-0.175 -0.209,-0.322l0.03,-0.141Zm-61.822,10.378c-0.464,0.239 -0.907,0.468 -1.315,0.694c-0.606,0.335 -1.127,0.657 -1.494,0.993c-0.247,0.226 -0.43,0.436 -0.43,0.689c0,0.346 0.205,0.629 0.445,0.804c0.142,0.103 0.297,0.176 0.435,0.176c0.398,0 0.779,-0.315 1.136,-0.733c0.577,-0.676 1.043,-1.663 1.223,-2.623Zm-27.736,-0.716c1.309,-1.471 2.34,-3.399 2.814,-5.108c0.233,-0.839 0.332,-1.62 0.243,-2.257c-0.054,-0.38 -0.171,-0.702 -0.398,-0.922c-0.215,-0.209 -0.524,-0.309 -0.928,-0.309c-0.386,0 -0.72,0.254 -1.021,0.624c-0.593,0.73 -1.015,1.909 -1.206,3.214c-0.229,1.569 -0.127,3.347 0.496,4.758Zm45.692,-1.514c0.088,-0.617 0.123,-1.238 0.099,-1.831c-0.038,-0.986 -0.235,-1.894 -0.639,-2.551c-0.338,-0.549 -0.832,-0.903 -1.516,-0.903c-1.012,0 -1.606,0.865 -1.792,1.847c-0.3,1.584 0.464,3.59 2.654,3.59c0.4,0 0.802,-0.058 1.194,-0.152Zm10.283,-1.296c0.118,-0.638 0.175,-1.283 0.167,-1.896c-0.012,-0.962 -0.181,-1.846 -0.555,-2.487c-0.307,-0.525 -0.764,-0.865 -1.403,-0.865c-1.195,0 -1.901,0.853 -2.117,1.854c-0.34,1.575 0.491,3.562 2.658,3.562c0.406,0 0.825,-0.061 1.25,-0.168Zm-35.834,-1.071c1.609,-3.013 3.048,-6.302 3.708,-8.9c0.33,-1.299 0.471,-2.411 0.295,-3.199c-0.063,-0.285 -0.166,-0.519 -0.344,-0.674c-0.169,-0.146 -0.401,-0.209 -0.694,-0.209c-0.891,-0 -1.446,0.816 -1.89,1.98c-1.016,2.664 -1.2,7.155 -1.075,11.002Zm12.75,-0.397c2.143,-2.38 3.814,-5.517 4.293,-7.74c0.125,-0.579 0.169,-1.087 0.098,-1.49c-0.035,-0.2 -0.093,-0.369 -0.211,-0.48c-0.104,-0.097 -0.251,-0.132 -0.435,-0.132c-0.369,-0 -0.707,0.195 -1.028,0.5c-0.403,0.384 -0.767,0.938 -1.092,1.602c-0.993,2.025 -1.604,5.037 -1.625,7.74Zm-37.579,-8.909c-0.915,0.017 -1.76,0.044 -2.534,0.077c-0.173,1.369 -0.264,2.835 -0.273,4.3c-0.006,1.135 0.038,2.271 0.134,3.362c1.066,-2.57 2.018,-5.308 2.673,-7.739Zm15.093,6.873c0.026,-0.359 0.017,-0.695 -0.032,-1c-0.064,-0.397 -0.192,-0.733 -0.428,-0.963c-0.219,-0.214 -0.531,-0.319 -0.935,-0.319c-0.505,0 -0.8,0.371 -0.894,0.794c-0.158,0.703 0.206,1.595 1.197,1.595c0.349,0 0.716,-0.043 1.092,-0.107Zm-40.807,-5.213c0.099,-1.05 0.117,-1.995 -0.012,-2.752c-0.14,-0.823 -0.447,-1.395 -1.201,-1.395c-0.694,-0 -1.124,0.71 -1.314,1.481c-0.305,1.234 0.052,2.827 1.664,2.827c0.311,-0 0.598,-0.057 0.863,-0.161Zm25.967,-2.647c0.09,-0.368 0.171,-0.726 0.244,-1.073c0.373,-1.781 0.529,-3.254 0.314,-4.15c-0.07,-0.295 -0.145,-0.525 -0.385,-0.525c-0.331,0 -0.622,0.181 -0.893,0.466c-0.357,0.376 -0.667,0.923 -0.942,1.592c-0.422,1.027 -0.751,2.324 -0.983,3.764c0.809,-0.033 1.691,-0.059 2.645,-0.074Z" style="fill:rgb(131,133,136);"/>
                <g>
                    <path d="M797.415,1093.35c-0,0 2.294,5.733 9.414,5.733c7.121,-0 9.494,-5.675 9.494,-5.675c0,-0 0.359,-7.269 -9.494,-7.269c-9.852,-0 -9.414,7.211 -9.414,7.211Z" style="fill:rgb(131,133,136);"/>
                    <path d="M802.302,1098.17c0,-0 -1.925,1.41 -1.735,3.252c0.191,1.843 1.054,2.619 1.537,2.363c0.483,-0.257 -0.378,-1.205 -0.378,-1.985c0,-0.78 0.878,-1.869 2.449,-3.003c-0.098,-1.106 -1.558,-1.034 -1.873,-0.627Z" style="fill:rgb(131,133,136);"/>
                    <path d="M797.721,1091.3c-1.555,-1.257 -2.553,-2.902 -2.714,-4.941c0.551,-0.316 1.041,-0.229 1.622,0.166c0.419,1.06 1.165,1.988 2.161,2.702c0.131,1.05 -0.29,1.693 -1.069,2.073Z" style="fill:rgb(131,133,136);"/>
                    <path d="M799.242,1096.01c-0,-0 -3.071,1.323 -3.202,3.89c-0.095,1.85 0.659,2.511 1.141,2.255c0.483,-0.257 -0.235,-1.691 0.231,-2.505c0.387,-0.677 1.707,-1.546 3.485,-2.256c0.538,-1.276 -0.994,-1.866 -1.655,-1.384Z" style="fill:rgb(131,133,136);"/>
                    <path d="M797.415,1093.35c-0,0 -3.131,0.681 -3.754,2.994c-0.128,0.476 -0.115,2.349 0.432,2.349c0.546,-0 0.237,-1.294 1.076,-2.421c0.698,-0.936 1.464,-0.536 3.242,-1.246c0.363,-0.68 -0.265,-1.858 -0.996,-1.676Z" style="fill:rgb(131,133,136);"/>
                    <path d="M795.868,1086.64c-1.51,-0.179 -2.433,-1.791 -2.392,-3.094c0.111,-3.551 2.858,-5.879 6.067,-5.872c0.578,-0.009 0.807,0.167 0.36,0.703c-0.787,0.93 -0.893,3.225 -0.83,4.756c0.035,0.874 -1.585,3.698 -3.205,3.507Z" style="fill:rgb(131,133,136);"/>
                    <path d="M796.629,1086.52c3.077,0.025 5.215,-0.65 5.446,-4.015c0.017,-0.251 0.09,-0.799 -0.196,-0.847c-0.502,-0.085 -2.265,-0.045 -2.817,0.338c-1.05,0.662 -1.883,2.094 -2.433,4.524Z" style="fill:rgb(131,133,136);"/>
                    <path d="M811.355,1098.17c0,-0 1.926,1.41 1.735,3.252c-0.19,1.843 -1.054,2.619 -1.536,2.363c-0.483,-0.257 0.378,-1.205 0.378,-1.985c-0,-0.78 -0.878,-1.869 -2.45,-3.003c0.099,-1.106 1.559,-1.034 1.873,-0.627Z" style="fill:rgb(131,133,136);"/>
                    <path d="M815.936,1091.3c1.556,-1.257 2.53,-2.886 2.691,-4.924c-0.551,-0.317 -1.017,-0.245 -1.598,0.15c-0.419,1.059 -1.165,1.987 -2.161,2.701c-0.132,1.05 0.289,1.693 1.068,2.073Z" style="fill:rgb(131,133,136);"/>
                    <path d="M814.416,1096.01c-0,-0 3.07,1.323 3.202,3.89c0.095,1.85 -0.659,2.511 -1.142,2.255c-0.482,-0.257 0.236,-1.691 -0.23,-2.505c-0.388,-0.677 -1.707,-1.546 -3.486,-2.256c-0.538,-1.276 0.994,-1.866 1.656,-1.384Z" style="fill:rgb(131,133,136);"/>
                    <path d="M816.243,1093.35c-0,0 3.13,0.681 3.753,2.994c0.128,0.476 0.116,2.349 -0.431,2.349c-0.547,-0 -0.237,-1.294 -1.076,-2.421c-0.698,-0.936 -1.464,-0.536 -3.243,-1.246c-0.362,-0.68 0.266,-1.858 0.997,-1.676Z" style="fill:rgb(131,133,136);"/>
                    <path d="M817.789,1086.64c1.511,-0.179 2.433,-1.791 2.393,-3.094c-0.111,-3.551 -2.859,-5.879 -6.067,-5.872c-0.578,-0.009 -0.807,0.167 -0.36,0.703c0.786,0.93 0.893,3.225 0.83,4.756c-0.036,0.874 1.585,3.698 3.204,3.507Z" style="fill:rgb(131,133,136);"/>
                    <path d="M817.029,1086.52c-3.077,0.025 -5.215,-0.65 -5.446,-4.015c-0.017,-0.251 -0.09,-0.799 0.196,-0.847c0.502,-0.085 2.264,-0.045 2.817,0.338c1.05,0.662 1.882,2.094 2.433,4.524Z" style="fill:rgb(131,133,136);"/>
                </g>
                <path d="M835.462,1089.36l1.371,-0l-2.249,3.635l0,0.185l2.434,3.82l-1.402,0l-2.079,-3.358l-0.278,0l-2.079,3.358l-1.402,0l2.434,-3.82l-0,-0.185l-2.249,-3.635l1.371,-0l1.925,3.173l0.278,0l1.925,-3.173Z" style="fill:rgb(131,133,136);fill-rule:nonzero;"/>
            </g>
            <path d="M840.961,122.846l0.609,0l4.563,-21.429l4.258,-0l-5.036,23.66l-8.315,0l1.589,-21.429l-0.608,-0l-4.563,21.429l-4.225,0l5.002,-23.66l8.315,-0l-1.589,21.429Z" style="fill:rgb(131,133,136);fill-rule:nonzero;"/>
            <path d="M855.732,118.08c-0.045,0.181 -0.068,0.372 -0.068,0.575c0,0.811 0.31,1.487 0.93,2.028c0.619,0.541 1.436,0.811 2.45,0.811c1.059,0 1.904,-0.191 2.535,-0.574c0.631,-0.383 1.116,-0.834 1.454,-1.352l3.38,2.129c-0.271,0.451 -0.626,0.901 -1.065,1.352c-0.439,0.451 -0.98,0.862 -1.622,1.234c-0.643,0.372 -1.398,0.676 -2.265,0.912c-0.868,0.237 -1.876,0.355 -3.025,0.355c-1.037,0 -1.989,-0.163 -2.856,-0.49c-0.868,-0.327 -1.611,-0.777 -2.231,-1.352c-0.62,-0.574 -1.104,-1.262 -1.454,-2.062c-0.349,-0.8 -0.523,-1.684 -0.523,-2.653c-0,-1.532 0.231,-2.974 0.692,-4.326c0.462,-1.352 1.133,-2.535 2.012,-3.549c0.878,-1.014 1.96,-1.814 3.244,-2.4c1.285,-0.586 2.761,-0.879 4.428,-0.879c1.172,-0 2.192,0.186 3.059,0.558c0.868,0.371 1.583,0.867 2.146,1.487c0.564,0.62 0.986,1.324 1.268,2.112c0.282,0.789 0.422,1.6 0.422,2.434c0,0.27 -0.016,0.546 -0.05,0.828c-0.034,0.282 -0.096,0.648 -0.186,1.099l-0.372,1.723l-12.303,0Zm5.34,-6.388c-1.059,0 -1.977,0.265 -2.754,0.794c-0.778,0.53 -1.358,1.178 -1.741,1.944l7.909,-0c0,-0.856 -0.265,-1.527 -0.794,-2.011c-0.53,-0.485 -1.403,-0.727 -2.62,-0.727Z" style="fill:rgb(131,133,136);fill-rule:nonzero;"/>
            <path d="M874.93,131.837l-4.259,0l4.158,-19.503l-0.338,-0.236l-1.555,1.149l-2.197,-3.042l1.825,-1.352c0.473,-0.338 0.964,-0.592 1.471,-0.761c0.507,-0.169 0.997,-0.253 1.47,-0.253c0.901,-0 1.69,0.259 2.366,0.777c0.676,0.519 1.093,1.228 1.25,2.13l0.609,-0c1.104,-1.938 2.907,-2.907 5.408,-2.907c0.766,-0 1.498,0.146 2.197,0.439c0.698,0.293 1.312,0.721 1.842,1.285c0.53,0.563 0.946,1.256 1.251,2.078c0.304,0.823 0.456,1.764 0.456,2.823c-0,1.329 -0.163,2.659 -0.49,3.988c-0.327,1.33 -0.84,2.518 -1.538,3.566c-0.699,1.048 -1.594,1.899 -2.687,2.552c-1.093,0.653 -2.406,0.98 -3.938,0.98c-0.721,0 -1.352,-0.084 -1.893,-0.253c-0.541,-0.169 -1.002,-0.389 -1.386,-0.659c-0.383,-0.271 -0.698,-0.581 -0.946,-0.93c-0.248,-0.349 -0.417,-0.704 -0.507,-1.065l-0.608,0l-1.961,9.194Zm6.49,-10.343c0.834,0 1.566,-0.152 2.197,-0.456c0.631,-0.304 1.155,-0.727 1.572,-1.268c0.416,-0.54 0.726,-1.183 0.929,-1.926c0.203,-0.744 0.304,-1.555 0.304,-2.434c0,-0.946 -0.304,-1.769 -0.912,-2.467c-0.609,-0.699 -1.454,-1.048 -2.535,-1.048c-0.766,-0 -1.454,0.152 -2.062,0.456c-0.609,0.304 -1.127,0.727 -1.555,1.268c-0.428,0.541 -0.76,1.183 -0.997,1.926c-0.237,0.744 -0.355,1.555 -0.355,2.434c0,1.059 0.304,1.91 0.913,2.552c0.608,0.642 1.442,0.963 2.501,0.963Z" style="fill:rgb(131,133,136);fill-rule:nonzero;"/>
            <path d="M898.894,112.368l-4.732,0l0,-4.056l5.611,0l1.555,-7.368l4.259,-0l-1.555,7.368l5.814,0l-0,4.056l-6.693,0l-1.893,8.687l0.338,0.236l4.53,-3.109l2.129,3.177l-4.901,3.312c-0.856,0.586 -1.769,0.879 -2.738,0.879c-0.495,0 -0.969,-0.084 -1.419,-0.253c-0.451,-0.169 -0.845,-0.412 -1.183,-0.727c-0.338,-0.315 -0.609,-0.699 -0.812,-1.149c-0.202,-0.451 -0.304,-0.958 -0.304,-1.521c0,-0.18 0.012,-0.344 0.034,-0.49c0.023,-0.147 0.056,-0.344 0.101,-0.592l1.859,-8.45Z" style="fill:rgb(131,133,136);fill-rule:nonzero;"/>
            <path d="M919.749,108.312l-2.095,9.735c-0.091,0.383 -0.136,0.754 -0.136,1.115c0,0.856 0.237,1.493 0.71,1.91c0.473,0.417 1.104,0.625 1.893,0.625c1.194,0 2.112,-0.389 2.755,-1.166c0.642,-0.778 1.121,-1.876 1.436,-3.296l1.893,-8.923l4.259,0l-2.772,12.777l0.372,0.202l1.217,-0.878l2.129,3.109l-1.588,1.149c-0.429,0.316 -0.874,0.541 -1.336,0.676c-0.461,0.136 -0.918,0.203 -1.368,0.203c-0.924,0 -1.736,-0.265 -2.434,-0.794c-0.699,-0.53 -1.093,-1.301 -1.183,-2.315l-0.608,-0c-0.496,1.149 -1.167,1.954 -2.012,2.416c-0.845,0.462 -1.797,0.693 -2.856,0.693c-1.464,0 -2.659,-0.445 -3.582,-1.335c-0.924,-0.89 -1.386,-2.135 -1.386,-3.735c-0,-0.563 0.067,-1.172 0.203,-1.825l2.23,-10.343l4.259,0Z" style="fill:rgb(131,133,136);fill-rule:nonzero;"/>
            <path d="M945.708,115.343c0.09,-0.429 0.135,-0.789 0.135,-1.082c-0,-0.811 -0.237,-1.442 -0.71,-1.893c-0.473,-0.45 -1.115,-0.676 -1.927,-0.676c-1.014,0 -1.881,0.361 -2.602,1.082c-0.721,0.721 -1.206,1.69 -1.454,2.907l-1.994,9.396l-4.259,0l3.549,-16.765l4.09,0l-0.574,2.704l0.608,0c0.541,-1.126 1.256,-1.938 2.146,-2.433c0.89,-0.496 1.876,-0.744 2.958,-0.744c1.419,-0 2.552,0.428 3.397,1.284c0.845,0.857 1.267,2.062 1.267,3.617c0,0.361 -0.022,0.693 -0.067,0.997c-0.045,0.304 -0.102,0.637 -0.169,0.997l-1.352,6.321l0.338,0.236l1.453,-1.014l2.129,3.178l-1.825,1.216c-0.856,0.586 -1.769,0.879 -2.738,0.879c-0.495,0 -0.969,-0.084 -1.419,-0.253c-0.451,-0.169 -0.845,-0.406 -1.183,-0.71c-0.338,-0.304 -0.609,-0.676 -0.811,-1.115c-0.203,-0.44 -0.305,-0.941 -0.305,-1.505c0,-0.293 0.034,-0.631 0.102,-1.014l1.217,-5.61Z" style="fill:rgb(131,133,136);fill-rule:nonzero;"/>
            <path d="M959.16,118.08c-0.045,0.181 -0.068,0.372 -0.068,0.575c0,0.811 0.31,1.487 0.93,2.028c0.62,0.541 1.436,0.811 2.45,0.811c1.059,0 1.904,-0.191 2.535,-0.574c0.631,-0.383 1.116,-0.834 1.454,-1.352l3.38,2.129c-0.271,0.451 -0.625,0.901 -1.065,1.352c-0.439,0.451 -0.98,0.862 -1.622,1.234c-0.642,0.372 -1.397,0.676 -2.265,0.912c-0.867,0.237 -1.876,0.355 -3.025,0.355c-1.037,0 -1.989,-0.163 -2.856,-0.49c-0.868,-0.327 -1.611,-0.777 -2.231,-1.352c-0.62,-0.574 -1.104,-1.262 -1.453,-2.062c-0.35,-0.8 -0.524,-1.684 -0.524,-2.653c-0,-1.532 0.231,-2.974 0.693,-4.326c0.462,-1.352 1.132,-2.535 2.011,-3.549c0.879,-1.014 1.96,-1.814 3.245,-2.4c1.284,-0.586 2.76,-0.879 4.427,-0.879c1.172,-0 2.192,0.186 3.059,0.558c0.868,0.371 1.583,0.867 2.147,1.487c0.563,0.62 0.985,1.324 1.267,2.112c0.282,0.789 0.423,1.6 0.423,2.434c-0,0.27 -0.017,0.546 -0.051,0.828c-0.034,0.282 -0.096,0.648 -0.186,1.099l-0.372,1.723l-12.303,0Zm5.34,-6.388c-1.059,0 -1.977,0.265 -2.754,0.794c-0.778,0.53 -1.358,1.178 -1.741,1.944l7.909,-0c0,-0.856 -0.265,-1.527 -0.794,-2.011c-0.53,-0.485 -1.403,-0.727 -2.62,-0.727Z" style="fill:rgb(131,133,136);fill-rule:nonzero;"/>
        </g>
        <g id="LEDs">
            <g>
                <path d="M864.313,468.972c-3.839,-0.66 -7.784,-1.004 -11.81,-1.004c-38.279,0 -69.357,31.078 -69.357,69.357c0,22.428 10.669,42.384 27.203,55.066l-1.369,1.789c-17.072,-13.094 -28.087,-33.698 -28.087,-56.855c-0,-39.522 32.087,-71.61 71.61,-71.61c3.938,0 7.801,0.318 11.566,0.931c-0.071,0.269 -0.108,0.551 -0.108,0.843c-0,0.533 0.126,1.037 0.352,1.483Zm6.205,-0.968c15.003,3.894 28.102,12.534 37.594,24.22c-0.625,0.557 -1.037,1.348 -1.098,2.234c-9.364,-11.887 -22.53,-20.642 -37.657,-24.424c0.608,-0.502 1.033,-1.217 1.161,-2.03Zm41.499,29.503c4.26,6.351 7.53,13.42 9.59,20.985c-0.783,0.012 -1.529,0.182 -2.206,0.479c-2.09,-7.628 -5.452,-14.732 -9.842,-21.07c0.239,0.055 0.489,0.085 0.746,0.085c0.627,-0 1.213,-0.175 1.712,-0.479Zm11.683,32.08c0.273,2.542 0.414,5.124 0.414,7.738c-0,19.155 -7.537,36.563 -19.804,49.418c-0.352,-0.687 -0.807,-1.313 -1.343,-1.857c5.565,-5.902 10.107,-12.779 13.342,-20.346c0.713,-0.904 1.176,-2.014 1.284,-3.226c2.76,-7.476 4.267,-15.558 4.267,-23.989c0,-2.493 -0.132,-4.956 -0.389,-7.382c0.075,0.003 0.15,0.004 0.225,0.004c0.705,0 1.38,-0.127 2.004,-0.36Zm-33.006,57.626l-1.052,-1.374c2.493,-1.912 4.835,-4.012 7.004,-6.279c1.007,0.879 2.323,1.411 3.763,1.411c1.426,0 2.731,-0.522 3.734,-1.386c-1.064,1.299 -2.177,2.557 -3.334,3.771c-0.971,-0.457 -2.054,-0.712 -3.197,-0.712c-3.103,-0 -5.77,1.884 -6.918,4.569Zm3.988,-11.869c-2.331,2.583 -4.895,4.952 -7.66,7.073l-1.284,-1.677c5.514,-4.229 10.2,-9.484 13.773,-15.479c0.409,0.163 0.855,0.253 1.322,0.253c0.373,-0 0.732,-0.057 1.07,-0.163c-0.838,1.473 -1.74,2.905 -2.703,4.292c-2.581,0.556 -4.519,2.854 -4.519,5.6c-0,0.034 0,0.067 0.001,0.101Zm8.07,-16.429c1.701,-3.95 2.949,-8.139 3.68,-12.502c0.329,0.98 0.916,1.842 1.68,2.505c-0.861,4.144 -2.174,8.122 -3.884,11.882c-0.263,-0.785 -0.791,-1.449 -1.476,-1.885Zm4.274,-17.387c0.106,-1.387 0.159,-2.789 0.159,-4.203c0,-7.488 -1.508,-14.626 -4.237,-21.127c0.244,0.057 0.498,0.088 0.76,0.088c0.511,-0 0.996,-0.117 1.428,-0.325c1.943,4.776 3.254,9.875 3.83,15.194c-0.468,0.569 -0.748,1.298 -0.748,2.091c-0,0.955 0.406,1.816 1.056,2.418c0.016,0.552 0.024,1.106 0.024,1.661c-0,0.726 -0.014,1.448 -0.041,2.167c-0.913,0.468 -1.684,1.174 -2.231,2.036Zm-6.291,-29.973c-9.217,-17.201 -27.368,-28.912 -48.232,-28.912c-30.18,0 -54.682,24.503 -54.682,54.682c0,17.683 8.411,33.416 21.447,43.415l-1.283,1.677c-13.54,-10.385 -22.276,-26.726 -22.276,-45.092c-0,-31.345 25.448,-56.794 56.794,-56.794c21.445,-0 40.13,11.911 49.794,29.473c-0.681,0.323 -1.234,0.873 -1.562,1.551Zm12.487,18.867c-1.923,-17.069 -10.89,-32.019 -23.922,-41.87c1.627,-0.636 2.774,-2.157 2.774,-3.931c-0,-0.399 -0.058,-0.784 -0.166,-1.15c12.273,8.999 21.362,22.09 25.249,37.256c-0.745,0.967 -1.188,2.178 -1.188,3.492c-0,2.081 1.111,3.904 2.773,4.907c0.33,2.687 0.499,5.424 0.499,8.199c0,6.839 -1.03,13.438 -2.945,19.652c-1.118,-1.408 -2.844,-2.311 -4.779,-2.311c-0.139,-0 -0.276,0.004 -0.413,0.013c0.425,-1.435 0.799,-2.892 1.119,-4.37c2.995,-0.185 5.369,-2.675 5.369,-5.716c0,-2.563 -1.687,-4.735 -4.01,-5.466c0.017,-0.598 0.026,-1.199 0.026,-1.802c0,-0.506 -0.006,-1.01 -0.018,-1.514c0.747,-0.605 1.225,-1.529 1.225,-2.565c0,-1.197 -0.638,-2.246 -1.593,-2.824Zm-30.089,-45.971c-9.007,-5.233 -19.471,-8.23 -30.63,-8.23c-33.724,-0 -61.105,27.38 -61.105,61.104c0,19.76 9.399,37.341 23.967,48.514l-3.424,4.472c-15.91,-12.202 -26.176,-31.405 -26.176,-52.986c0,-36.833 29.904,-66.738 66.738,-66.738c12.748,0 24.666,3.582 34.801,9.794c-2.271,0.141 -4.081,1.897 -4.171,4.07Zm29.251,82.355c-1.938,3.925 -4.251,7.634 -6.892,11.077c0.412,-0.79 0.645,-1.688 0.645,-2.64c-0,-1.913 -0.94,-3.608 -2.383,-4.649c1.191,-1.831 2.288,-3.73 3.282,-5.689c1.115,1.206 2.71,1.962 4.481,1.962c0.294,0 0.584,-0.021 0.867,-0.061Zm-57.708,-96.019c-1.199,0 -2.173,0.974 -2.173,2.173c0,1.199 0.974,2.173 2.173,2.173c1.199,-0 2.173,-0.974 2.173,-2.173c-0,-1.199 -0.974,-2.173 -2.173,-2.173Z" style="fill:rgb(213,213,213);"/>
            </g>
            <path d="M913.265,382.678c-4.611,-3.537 -8.983,-7.371 -13.086,-11.474c-23.881,-23.881 -38.659,-56.864 -38.659,-93.271c-0,-36.408 14.778,-69.391 38.659,-93.272c23.881,-23.881 56.864,-38.659 93.272,-38.659c36.407,-0 69.39,14.778 93.271,38.659c23.881,23.881 38.66,56.864 38.66,93.272c-0,36.407 -14.779,69.39 -38.66,93.271c-4.103,4.103 -8.474,7.937 -13.086,11.474l-1.431,-1.87c30.891,-23.692 50.822,-60.975 50.822,-102.875c-0,-71.515 -58.061,-129.577 -129.576,-129.577c-71.515,0 -129.576,58.062 -129.576,129.577c-0,41.9 19.931,79.183 50.822,102.875l-1.432,1.87Zm4.759,-6.217c-29.586,-22.691 -48.675,-58.398 -48.675,-98.528c0,-68.494 55.608,-124.102 124.102,-124.102c68.493,0 124.101,55.608 124.101,124.102c0,40.13 -19.089,75.837 -48.675,98.528l-9.415,-12.299c25.892,-19.859 42.599,-51.108 42.599,-86.229c-0,-59.944 -48.667,-108.61 -108.61,-108.61c-59.944,-0 -108.61,48.666 -108.61,108.61c-0,35.121 16.706,66.37 42.599,86.229l-9.416,12.299Z" style="fill:rgb(213,213,213);"/>
            <g>
                <path d="M1041.59,459.877c-33.863,4.225 -60.102,33.145 -60.102,68.144c0,18.625 7.43,35.528 19.485,47.904l-2.593,3.388c-13.052,-13.176 -21.117,-31.3 -21.117,-51.292c0,-38.242 29.51,-69.646 66.981,-72.662c-1.299,1.182 -2.244,2.748 -2.654,4.518Zm14.491,-4.518c37.471,3.016 66.982,34.42 66.982,72.662c-0,19.992 -8.066,38.116 -21.117,51.292l-2.594,-3.388c12.055,-12.376 19.486,-29.279 19.486,-47.904c-0,-34.999 -26.239,-63.919 -60.102,-68.144c-0.41,-1.77 -1.355,-3.336 -2.655,-4.518Zm2.415,9.341c31.315,4.088 55.528,30.899 55.528,63.321c-0,17.066 -6.709,32.578 -17.631,44.039l-2.601,-3.399c9.929,-10.653 16.007,-24.942 16.007,-40.64c-0,-31.022 -23.739,-56.544 -54.026,-59.375c1.24,-1.028 2.194,-2.389 2.723,-3.946Zm-13.943,3.946c-30.288,2.831 -54.026,28.353 -54.026,59.375c-0,15.698 6.078,29.987 16.007,40.64l-2.602,3.399c-10.922,-11.461 -17.63,-26.973 -17.63,-44.039c-0,-32.422 24.213,-59.233 55.527,-63.321c0.53,1.557 1.484,2.918 2.724,3.946Z" style="fill:rgb(213,213,213);"/>
                <circle cx="1050.16" cy="461.868" r="6.221" style="fill:rgb(213,213,213);"/>
            </g>
            <g>
                <path d="M701.286,425.283c-18.38,-14.736 -30.157,-37.374 -30.157,-62.741c-0,-44.36 36.015,-80.375 80.375,-80.375c32.292,0 60.162,19.085 72.936,46.58c-2.488,0.055 -4.729,1.115 -6.333,2.791c-11.699,-25.066 -37.137,-42.453 -66.603,-42.453c-40.542,-0 -73.457,32.915 -73.457,73.457c-0,23.184 10.763,43.874 27.561,57.34l-4.322,5.401Zm128.691,-80.19c1.245,5.619 1.902,11.458 1.902,17.449c0,25.367 -11.777,48.005 -30.157,62.741l-4.322,-5.401c16.798,-13.466 27.561,-34.156 27.561,-57.34c0,-5.428 -0.59,-10.719 -1.709,-15.813c0.453,0.07 0.917,0.106 1.389,0.106c1.995,0 3.839,-0.647 5.336,-1.742Zm-120.282,69.683c-15.302,-12.267 -25.107,-31.114 -25.107,-52.234c-0,-36.932 29.984,-66.916 66.916,-66.916c36.932,0 66.916,29.984 66.916,66.916c0,21.12 -9.805,39.967 -25.107,52.234l-1.618,-2.022c14.709,-11.792 24.135,-29.91 24.135,-50.212c-0,-35.502 -28.824,-64.325 -64.326,-64.325c-35.502,-0 -64.325,28.823 -64.325,64.325c-0,20.302 9.425,38.42 24.135,50.212l-1.619,2.022Zm3.069,-3.834c-14.179,-11.367 -23.264,-28.831 -23.264,-48.4c-0,-34.221 27.783,-62.004 62.004,-62.004c34.221,-0 62.004,27.783 62.004,62.004c0,19.569 -9.085,37.033 -23.264,48.4l-1.5,-1.873c13.63,-10.928 22.364,-27.715 22.364,-46.527c-0,-32.896 -26.708,-59.604 -59.604,-59.604c-32.896,0 -59.604,26.708 -59.604,59.604c0,18.812 8.734,35.599 22.364,46.527l-1.5,1.873Z" style="fill:rgb(213,213,213);"/>
                <circle cx="824.641" cy="337.79" r="6.221" style="fill:rgb(213,213,213);"/>
            </g>
        </g>
        <g>
            <circle cx="735.301" cy="853.806" r="37.913" style="fill:rgb(222,222,222);"/>
            <circle cx="846.105" cy="853.806" r="37.913" style="fill:rgb(222,222,222);"/>
            <circle cx="956.854" cy="975.167" r="37.913" style="fill:rgb(222,222,222);"/>
            <circle cx="956.854" cy="853.806" r="37.913" style="fill:rgb(222,222,222);"/>
            <circle cx="1066.14" cy="853.806" r="37.913" style="fill:rgb(222,222,222);"/>
            <path d="M773.436,944.836c0,-4.185 -3.397,-7.582 -7.582,-7.582l-60.661,-0c-4.185,-0 -7.582,3.397 -7.582,7.582l-0,60.661c-0,4.185 3.397,7.583 7.582,7.583l60.661,-0c4.185,-0 7.582,-3.398 7.582,-7.583l0,-60.661Z" style="fill:rgb(222,222,222);"/>
            <path d="M884.018,944.836c-0,-4.185 -3.398,-7.582 -7.583,-7.582l-60.66,-0c-4.185,-0 -7.583,3.397 -7.583,7.582l-0,60.661c-0,4.185 3.398,7.583 7.583,7.583l60.66,-0c4.185,-0 7.583,-3.398 7.583,-7.583l-0,-60.661Z" style="fill:rgb(222,222,222);"/>
        </g>
        <g>
            <g id="Flat-jack" serif:id="Flat jack">
                <path d="M735.121,820.105c0.248,-0.143 0.554,-0.143 0.802,0c3.255,1.88 25.333,14.627 28.588,16.506c0.248,0.143 0.401,0.408 0.401,0.694c0,3.759 0.001,29.253 0.001,33.012c0,0.286 -0.152,0.55 -0.4,0.694c-3.255,1.879 -25.332,14.626 -28.587,16.506c-0.248,0.143 -0.554,0.143 -0.802,-0c-3.255,-1.88 -25.333,-14.627 -28.588,-16.506c-0.248,-0.144 -0.401,-0.408 -0.401,-0.694c-0,-3.759 -0.001,-29.253 -0.001,-33.012c-0,-0.286 0.152,-0.551 0.4,-0.694c3.255,-1.879 25.332,-14.626 28.587,-16.506Z" style="fill:rgb(213,213,213);"/>
                <path d="M734.184,818.481c0.828,-0.478 1.848,-0.478 2.676,0l28.589,16.506c0.828,0.478 1.338,1.362 1.338,2.318l0.001,33.012c0.001,0.956 -0.51,1.839 -1.338,2.317l-28.587,16.506c-0.828,0.478 -1.848,0.478 -2.676,0l-28.589,-16.506c-0.828,-0.478 -1.338,-1.361 -1.338,-2.317l-0.001,-33.012c-0.001,-0.956 0.51,-1.84 1.338,-2.318l28.587,-16.506Zm0.937,1.624l-28.587,16.506c-0.248,0.143 -0.4,0.408 -0.4,0.694l0.001,33.012c0,0.286 0.153,0.55 0.401,0.694l28.588,16.506c0.248,0.143 0.554,0.143 0.802,-0l28.587,-16.506c0.248,-0.144 0.4,-0.408 0.4,-0.694l-0.001,-33.012c-0,-0.286 -0.153,-0.551 -0.401,-0.694l-28.588,-16.506c-0.248,-0.143 -0.554,-0.143 -0.802,0Z" style="fill:rgb(169,169,169);"/>
                <ellipse cx="735.524" cy="853.811" rx="17.849" ry="17.848" style="fill:rgb(131,133,136);"/>
            </g>
            <g id="Flat-jack1" serif:id="Flat jack">
                <path d="M734.954,941.461c0.248,-0.143 0.553,-0.143 0.801,-0c3.255,1.879 25.334,14.626 28.589,16.506c0.248,0.143 0.401,0.407 0.401,0.694c-0,3.758 0.001,29.253 0.001,33.012c0,0.286 -0.153,0.55 -0.4,0.693c-3.256,1.88 -25.333,14.627 -28.588,16.506c-0.248,0.143 -0.553,0.143 -0.801,0c-3.255,-1.879 -25.334,-14.626 -28.589,-16.506c-0.248,-0.143 -0.4,-0.407 -0.4,-0.693c-0,-3.759 -0.002,-29.253 -0.002,-33.012c0,-0.287 0.153,-0.551 0.401,-0.694c3.255,-1.88 25.332,-14.627 28.587,-16.506Z" style="fill:rgb(213,213,213);"/>
                <path d="M734.016,939.837c0.828,-0.478 1.849,-0.478 2.677,0l28.589,16.506c0.827,0.478 1.338,1.361 1.338,2.317l0.001,33.012c0,0.957 -0.51,1.84 -1.338,2.318l-28.587,16.506c-0.828,0.478 -1.848,0.478 -2.676,0l-28.589,-16.506c-0.828,-0.478 -1.338,-1.361 -1.338,-2.317l-0.002,-33.012c0,-0.956 0.51,-1.84 1.338,-2.318l28.587,-16.506Zm0.938,1.624l-28.587,16.506c-0.248,0.143 -0.401,0.407 -0.401,0.694l0.002,33.012c-0,0.286 0.152,0.55 0.4,0.693l28.589,16.506c0.248,0.143 0.553,0.143 0.801,0l28.588,-16.506c0.247,-0.143 0.4,-0.407 0.4,-0.693l-0.001,-33.012c-0,-0.287 -0.153,-0.551 -0.401,-0.694l-28.589,-16.506c-0.248,-0.143 -0.553,-0.143 -0.801,-0Z" style="fill:rgb(169,169,169);"/>
                <ellipse cx="735.356" cy="975.167" rx="17.849" ry="17.848" style="fill:rgb(131,133,136);"/>
            </g>
            <g id="Flat-jack2" serif:id="Flat jack">
                <path d="M845.87,820.105c0.248,-0.143 0.553,-0.143 0.801,0c3.256,1.88 25.334,14.627 28.589,16.506c0.248,0.143 0.401,0.408 0.401,0.694c-0,3.759 0.001,29.253 0.001,33.012c0,0.286 -0.152,0.55 -0.4,0.694c-3.255,1.879 -25.332,14.626 -28.588,16.506c-0.247,0.143 -0.553,0.143 -0.801,-0c-3.255,-1.88 -25.333,-14.627 -28.589,-16.506c-0.247,-0.144 -0.4,-0.408 -0.4,-0.694c-0,-3.759 -0.002,-29.253 -0.002,-33.012c0,-0.286 0.153,-0.551 0.401,-0.694c3.255,-1.879 25.332,-14.626 28.587,-16.506Z" style="fill:rgb(213,213,213);"/>
                <path d="M844.933,818.481c0.828,-0.478 1.848,-0.478 2.676,0l28.589,16.506c0.828,0.478 1.338,1.362 1.338,2.318l0.001,33.012c0,0.956 -0.51,1.839 -1.338,2.317l-28.587,16.506c-0.828,0.478 -1.848,0.478 -2.676,0l-28.589,-16.506c-0.828,-0.478 -1.338,-1.361 -1.338,-2.317l-0.002,-33.012c0,-0.956 0.51,-1.84 1.338,-2.318l28.588,-16.506Zm0.937,1.624l-28.587,16.506c-0.248,0.143 -0.401,0.408 -0.401,0.694l0.002,33.012c-0,0.286 0.153,0.55 0.4,0.694l28.589,16.506c0.248,0.143 0.554,0.143 0.801,-0l28.588,-16.506c0.248,-0.144 0.4,-0.408 0.4,-0.694l-0.001,-33.012c-0,-0.286 -0.153,-0.551 -0.401,-0.694l-28.589,-16.506c-0.248,-0.143 -0.553,-0.143 -0.801,0Z" style="fill:rgb(169,169,169);"/>
                <ellipse cx="846.272" cy="853.811" rx="17.849" ry="17.848" style="fill:rgb(131,133,136);"/>
            </g>
            <g id="Flat-jack3" serif:id="Flat jack">
                <path d="M845.703,941.461c0.248,-0.143 0.553,-0.143 0.801,-0c3.255,1.879 25.334,14.626 28.589,16.506c0.248,0.143 0.4,0.407 0.4,0.694c0.001,3.758 0.002,29.253 0.002,33.012c-0,0.286 -0.153,0.55 -0.401,0.693c-3.255,1.88 -25.332,14.627 -28.587,16.506c-0.248,0.143 -0.553,0.143 -0.801,0c-3.255,-1.879 -25.334,-14.626 -28.589,-16.506c-0.248,-0.143 -0.401,-0.407 -0.401,-0.693c0,-3.759 -0.001,-29.253 -0.001,-33.012c-0,-0.287 0.153,-0.551 0.401,-0.694c3.255,-1.88 25.332,-14.627 28.587,-16.506Z" style="fill:rgb(213,213,213);"/>
                <path d="M844.765,939.837c0.828,-0.478 1.848,-0.478 2.676,0l28.589,16.506c0.828,0.478 1.338,1.361 1.338,2.317l0.002,33.012c-0,0.957 -0.51,1.84 -1.338,2.318l-28.587,16.506c-0.828,0.478 -1.849,0.478 -2.677,0l-28.588,-16.506c-0.828,-0.478 -1.338,-1.361 -1.339,-2.317l-0.001,-33.012c-0,-0.956 0.51,-1.84 1.338,-2.318l28.587,-16.506Zm0.938,1.624l-28.587,16.506c-0.248,0.143 -0.401,0.407 -0.401,0.694l0.001,33.012c0,0.286 0.153,0.55 0.401,0.693l28.589,16.506c0.248,0.143 0.553,0.143 0.801,0l28.587,-16.506c0.248,-0.143 0.401,-0.407 0.401,-0.693l-0.002,-33.012c0,-0.287 -0.152,-0.551 -0.4,-0.694l-28.589,-16.506c-0.248,-0.143 -0.553,-0.143 -0.801,-0Z" style="fill:rgb(169,169,169);"/>
                <ellipse cx="846.105" cy="975.167" rx="17.849" ry="17.848" style="fill:rgb(131,133,136);"/>
            </g>
            <g id="Flat-jack4" serif:id="Flat jack">
                <path d="M956.452,820.105c0.247,-0.143 0.553,-0.143 0.801,0c3.255,1.88 25.333,14.627 28.589,16.506c0.247,0.143 0.4,0.408 0.4,0.694c0,3.759 0.001,29.253 0.002,33.012c-0,0.286 -0.153,0.55 -0.401,0.694c-3.255,1.879 -25.332,14.626 -28.587,16.506c-0.248,0.143 -0.553,0.143 -0.801,-0c-3.256,-1.88 -25.334,-14.627 -28.589,-16.506c-0.248,-0.144 -0.401,-0.408 -0.401,-0.694c0,-3.759 -0.001,-29.253 -0.001,-33.012c-0,-0.286 0.152,-0.551 0.4,-0.694c3.255,-1.879 25.332,-14.626 28.588,-16.506Z" style="fill:rgb(213,213,213);"/>
                <path d="M955.514,818.481c0.828,-0.478 1.848,-0.478 2.676,0l28.589,16.506c0.828,0.478 1.338,1.362 1.338,2.318l0.002,33.012c-0,0.956 -0.51,1.839 -1.338,2.317l-28.588,16.506c-0.828,0.478 -1.848,0.478 -2.676,0l-28.589,-16.506c-0.828,-0.478 -1.338,-1.361 -1.338,-2.317l-0.001,-33.012c-0,-0.956 0.51,-1.84 1.338,-2.318l28.587,-16.506Zm0.938,1.624l-28.588,16.506c-0.248,0.143 -0.4,0.408 -0.4,0.694l0.001,33.012c0,0.286 0.153,0.55 0.401,0.694l28.589,16.506c0.248,0.143 0.553,0.143 0.801,-0l28.587,-16.506c0.248,-0.144 0.401,-0.408 0.401,-0.694l-0.002,-33.012c0,-0.286 -0.153,-0.551 -0.4,-0.694l-28.589,-16.506c-0.248,-0.143 -0.554,-0.143 -0.801,0Z" style="fill:rgb(169,169,169);"/>
                <ellipse cx="956.854" cy="853.811" rx="17.849" ry="17.848" style="fill:rgb(131,133,136);"/>
            </g>
            <g id="Flat-jack5" serif:id="Flat jack">
                <path d="M956.284,941.461c0.248,-0.143 0.553,-0.143 0.801,-0c3.256,1.879 25.334,14.626 28.589,16.506c0.248,0.143 0.401,0.407 0.401,0.694c-0,3.758 0.001,29.253 0.001,33.012c0,0.286 -0.152,0.55 -0.4,0.693c-3.255,1.88 -25.332,14.627 -28.588,16.506c-0.247,0.143 -0.553,0.143 -0.801,0c-3.255,-1.879 -25.333,-14.626 -28.589,-16.506c-0.247,-0.143 -0.4,-0.407 -0.4,-0.693c-0,-3.759 -0.001,-29.253 -0.002,-33.012c0,-0.287 0.153,-0.551 0.401,-0.694c3.255,-1.88 25.332,-14.627 28.587,-16.506Z" style="fill:rgb(213,213,213);"/>
                <path d="M955.347,939.837c0.828,-0.478 1.848,-0.478 2.676,0l28.589,16.506c0.828,0.478 1.338,1.361 1.338,2.317l0.001,33.012c0,0.957 -0.51,1.84 -1.338,2.318l-28.587,16.506c-0.828,0.478 -1.848,0.478 -2.676,0l-28.589,-16.506c-0.828,-0.478 -1.338,-1.361 -1.338,-2.317l-0.002,-33.012c0,-0.956 0.51,-1.84 1.338,-2.318l28.588,-16.506Zm0.937,1.624l-28.587,16.506c-0.248,0.143 -0.401,0.407 -0.401,0.694l0.002,33.012c-0,0.286 0.153,0.55 0.4,0.693l28.589,16.506c0.248,0.143 0.554,0.143 0.801,0l28.588,-16.506c0.248,-0.143 0.4,-0.407 0.4,-0.693l-0.001,-33.012c-0,-0.287 -0.153,-0.551 -0.401,-0.694l-28.589,-16.506c-0.248,-0.143 -0.553,-0.143 -0.801,-0Z" style="fill:rgb(169,169,169);"/>
                <ellipse cx="956.686" cy="975.167" rx="17.849" ry="17.848" style="fill:rgb(131,133,136);"/>
            </g>
            <g id="Flat-jack6" serif:id="Flat jack">
                <path d="M1065.83,820.105c0.248,-0.143 0.553,-0.143 0.801,0c3.255,1.88 25.334,14.627 28.589,16.506c0.248,0.143 0.401,0.408 0.401,0.694c-0,3.759 0.001,29.253 0.001,33.012c0,0.286 -0.153,0.55 -0.4,0.694c-3.256,1.879 -25.333,14.626 -28.588,16.506c-0.248,0.143 -0.553,0.143 -0.801,-0c-3.255,-1.88 -25.334,-14.627 -28.589,-16.506c-0.248,-0.144 -0.4,-0.408 -0.4,-0.694c-0.001,-3.759 -0.002,-29.253 -0.002,-33.012c0,-0.286 0.153,-0.551 0.401,-0.694c3.255,-1.879 25.332,-14.626 28.587,-16.506Z" style="fill:rgb(213,213,213);"/>
                <path d="M1064.89,818.481c0.828,-0.478 1.849,-0.478 2.677,0l28.588,16.506c0.828,0.478 1.338,1.362 1.339,2.318l0.001,33.012c0,0.956 -0.51,1.839 -1.338,2.317l-28.587,16.506c-0.828,0.478 -1.848,0.478 -2.676,0l-28.589,-16.506c-0.828,-0.478 -1.338,-1.361 -1.338,-2.317l-0.002,-33.012c0,-0.956 0.51,-1.84 1.338,-2.318l28.587,-16.506Zm0.938,1.624l-28.587,16.506c-0.248,0.143 -0.401,0.408 -0.401,0.694l0.002,33.012c-0,0.286 0.152,0.55 0.4,0.694l28.589,16.506c0.248,0.143 0.553,0.143 0.801,-0l28.588,-16.506c0.247,-0.144 0.4,-0.408 0.4,-0.694l-0.001,-33.012c-0,-0.286 -0.153,-0.551 -0.401,-0.694l-28.589,-16.506c-0.248,-0.143 -0.553,-0.143 -0.801,0Z" style="fill:rgb(169,169,169);"/>
                <ellipse cx="1066.23" cy="853.811" rx="17.849" ry="17.848" style="fill:rgb(131,133,136);"/>
            </g>
            <g id="Flat-jack7" serif:id="Flat jack">
                <path d="M1065.66,941.461c0.247,-0.143 0.553,-0.143 0.801,-0c3.255,1.879 25.333,14.626 28.589,16.506c0.247,0.143 0.4,0.407 0.4,0.694c0,3.758 0.002,29.253 0.002,33.012c-0,0.286 -0.153,0.55 -0.401,0.693c-3.255,1.88 -25.332,14.627 -28.587,16.506c-0.248,0.143 -0.553,0.143 -0.801,0c-3.256,-1.879 -25.334,-14.626 -28.589,-16.506c-0.248,-0.143 -0.401,-0.407 -0.401,-0.693c0,-3.759 -0.001,-29.253 -0.001,-33.012c-0,-0.287 0.152,-0.551 0.4,-0.694c3.255,-1.88 25.332,-14.627 28.588,-16.506Z" style="fill:rgb(213,213,213);"/>
                <path d="M1064.72,939.837c0.828,-0.478 1.848,-0.478 2.676,0l28.589,16.506c0.828,0.478 1.338,1.361 1.338,2.317l0.002,33.012c-0,0.957 -0.51,1.84 -1.338,2.318l-28.588,16.506c-0.828,0.478 -1.848,0.478 -2.676,0l-28.589,-16.506c-0.828,-0.478 -1.338,-1.361 -1.338,-2.317l-0.001,-33.012c-0,-0.956 0.51,-1.84 1.338,-2.318l28.587,-16.506Zm0.938,1.624l-28.588,16.506c-0.248,0.143 -0.4,0.407 -0.4,0.694l0.001,33.012c0,0.286 0.153,0.55 0.401,0.693l28.589,16.506c0.248,0.143 0.553,0.143 0.801,0l28.587,-16.506c0.248,-0.143 0.401,-0.407 0.401,-0.693l-0.002,-33.012c0,-0.287 -0.153,-0.551 -0.4,-0.694l-28.589,-16.506c-0.248,-0.143 -0.554,-0.143 -0.801,-0Z" style="fill:rgb(169,169,169);"/>
                <ellipse cx="1066.06" cy="975.167" rx="17.849" ry="17.848" style="fill:rgb(131,133,136);"/>
            </g>
            <g id="Tall-Trimmer" serif:id="Tall Trimmer">
                <circle cx="738.387" cy="721.528" r="23.953" style="fill:rgb(131,133,136);"/>
                <rect x="736.053" y="697.576" width="4.667" height="12.839" style="fill:white;"/>
            </g>
            <g id="Tall-Trimmer1" serif:id="Tall Trimmer">
                <circle cx="900.833" cy="721.528" r="23.953" style="fill:rgb(131,133,136);"/>
                <rect x="898.5" y="697.576" width="4.667" height="12.839" style="fill:white;"/>
            </g>
            <g id="_1900h" serif:id="1900h">
                <circle cx="751.103" cy="362.542" r="50.7" style="fill:rgb(131,133,136);"/>
                <rect x="749.259" y="317.955" width="3.687" height="35.149" style="fill:white;"/>
            </g>
            <g id="_1900h1" serif:id="1900h">
                <circle cx="852.904" cy="537.325" r="50.7" style="fill:rgb(131,133,136);"/>
                <rect x="851.061" y="492.738" width="3.687" height="35.149" style="fill:white;"/>
            </g>
            <g id="_1900h2" serif:id="1900h">
                <circle cx="1050.36" cy="528.021" r="50.7" style="fill:rgb(131,133,136);"/>
                <rect x="1048.52" y="483.434" width="3.687" height="35.149" style="fill:white;"/>
            </g>
            <g id="Large-MXR" serif:id="Large MXR">
                <circle cx="993.451" cy="277.272" r="99.803" style="fill:rgb(131,133,136);"/>
                <rect x="989.28" y="202.537" width="8.341" height="69.654" style="fill:white;"/>
                <circle cx="993.451" cy="187.04" r="4.171" style="fill:white;"/>
            </g>
            <g id="Tall-Trimmer2" serif:id="Tall Trimmer">
                <circle cx="1063.28" cy="721.528" r="23.953" style="fill:rgb(131,133,136);"/>
                <rect x="1060.95" y="697.576" width="4.667" height="12.839" style="fill:white;"/>
            </g>
        </g>
    </g>
    <circle cx="956.686" cy="975.167" r="48.662" style="fill:none;stroke:rgb(64,140,148);stroke-width:10.42px;"/>
    <circle cx="1066.06" cy="975.167" r="48.662" style="fill:none;stroke:rgb(125,97,186);stroke-width:10.42px;"/>
    <g>
        <rect x="357.246" y="935.313" width="273.863" height="79.707" style="fill:rgb(64,140,148);stroke:rgb(64,140,148);stroke-width:10.42px;"/>
        <path d="M364.8,958.267l6.408,-0l1.1,31.7l0.861,-0l12.864,-31.7l6.6,-0l-0,0.6l-14.443,34.4l-11.764,-0l-1.626,-35Z" style="fill:rgb(244,244,245);fill-rule:nonzero;"/>
        <path d="M417.884,977.767c-0,2.333 -0.319,4.491 -0.957,6.475c-0.637,1.983 -1.578,3.691 -2.821,5.125c-1.244,1.433 -2.798,2.558 -4.663,3.375c-1.865,0.816 -4.025,1.225 -6.48,1.225c-1.403,-0 -2.718,-0.217 -3.946,-0.65c-1.227,-0.434 -2.303,-1.075 -3.228,-1.925c-0.924,-0.85 -1.658,-1.892 -2.2,-3.125c-0.542,-1.234 -0.813,-2.634 -0.813,-4.2c0,-2.567 0.383,-4.859 1.148,-6.875c0.765,-2.017 1.809,-3.725 3.133,-5.125c1.323,-1.4 2.885,-2.467 4.686,-3.2c1.802,-0.734 3.738,-1.1 5.811,-1.1c1.498,-0 2.885,0.241 4.16,0.725c1.276,0.483 2.368,1.158 3.276,2.025c0.909,0.866 1.618,1.916 2.128,3.15c0.511,1.233 0.766,2.6 0.766,4.1Zm-14.013,10.3c1.148,-0.034 2.208,-0.3 3.181,-0.8c0.972,-0.5 1.801,-1.159 2.486,-1.975c0.686,-0.817 1.22,-1.775 1.603,-2.875c0.382,-1.1 0.573,-2.267 0.573,-3.5c0,-1.734 -0.446,-3.042 -1.339,-3.925c-0.892,-0.884 -2.088,-1.325 -3.586,-1.325c-1.148,-0 -2.2,0.258 -3.157,0.775c-0.956,0.516 -1.785,1.2 -2.487,2.05c-0.701,0.85 -1.243,1.825 -1.626,2.925c-0.382,1.1 -0.573,2.25 -0.573,3.45c-0,1.7 0.446,2.991 1.339,3.875c0.892,0.883 2.088,1.325 3.586,1.325Z" style="fill:rgb(244,244,245);fill-rule:nonzero;"/>
        <path d="M438.304,992.667c-0.637,0.466 -1.291,0.8 -1.961,1c-0.669,0.2 -1.323,0.3 -1.96,0.3c-0.702,-0 -1.371,-0.125 -2.009,-0.375c-0.638,-0.25 -1.196,-0.6 -1.674,-1.05c-0.478,-0.45 -0.853,-1 -1.124,-1.65c-0.271,-0.65 -0.406,-1.375 -0.406,-2.175c-0,-0.6 0.064,-1.184 0.191,-1.75l5.213,-22.75l-0.478,-0.35l-6.409,4.6l-3.012,-4.7l6.934,-4.9c0.638,-0.467 1.291,-0.8 1.961,-1c0.669,-0.2 1.323,-0.3 1.96,-0.3c0.702,-0 1.371,0.125 2.009,0.375c0.638,0.25 1.196,0.6 1.674,1.05c0.478,0.45 0.853,1 1.124,1.65c0.271,0.65 0.406,1.375 0.406,2.175c0,0.533 -0.064,1.116 -0.191,1.75l-5.213,22.75l0.478,0.35l6.409,-4.6l3.013,4.7l-6.935,4.9Z" style="fill:rgb(244,244,245);fill-rule:nonzero;"/>
        <path d="M460.399,968.467l-2.966,14.4c-0.127,0.566 -0.191,1.116 -0.191,1.65c0,1.266 0.335,2.208 1.004,2.825c0.67,0.616 1.563,0.925 2.679,0.925c1.689,-0 2.989,-0.575 3.897,-1.725c0.909,-1.15 1.586,-2.775 2.033,-4.875l2.678,-13.2l6.026,-0l-3.922,18.9l0.526,0.3l1.722,-1.3l3.013,4.6l-2.248,1.7c-0.606,0.466 -1.236,0.8 -1.889,1c-0.654,0.2 -1.299,0.3 -1.937,0.3c-1.307,-0 -2.455,-0.392 -3.443,-1.175c-0.989,-0.784 -1.547,-1.925 -1.674,-3.425l-0.861,-0c-0.701,1.7 -1.65,2.891 -2.845,3.575c-1.196,0.683 -2.543,1.025 -4.041,1.025c-2.073,-0 -3.763,-0.659 -5.07,-1.975c-1.307,-1.317 -1.96,-3.159 -1.96,-5.525c-0,-0.834 0.095,-1.734 0.286,-2.7l3.157,-15.3l6.026,-0Z" style="fill:rgb(244,244,245);fill-rule:nonzero;"/>
        <path d="M499.614,975.867c0.063,-0.267 0.095,-0.5 0.095,-0.7c0,-0.934 -0.43,-1.4 -1.291,-1.4c-0.51,-0 -0.893,0.175 -1.148,0.525c-0.255,0.35 -0.43,0.775 -0.526,1.275l-3.634,17.7l-6.026,-0l3.539,-17.4c0.064,-0.334 0.096,-0.567 0.096,-0.7c-0,-0.934 -0.415,-1.4 -1.244,-1.4c-0.924,-0 -1.498,0.6 -1.722,1.8l-3.634,17.7l-5.978,-0l5.021,-24.8l6.026,-0l-0.478,2.4l0.861,-0c0.255,-1.034 0.733,-1.809 1.434,-2.325c0.702,-0.517 1.499,-0.775 2.392,-0.775c1.052,-0 1.849,0.3 2.391,0.9c0.542,0.6 0.893,1.333 1.052,2.2l0.861,-0c0.35,-0.9 0.884,-1.642 1.602,-2.225c0.717,-0.584 1.65,-0.875 2.797,-0.875c1.34,-0 2.368,0.45 3.085,1.35c0.717,0.9 1.076,1.983 1.076,3.25c0,0.233 -0.008,0.441 -0.024,0.625c-0.016,0.183 -0.056,0.408 -0.119,0.675l-2.822,13.65l0.478,0.35l1.626,-1.2l3.013,4.7l-2.152,1.5c-0.638,0.466 -1.283,0.8 -1.937,1c-0.653,0.2 -1.299,0.3 -1.937,0.3c-0.701,-0 -1.363,-0.125 -1.984,-0.375c-0.622,-0.25 -1.172,-0.609 -1.65,-1.075c-0.478,-0.467 -0.853,-1.042 -1.124,-1.725c-0.271,-0.684 -0.406,-1.459 -0.406,-2.325c-0,-0.467 0.063,-1.034 0.191,-1.7l2.2,-10.9Z" style="fill:rgb(244,244,245);fill-rule:nonzero;"/>
        <path d="M516.161,982.917c-0.064,0.266 -0.096,0.55 -0.096,0.85c-0,1.2 0.438,2.2 1.315,3c0.877,0.8 2.033,1.2 3.467,1.2c1.499,-0 2.694,-0.284 3.587,-0.85c0.893,-0.567 1.578,-1.234 2.056,-2l4.783,3.15c-0.383,0.666 -0.885,1.333 -1.507,2c-0.621,0.666 -1.387,1.275 -2.295,1.825c-0.909,0.55 -1.977,1 -3.204,1.35c-1.228,0.35 -2.655,0.525 -4.281,0.525c-1.466,-0 -2.813,-0.242 -4.041,-0.725c-1.227,-0.484 -2.279,-1.15 -3.156,-2c-0.877,-0.85 -1.562,-1.867 -2.056,-3.05c-0.495,-1.184 -0.742,-2.492 -0.742,-3.925c0,-2.267 0.327,-4.4 0.981,-6.4c0.653,-2 1.602,-3.75 2.845,-5.25c1.244,-1.5 2.774,-2.684 4.591,-3.55c1.818,-0.867 3.906,-1.3 6.265,-1.3c1.658,-0 3.101,0.275 4.328,0.825c1.228,0.55 2.24,1.283 3.037,2.2c0.797,0.916 1.395,1.958 1.793,3.125c0.399,1.166 0.598,2.366 0.598,3.6c0,0.4 -0.024,0.808 -0.072,1.225c-0.048,0.416 -0.135,0.958 -0.263,1.625l-0.526,2.55l-17.407,-0Zm7.556,-9.45c-1.499,-0 -2.798,0.391 -3.898,1.175c-1.1,0.783 -1.921,1.741 -2.463,2.875l11.191,-0c-0,-1.267 -0.375,-2.259 -1.124,-2.975c-0.749,-0.717 -1.985,-1.075 -3.706,-1.075Z" style="fill:rgb(244,244,245);fill-rule:nonzero;"/>
        <path d="M579,987.967c1.18,-0 2.192,-0.2 3.037,-0.6c0.845,-0.4 1.554,-0.925 2.128,-1.575c0.574,-0.65 1.029,-1.4 1.363,-2.25c0.335,-0.85 0.598,-1.709 0.789,-2.575l0.192,-0.9l6.312,-0l-0.191,0.9c-0.446,2.166 -1.052,4.058 -1.817,5.675c-0.765,1.616 -1.738,2.966 -2.917,4.05c-1.18,1.083 -2.583,1.9 -4.209,2.45c-1.626,0.55 -3.539,0.825 -5.739,0.825c-1.498,-0 -2.869,-0.234 -4.113,-0.7c-1.243,-0.467 -2.311,-1.15 -3.204,-2.05c-0.892,-0.9 -1.586,-1.992 -2.08,-3.275c-0.494,-1.284 -0.741,-2.759 -0.741,-4.425c-0,-0.6 0.032,-1.2 0.095,-1.8c0.064,-0.6 0.176,-1.284 0.335,-2.05l1.578,-7.8c0.989,-4.834 2.742,-8.425 5.261,-10.775c2.519,-2.35 5.802,-3.525 9.851,-3.525c1.595,-0 3.021,0.266 4.281,0.8c1.259,0.533 2.327,1.258 3.204,2.175c0.877,0.916 1.546,1.991 2.008,3.225c0.463,1.233 0.694,2.55 0.694,3.95c-0,0.466 -0.032,0.933 -0.096,1.4c-0.064,0.466 -0.143,0.95 -0.239,1.45l-0.191,0.9l-6.313,-0l0.191,-0.9c0.192,-0.8 0.287,-1.567 0.287,-2.3c0,-1.3 -0.358,-2.409 -1.076,-3.325c-0.717,-0.917 -1.968,-1.375 -3.754,-1.375c-1.052,-0 -2.008,0.208 -2.869,0.625c-0.861,0.416 -1.61,0.983 -2.248,1.7c-0.638,0.716 -1.172,1.55 -1.602,2.5c-0.43,0.95 -0.757,1.941 -0.98,2.975l-1.77,8.8c-0.095,0.5 -0.175,0.991 -0.239,1.475c-0.064,0.483 -0.096,0.941 -0.096,1.375c0,1.5 0.375,2.7 1.124,3.6c0.749,0.9 2.001,1.35 3.754,1.35Z" style="fill:rgb(244,244,245);fill-rule:nonzero;"/>
        <path d="M598.943,958.267l6.408,-0l1.1,31.7l0.861,-0l12.864,-31.7l6.6,-0l-0,0.6l-14.443,34.4l-11.764,-0l-1.626,-35Z" style="fill:rgb(244,244,245);fill-rule:nonzero;"/>
    </g>
    <g>
        <rect x="1167.15" y="935.313" width="204.743" height="79.707" style="fill:rgb(125,97,186);stroke:rgb(125,97,186);stroke-width:10.42px;"/>
        <path d="M1183.9,971.867c0.988,-4.934 2.638,-8.55 4.95,-10.85c2.311,-2.3 5.491,-3.45 9.541,-3.45c1.689,-0 3.188,0.275 4.495,0.825c1.307,0.55 2.407,1.316 3.3,2.3c0.892,0.983 1.57,2.141 2.032,3.475c0.463,1.333 0.694,2.766 0.694,4.3c-0,0.566 -0.024,1.133 -0.072,1.7c-0.048,0.566 -0.136,1.133 -0.263,1.7l-1.578,7.8c-0.989,4.933 -2.639,8.55 -4.95,10.85c-2.311,2.3 -5.492,3.45 -9.541,3.45c-1.69,-0 -3.188,-0.275 -4.495,-0.825c-1.307,-0.55 -2.407,-1.317 -3.3,-2.3c-0.893,-0.984 -1.57,-2.134 -2.032,-3.45c-0.463,-1.317 -0.694,-2.759 -0.694,-4.325c0,-0.567 0.024,-1.134 0.072,-1.7c0.048,-0.567 0.135,-1.134 0.263,-1.7l1.578,-7.8Zm9.182,16.1c1.084,-0 2.041,-0.209 2.87,-0.625c0.828,-0.417 1.554,-0.975 2.175,-1.675c0.622,-0.7 1.132,-1.534 1.531,-2.5c0.398,-0.967 0.709,-2 0.932,-3.1l1.77,-8.6c0.095,-0.534 0.167,-0.992 0.215,-1.375c0.048,-0.384 0.072,-0.759 0.072,-1.125c-0,-1.7 -0.423,-3.025 -1.268,-3.975c-0.844,-0.95 -2.032,-1.425 -3.562,-1.425c-1.084,-0 -2.041,0.208 -2.87,0.625c-0.829,0.416 -1.554,0.975 -2.176,1.675c-0.621,0.7 -1.132,1.533 -1.53,2.5c-0.399,0.966 -0.709,2 -0.933,3.1l-1.769,8.6c-0.191,0.9 -0.287,1.733 -0.287,2.5c-0,1.7 0.422,3.025 1.267,3.975c0.845,0.95 2.033,1.425 3.563,1.425Z" style="fill:rgb(244,244,245);fill-rule:nonzero;"/>
        <path d="M1220.73,968.467l-2.965,14.4c-0.128,0.566 -0.191,1.116 -0.191,1.65c-0,1.266 0.334,2.208 1.004,2.825c0.669,0.616 1.562,0.925 2.678,0.925c1.69,-0 2.989,-0.575 3.898,-1.725c0.908,-1.15 1.586,-2.775 2.032,-4.875l2.678,-13.2l6.026,-0l-3.922,18.9l0.527,0.3l1.721,-1.3l3.013,4.6l-2.248,1.7c-0.605,0.466 -1.235,0.8 -1.889,1c-0.653,0.2 -1.299,0.3 -1.937,0.3c-1.307,-0 -2.454,-0.392 -3.443,-1.175c-0.988,-0.784 -1.546,-1.925 -1.674,-3.425l-0.86,-0c-0.702,1.7 -1.65,2.891 -2.846,3.575c-1.195,0.683 -2.543,1.025 -4.041,1.025c-2.072,-0 -3.762,-0.659 -5.069,-1.975c-1.307,-1.317 -1.961,-3.159 -1.961,-5.525c-0,-0.834 0.096,-1.734 0.287,-2.7l3.156,-15.3l6.026,-0Z" style="fill:rgb(244,244,245);fill-rule:nonzero;"/>
        <path d="M1249.76,974.467l-6.695,-0l-0,-6l7.938,-0l2.2,-10.9l6.026,-0l-2.2,10.9l8.226,-0l-0,6l-9.469,-0l-2.679,12.85l0.479,0.35l6.408,-4.6l3.013,4.7l-6.935,4.9c-1.211,0.866 -2.502,1.3 -3.873,1.3c-0.702,-0 -1.371,-0.125 -2.009,-0.375c-0.637,-0.25 -1.195,-0.609 -1.674,-1.075c-0.478,-0.467 -0.86,-1.034 -1.147,-1.7c-0.287,-0.667 -0.431,-1.417 -0.431,-2.25c0,-0.267 0.016,-0.509 0.048,-0.725c0.032,-0.217 0.08,-0.509 0.143,-0.875l2.631,-12.5Z" style="fill:rgb(244,244,245);fill-rule:nonzero;"/>
        <path d="M1274.39,1003.27l-6.026,-0l5.882,-28.85l-0.478,-0.35l-2.2,1.7l-3.108,-4.5l2.582,-2c0.67,-0.5 1.363,-0.875 2.08,-1.125c0.718,-0.25 1.411,-0.375 2.081,-0.375c1.275,-0 2.391,0.383 3.347,1.15c0.957,0.766 1.547,1.816 1.77,3.15l0.861,-0c1.562,-2.867 4.112,-4.3 7.651,-4.3c1.084,-0 2.121,0.216 3.109,0.65c0.988,0.433 1.857,1.066 2.606,1.9c0.75,0.833 1.339,1.858 1.77,3.075c0.43,1.216 0.645,2.608 0.645,4.175c0,1.966 -0.231,3.933 -0.693,5.9c-0.462,1.966 -1.188,3.725 -2.176,5.275c-0.988,1.55 -2.256,2.808 -3.802,3.775c-1.546,0.966 -3.403,1.45 -5.571,1.45c-1.021,-0 -1.913,-0.125 -2.678,-0.375c-0.766,-0.25 -1.419,-0.575 -1.961,-0.975c-0.542,-0.4 -0.989,-0.859 -1.339,-1.375c-0.351,-0.517 -0.59,-1.042 -0.718,-1.575l-0.86,-0l-2.774,13.6Zm9.182,-15.3c1.179,-0 2.216,-0.225 3.108,-0.675c0.893,-0.45 1.634,-1.075 2.224,-1.875c0.59,-0.8 1.028,-1.75 1.315,-2.85c0.287,-1.1 0.431,-2.3 0.431,-3.6c-0,-1.4 -0.431,-2.617 -1.292,-3.65c-0.86,-1.034 -2.056,-1.55 -3.586,-1.55c-1.084,-0 -2.057,0.225 -2.917,0.675c-0.861,0.45 -1.595,1.075 -2.2,1.875c-0.606,0.8 -1.076,1.75 -1.411,2.85c-0.335,1.1 -0.502,2.3 -0.502,3.6c-0,1.566 0.43,2.825 1.291,3.775c0.861,0.95 2.04,1.425 3.539,1.425Z" style="fill:rgb(244,244,245);fill-rule:nonzero;"/>
        <path d="M1308.53,968.467l-2.965,14.4c-0.128,0.566 -0.192,1.116 -0.192,1.65c0,1.266 0.335,2.208 1.005,2.825c0.669,0.616 1.562,0.925 2.678,0.925c1.689,-0 2.989,-0.575 3.897,-1.725c0.909,-1.15 1.586,-2.775 2.033,-4.875l2.678,-13.2l6.026,-0l-3.922,18.9l0.526,0.3l1.722,-1.3l3.013,4.6l-2.248,1.7c-0.606,0.466 -1.235,0.8 -1.889,1c-0.654,0.2 -1.299,0.3 -1.937,0.3c-1.307,-0 -2.455,-0.392 -3.443,-1.175c-0.989,-0.784 -1.546,-1.925 -1.674,-3.425l-0.861,-0c-0.701,1.7 -1.65,2.891 -2.845,3.575c-1.196,0.683 -2.543,1.025 -4.041,1.025c-2.073,-0 -3.762,-0.659 -5.07,-1.975c-1.307,-1.317 -1.96,-3.159 -1.96,-5.525c-0,-0.834 0.095,-1.734 0.287,-2.7l3.156,-15.3l6.026,-0Z" style="fill:rgb(244,244,245);fill-rule:nonzero;"/>
        <path d="M1337.56,974.467l-6.695,-0l0,-6l7.939,-0l2.2,-10.9l6.025,-0l-2.199,10.9l8.225,-0l0,6l-9.469,-0l-2.678,12.85l0.478,0.35l6.409,-4.6l3.012,4.7l-6.934,4.9c-1.211,0.866 -2.503,1.3 -3.874,1.3c-0.701,-0 -1.371,-0.125 -2.008,-0.375c-0.638,-0.25 -1.196,-0.609 -1.674,-1.075c-0.478,-0.467 -0.861,-1.034 -1.148,-1.7c-0.287,-0.667 -0.43,-1.417 -0.43,-2.25c-0,-0.267 0.016,-0.509 0.048,-0.725c0.032,-0.217 0.079,-0.509 0.143,-0.875l2.63,-12.5Z" style="fill:rgb(244,244,245);fill-rule:nonzero;"/>
    </g>
    <path d="M562.657,1043.55c0,-0.756 0.266,-1.411 0.797,-1.967c0.532,-0.556 1.159,-0.833 1.881,-0.833c0.723,-0 1.35,0.277 1.882,0.833c0.531,0.556 0.797,1.211 0.797,1.967c-0,0.755 -0.266,1.411 -0.797,1.966c-0.532,0.556 -1.159,0.834 -1.882,0.834c-0.722,-0 -1.349,-0.278 -1.881,-0.834c-0.531,-0.555 -0.797,-1.211 -0.797,-1.966Zm-5.037,-2.6c0.659,-3.289 1.796,-5.7 3.411,-7.234c1.616,-1.533 3.784,-2.3 6.504,-2.3c1.063,0 2.014,0.189 2.854,0.567c0.839,0.378 1.546,0.894 2.12,1.55c0.574,0.656 1.015,1.428 1.323,2.317c0.308,0.889 0.462,1.844 0.462,2.866c0,0.778 -0.074,1.523 -0.223,2.234l-1.052,5.2c-0.659,3.289 -1.796,5.7 -3.411,7.233c-1.616,1.533 -3.784,2.3 -6.504,2.3c-1.063,0 -2.014,-0.189 -2.854,-0.567c-0.839,-0.377 -1.546,-0.894 -2.12,-1.55c-0.574,-0.655 -1.015,-1.427 -1.323,-2.316c-0.308,-0.889 -0.462,-1.845 -0.462,-2.867c-0,-0.778 0.074,-1.522 0.223,-2.233l1.052,-5.2Zm6.121,10.733c1.403,0 2.503,-0.467 3.3,-1.4c0.797,-0.933 1.345,-2.133 1.642,-3.6l1.243,-6c0.128,-0.6 0.192,-1.167 0.192,-1.7c-0,-1.089 -0.266,-1.956 -0.797,-2.6c-0.532,-0.644 -1.339,-0.967 -2.423,-0.967c-1.403,0 -2.503,0.467 -3.3,1.4c-0.797,0.934 -1.344,2.134 -1.642,3.6l-1.243,6c-0.128,0.6 -0.192,1.167 -0.192,1.7c0,1.089 0.266,1.956 0.797,2.6c0.532,0.645 1.339,0.967 2.423,0.967Z" style="fill:rgb(35,31,32);fill-rule:nonzero;"/>
    <path d="M593.806,1040.21l0,6.667l-5.005,5.2l-2.583,-2.7l3.093,-3.233l2.2,-0.934l-0.223,-0.566l-1.977,0.8l-13.486,-0l-0,-3.8l13.486,-0l1.977,0.8l0.223,-0.567l-2.2,-0.933l-3.093,-3.234l2.583,-2.7l5.005,5.2Z" style="fill:rgb(35,31,32);fill-rule:nonzero;"/>
    <path d="M596.134,1044.82l2.614,-12.933l14.283,0l0,4.2l-10.903,0l-1.308,6.333l0.574,0c0.468,-0.977 1.116,-1.755 1.945,-2.333c0.829,-0.578 1.934,-0.867 3.316,-0.867c0.85,0 1.626,0.156 2.327,0.467c0.702,0.311 1.307,0.75 1.817,1.317c0.511,0.566 0.904,1.261 1.18,2.083c0.276,0.822 0.415,1.744 0.415,2.767c-0,1.333 -0.218,2.6 -0.654,3.8c-0.436,1.2 -1.068,2.244 -1.897,3.133c-0.829,0.889 -1.854,1.594 -3.077,2.117c-1.222,0.522 -2.619,0.783 -4.192,0.783c-1.148,0 -2.189,-0.156 -3.125,-0.467c-0.935,-0.311 -1.732,-0.744 -2.391,-1.3c-0.659,-0.555 -1.169,-1.227 -1.53,-2.016c-0.361,-0.789 -0.542,-1.65 -0.542,-2.584c-0,-0.444 0.053,-0.944 0.159,-1.5l0.16,-0.8l4.208,0l-0.095,0.467c-0.043,0.222 -0.075,0.394 -0.096,0.517c-0.021,0.122 -0.032,0.272 -0.032,0.45c0,0.889 0.319,1.616 0.956,2.183c0.638,0.567 1.626,0.85 2.966,0.85c0.701,0 1.349,-0.122 1.944,-0.367c0.595,-0.244 1.106,-0.583 1.531,-1.016c0.425,-0.434 0.754,-0.939 0.988,-1.517c0.234,-0.578 0.351,-1.211 0.351,-1.9c-0,-1.178 -0.255,-2.017 -0.765,-2.517c-0.511,-0.5 -1.148,-0.75 -1.913,-0.75c-0.617,0 -1.111,0.139 -1.483,0.417c-0.372,0.278 -0.653,0.606 -0.845,0.983l-6.886,0Z" style="fill:rgb(35,31,32);fill-rule:nonzero;"/>
    <path d="M615.996,1031.88l4.273,0l0.733,21.133l0.574,0l8.576,-21.133l4.4,0l-0,0.4l-9.629,22.933l-7.843,0l-1.084,-23.333Z" style="fill:rgb(35,31,32);fill-rule:nonzero;"/>
</svg>
