<?xml version="1.0" encoding="UTF-8" standalone="no"?>
<!DOCTYPE svg PUBLIC "-//W3C//DTD SVG 1.1//EN" "http://www.w3.org/Graphics/SVG/1.1/DTD/svg11.dtd">
<svg width="100%" height="100%" viewBox="0 0 1801 1201" version="1.1" xmlns="http://www.w3.org/2000/svg" xmlns:xlink="http://www.w3.org/1999/xlink" xml:space="preserve" xmlns:serif="http://www.serif.com/" style="fill-rule:evenodd;clip-rule:evenodd;stroke-linecap:round;stroke-linejoin:round;stroke-miterlimit:1.5;">
    <rect id="Patch---self-oscillation" serif:id="Patch - self-oscillation" x="0.409" y="0.447" width="1800" height="1200" style="fill:none;"/>
    <clipPath id="_clip1">
        <rect x="0.409" y="0.447" width="1800" height="1200"/>
    </clipPath>
    <g clip-path="url(#_clip1)">
        <g id="Base">
            <g id="Faceplate">
                <g>
                    <rect id="Outline" x="658.486" y="87.458" width="483.847" height="1025.98" style="fill:none;stroke:rgb(12,12,12);stroke-width:4.17px;"/>
                    <g id="Holes">
                        <path d="M734.336,111.33c0,-7.117 -5.777,-12.894 -12.894,-12.894l-6.149,-0c-7.116,-0 -12.894,5.777 -12.894,12.894l0,0.161c0,7.116 5.778,12.894 12.894,12.894l6.149,-0c7.117,-0 12.894,-5.778 12.894,-12.894l0,-0.161Z" style="fill:rgb(213,213,213);"/>
                        <path d="M734.336,1089.4c0,-7.117 -5.777,-12.894 -12.894,-12.894l-6.149,-0c-7.116,-0 -12.894,5.777 -12.894,12.894l0,0.161c0,7.116 5.778,12.894 12.894,12.894l6.149,-0c7.117,-0 12.894,-5.778 12.894,-12.894l0,-0.161Z" style="fill:rgb(213,213,213);"/>
                        <path d="M1099.38,111.33c0,-7.117 -5.777,-12.894 -12.894,-12.894l-6.149,-0c-7.116,-0 -12.894,5.777 -12.894,12.894l0,0.161c0,7.116 5.778,12.894 12.894,12.894l6.149,-0c7.117,-0 12.894,-5.778 12.894,-12.894l0,-0.161Z" style="fill:rgb(213,213,213);"/>
                        <path d="M1099.38,1089.4c0,-7.117 -5.777,-12.894 -12.894,-12.894l-6.149,-0c-7.116,-0 -12.894,5.777 -12.894,12.894l0,0.161c0,7.116 5.778,12.894 12.894,12.894l6.149,-0c7.117,-0 12.894,-5.778 12.894,-12.894l0,-0.161Z" style="fill:rgb(213,213,213);"/>
                    </g>
                </g>
            </g>
            <g id="labels">
                <path d="M726.04,1044.28c-0.451,0.316 -0.913,0.541 -1.386,0.676c-0.473,0.135 -0.935,0.203 -1.386,0.203c-0.495,-0 -0.968,-0.085 -1.419,-0.254c-0.451,-0.169 -0.845,-0.405 -1.183,-0.709c-0.338,-0.305 -0.603,-0.676 -0.794,-1.116c-0.192,-0.439 -0.288,-0.929 -0.288,-1.47c0,-0.406 0.045,-0.8 0.135,-1.183l3.685,-15.379l-0.338,-0.237l-4.53,3.11l-2.129,-3.177l4.901,-3.313c0.451,-0.315 0.913,-0.541 1.386,-0.676c0.473,-0.135 0.935,-0.203 1.386,-0.203c0.495,0 0.969,0.085 1.419,0.254c0.451,0.169 0.845,0.406 1.183,0.71c0.338,0.304 0.603,0.676 0.795,1.115c0.191,0.44 0.287,0.93 0.287,1.47c-0,0.361 -0.045,0.755 -0.135,1.183l-3.685,15.379l0.338,0.237l4.53,-3.11l2.129,3.178l-4.901,3.312Z" style="fill:rgb(131,133,136);fill-rule:nonzero;"/>
                <path d="M738.208,1051.44l-4.259,-0l4.158,-19.503l-0.338,-0.237l-1.555,1.15l-2.197,-3.042l1.825,-1.352c0.473,-0.338 0.963,-0.592 1.47,-0.761c0.507,-0.169 0.997,-0.253 1.471,-0.253c0.901,-0 1.69,0.259 2.366,0.777c0.676,0.518 1.093,1.228 1.25,2.129l0.609,0c1.104,-1.937 2.907,-2.906 5.408,-2.906c0.766,-0 1.498,0.146 2.197,0.439c0.698,0.293 1.312,0.721 1.842,1.284c0.529,0.564 0.946,1.257 1.25,2.079c0.305,0.823 0.457,1.763 0.457,2.822c-0,1.33 -0.164,2.659 -0.49,3.989c-0.327,1.329 -0.84,2.518 -1.538,3.566c-0.699,1.048 -1.595,1.898 -2.687,2.552c-1.093,0.653 -2.406,0.98 -3.938,0.98c-0.721,-0 -1.352,-0.085 -1.893,-0.254c-0.541,-0.169 -1.003,-0.388 -1.386,-0.659c-0.383,-0.27 -0.698,-0.58 -0.946,-0.929c-0.248,-0.35 -0.417,-0.704 -0.507,-1.065l-0.608,0l-1.961,9.194Zm6.49,-10.343c0.833,-0 1.566,-0.152 2.197,-0.456c0.631,-0.305 1.155,-0.727 1.571,-1.268c0.417,-0.541 0.727,-1.183 0.93,-1.927c0.203,-0.743 0.304,-1.554 0.304,-2.433c0,-0.947 -0.304,-1.769 -0.912,-2.468c-0.609,-0.698 -1.454,-1.047 -2.535,-1.047c-0.767,-0 -1.454,0.152 -2.062,0.456c-0.609,0.304 -1.127,0.727 -1.555,1.267c-0.428,0.541 -0.761,1.183 -0.997,1.927c-0.237,0.744 -0.355,1.555 -0.355,2.434c-0,1.059 0.304,1.909 0.913,2.552c0.608,0.642 1.442,0.963 2.501,0.963Z" style="fill:rgb(131,133,136);fill-rule:nonzero;"/>
                <path d="M700.47,910.355l-0.338,-0.203l-2.67,1.961l-2.264,-3.042l2.704,-2.028c0.518,-0.383 1.064,-0.671 1.639,-0.862c0.574,-0.192 1.121,-0.288 1.639,-0.288c0.901,0 1.69,0.248 2.366,0.744c0.676,0.496 1.082,1.194 1.217,2.096l0.608,-0c0.451,-0.947 1.082,-1.657 1.893,-2.13c0.811,-0.473 1.724,-0.71 2.738,-0.71c1.284,0 2.327,0.4 3.126,1.2c0.8,0.8 1.2,1.91 1.2,3.33c0,0.293 -0.017,0.58 -0.05,0.862c-0.034,0.281 -0.096,0.625 -0.186,1.03l-0.169,0.744l-4.529,0.338l0.101,-0.473c0.068,-0.338 0.101,-0.642 0.101,-0.913c0,-0.653 -0.18,-1.171 -0.54,-1.555c-0.361,-0.383 -0.902,-0.574 -1.623,-0.574c-0.901,-0 -1.617,0.304 -2.146,0.912c-0.53,0.609 -0.918,1.476 -1.166,2.603l-1.217,5.678l4.056,0l-0,4.056l-11.56,0l0,-4.056l3.245,0l1.825,-8.72Z" style="fill:rgb(131,133,136);fill-rule:nonzero;"/>
                <path d="M720.717,916.135c-0.046,0.18 -0.068,0.372 -0.068,0.574c-0,0.812 0.31,1.488 0.929,2.028c0.62,0.541 1.437,0.812 2.451,0.812c1.059,-0 1.904,-0.192 2.535,-0.575c0.631,-0.383 1.115,-0.834 1.453,-1.352l3.38,2.129c-0.27,0.451 -0.625,0.902 -1.064,1.352c-0.44,0.451 -0.981,0.862 -1.623,1.234c-0.642,0.372 -1.397,0.676 -2.264,0.913c-0.868,0.236 -1.876,0.355 -3.025,0.355c-1.037,-0 -1.989,-0.164 -2.857,-0.49c-0.867,-0.327 -1.611,-0.778 -2.23,-1.352c-0.62,-0.575 -1.104,-1.262 -1.454,-2.062c-0.349,-0.8 -0.524,-1.685 -0.524,-2.654c0,-1.532 0.231,-2.974 0.693,-4.326c0.462,-1.352 1.133,-2.535 2.011,-3.549c0.879,-1.014 1.961,-1.814 3.245,-2.4c1.285,-0.586 2.761,-0.879 4.428,-0.879c1.172,0 2.191,0.186 3.059,0.558c0.867,0.372 1.583,0.868 2.146,1.487c0.564,0.62 0.986,1.324 1.268,2.113c0.281,0.789 0.422,1.6 0.422,2.433c0,0.271 -0.017,0.547 -0.051,0.829c-0.033,0.281 -0.095,0.647 -0.185,1.098l-0.372,1.724l-12.303,-0Zm5.34,-6.388c-1.059,-0 -1.977,0.264 -2.755,0.794c-0.777,0.53 -1.357,1.177 -1.74,1.943l7.909,0c-0,-0.856 -0.265,-1.526 -0.795,-2.011c-0.529,-0.484 -1.402,-0.726 -2.619,-0.726Z" style="fill:rgb(131,133,136);fill-rule:nonzero;"/>
                <path d="M746.709,909.747c-0.248,-0 -0.502,0.028 -0.761,0.084c-0.259,0.057 -0.501,0.141 -0.726,0.254c-0.226,0.112 -0.412,0.264 -0.558,0.456c-0.147,0.192 -0.22,0.422 -0.22,0.693c0,0.473 0.271,0.822 0.811,1.048c0.541,0.225 1.465,0.417 2.772,0.574c1.465,0.181 2.648,0.626 3.549,1.335c0.901,0.71 1.352,1.73 1.352,3.059c0,1.983 -0.693,3.538 -2.079,4.665c-1.385,1.126 -3.306,1.69 -5.763,1.69c-1.239,-0 -2.304,-0.181 -3.194,-0.541c-0.89,-0.361 -1.622,-0.811 -2.197,-1.352c-0.574,-0.541 -1.008,-1.138 -1.301,-1.792c-0.293,-0.653 -0.451,-1.273 -0.473,-1.859l4.191,-1.014c0.068,0.744 0.383,1.381 0.946,1.91c0.564,0.53 1.42,0.794 2.569,0.794c0.789,0 1.476,-0.123 2.062,-0.371c0.586,-0.248 0.879,-0.688 0.879,-1.319c-0,-0.473 -0.226,-0.85 -0.676,-1.132c-0.451,-0.281 -1.285,-0.479 -2.501,-0.591c-1.623,-0.136 -2.913,-0.597 -3.87,-1.386c-0.958,-0.789 -1.437,-1.837 -1.437,-3.144c0,-0.946 0.197,-1.791 0.592,-2.535c0.394,-0.743 0.918,-1.363 1.571,-1.859c0.654,-0.495 1.414,-0.873 2.282,-1.132c0.867,-0.259 1.774,-0.389 2.721,-0.389c1.171,0 2.152,0.158 2.94,0.474c0.789,0.315 1.431,0.709 1.927,1.183c0.496,0.473 0.862,0.985 1.098,1.538c0.237,0.552 0.389,1.064 0.457,1.537l-4.124,1.082c-0.09,-0.608 -0.372,-1.087 -0.845,-1.436c-0.473,-0.35 -1.138,-0.524 -1.994,-0.524Z" style="fill:rgb(131,133,136);fill-rule:nonzero;"/>
                <path d="M775.371,912.653c0,1.578 -0.225,3.037 -0.676,4.378c-0.45,1.34 -1.115,2.495 -1.994,3.464c-0.879,0.969 -1.977,1.73 -3.295,2.282c-1.319,0.552 -2.845,0.828 -4.58,0.828c-0.992,-0 -1.921,-0.147 -2.789,-0.44c-0.867,-0.293 -1.628,-0.726 -2.281,-1.301c-0.654,-0.575 -1.172,-1.279 -1.555,-2.113c-0.383,-0.833 -0.575,-1.78 -0.575,-2.839c0,-1.735 0.271,-3.284 0.811,-4.647c0.541,-1.363 1.279,-2.518 2.214,-3.465c0.935,-0.946 2.04,-1.667 3.313,-2.163c1.273,-0.496 2.642,-0.744 4.106,-0.744c1.06,0 2.04,0.164 2.941,0.491c0.901,0.326 1.673,0.783 2.315,1.368c0.643,0.586 1.144,1.296 1.504,2.13c0.361,0.834 0.541,1.757 0.541,2.771Zm-9.903,6.963c0.811,-0.022 1.56,-0.203 2.248,-0.541c0.687,-0.338 1.273,-0.783 1.757,-1.335c0.485,-0.552 0.862,-1.2 1.132,-1.943c0.271,-0.744 0.406,-1.532 0.406,-2.366c0,-1.172 -0.315,-2.056 -0.946,-2.653c-0.631,-0.598 -1.476,-0.896 -2.535,-0.896c-0.812,-0 -1.555,0.175 -2.231,0.524c-0.676,0.349 -1.262,0.811 -1.758,1.386c-0.495,0.574 -0.879,1.233 -1.149,1.977c-0.27,0.743 -0.406,1.521 -0.406,2.332c0,1.149 0.316,2.022 0.947,2.62c0.631,0.597 1.476,0.895 2.535,0.895Z" style="fill:rgb(131,133,136);fill-rule:nonzero;"/>
                <path d="M814.922,909.754c-0.248,-0 -0.502,0.028 -0.761,0.084c-0.259,0.057 -0.501,0.141 -0.726,0.254c-0.226,0.113 -0.412,0.265 -0.558,0.456c-0.147,0.192 -0.22,0.423 -0.22,0.693c0,0.473 0.271,0.823 0.811,1.048c0.541,0.225 1.465,0.417 2.772,0.574c1.465,0.181 2.648,0.626 3.549,1.336c0.901,0.709 1.352,1.729 1.352,3.059c0,1.982 -0.693,3.537 -2.079,4.664c-1.385,1.127 -3.306,1.69 -5.763,1.69c-1.239,-0 -2.304,-0.18 -3.194,-0.541c-0.89,-0.36 -1.622,-0.811 -2.197,-1.352c-0.574,-0.541 -1.008,-1.138 -1.301,-1.791c-0.293,-0.654 -0.451,-1.273 -0.473,-1.859l4.191,-1.014c0.068,0.743 0.383,1.38 0.946,1.909c0.564,0.53 1.42,0.795 2.569,0.795c0.789,-0 1.476,-0.124 2.062,-0.372c0.586,-0.248 0.879,-0.687 0.879,-1.318c-0,-0.473 -0.225,-0.851 -0.676,-1.133c-0.451,-0.281 -1.285,-0.478 -2.501,-0.591c-1.623,-0.135 -2.913,-0.597 -3.87,-1.386c-0.958,-0.789 -1.437,-1.836 -1.437,-3.143c0,-0.947 0.197,-1.792 0.592,-2.535c0.394,-0.744 0.918,-1.364 1.571,-1.859c0.654,-0.496 1.414,-0.873 2.282,-1.133c0.867,-0.259 1.774,-0.388 2.721,-0.388c1.171,-0 2.152,0.157 2.94,0.473c0.789,0.315 1.431,0.71 1.927,1.183c0.496,0.473 0.862,0.986 1.098,1.538c0.237,0.552 0.389,1.064 0.457,1.538l-4.124,1.081c-0.09,-0.608 -0.372,-1.087 -0.845,-1.436c-0.473,-0.349 -1.138,-0.524 -1.994,-0.524Z" style="fill:rgb(131,133,136);fill-rule:nonzero;"/>
                <path d="M840.914,919.117l0.338,0.236l1.623,-1.149l2.129,3.177l-1.994,1.352c-0.879,0.586 -1.803,0.879 -2.772,0.879c-0.856,-0 -1.622,-0.237 -2.298,-0.71c-0.676,-0.473 -1.104,-1.138 -1.285,-1.994l-0.608,-0c-0.203,0.383 -0.44,0.738 -0.71,1.065c-0.27,0.326 -0.603,0.608 -0.997,0.845c-0.394,0.236 -0.856,0.428 -1.386,0.574c-0.529,0.147 -1.155,0.22 -1.876,0.22c-0.879,-0 -1.69,-0.175 -2.433,-0.524c-0.744,-0.349 -1.392,-0.834 -1.944,-1.453c-0.552,-0.62 -0.986,-1.347 -1.301,-2.18c-0.316,-0.834 -0.473,-1.747 -0.473,-2.738c-0,-1.51 0.202,-2.918 0.608,-4.225c0.406,-1.307 0.992,-2.451 1.758,-3.431c0.766,-0.98 1.707,-1.752 2.822,-2.315c1.115,-0.564 2.372,-0.845 3.769,-0.845c1.239,-0 2.219,0.248 2.94,0.743c0.721,0.496 1.206,1.149 1.454,1.961l0.608,-0l0.473,-2.231l4.259,-0l-2.704,12.743Zm-8.18,0.439c0.812,-0 1.533,-0.163 2.164,-0.49c0.631,-0.327 1.155,-0.761 1.571,-1.301c0.417,-0.541 0.738,-1.178 0.964,-1.91c0.225,-0.733 0.338,-1.504 0.338,-2.316c-0,-1.059 -0.305,-1.92 -0.913,-2.585c-0.608,-0.665 -1.42,-0.997 -2.434,-0.997c-0.811,-0 -1.532,0.163 -2.163,0.49c-0.631,0.327 -1.16,0.76 -1.588,1.301c-0.428,0.541 -0.755,1.177 -0.981,1.91c-0.225,0.732 -0.338,1.504 -0.338,2.315c0,0.947 0.277,1.78 0.829,2.501c0.552,0.721 1.402,1.082 2.551,1.082Z" style="fill:rgb(131,133,136);fill-rule:nonzero;"/>
                <path d="M858.017,922.733c-0.451,0.316 -0.913,0.541 -1.386,0.676c-0.473,0.135 -0.935,0.203 -1.386,0.203c-0.495,-0 -0.969,-0.085 -1.419,-0.254c-0.451,-0.169 -0.845,-0.405 -1.183,-0.709c-0.338,-0.305 -0.603,-0.676 -0.795,-1.116c-0.191,-0.439 -0.287,-0.929 -0.287,-1.47c0,-0.406 0.045,-0.8 0.135,-1.183l3.685,-15.379l-0.338,-0.237l-4.53,3.11l-2.129,-3.177l4.901,-3.313c0.451,-0.315 0.913,-0.541 1.386,-0.676c0.473,-0.135 0.935,-0.203 1.386,-0.203c0.495,0 0.968,0.085 1.419,0.254c0.451,0.169 0.845,0.406 1.183,0.71c0.338,0.304 0.603,0.676 0.794,1.115c0.192,0.44 0.288,0.93 0.288,1.47c-0,0.361 -0.045,0.755 -0.135,1.183l-3.685,15.38l0.338,0.236l4.53,-3.109l2.129,3.177l-4.901,3.312Z" style="fill:rgb(131,133,136);fill-rule:nonzero;"/>
                <path d="M873.464,910.43l-4.732,-0l-0,-4.056l5.61,-0l1.555,-7.369l4.259,0l-1.555,7.369l5.814,-0l-0,4.056l-6.693,-0l-1.892,8.687l0.338,0.236l4.529,-3.109l2.129,3.177l-4.901,3.312c-0.856,0.586 -1.769,0.879 -2.738,0.879c-0.495,-0 -0.969,-0.085 -1.419,-0.254c-0.451,-0.169 -0.845,-0.411 -1.183,-0.726c-0.338,-0.316 -0.609,-0.699 -0.811,-1.149c-0.203,-0.451 -0.305,-0.958 -0.305,-1.521c0,-0.181 0.012,-0.344 0.034,-0.491c0.023,-0.146 0.057,-0.343 0.102,-0.591l1.859,-8.45Z" style="fill:rgb(131,133,136);fill-rule:nonzero;"/>
                <path d="M821.135,604.354c-0.248,0 -0.501,0.029 -0.761,0.085c-0.259,0.056 -0.501,0.141 -0.726,0.253c-0.226,0.113 -0.412,0.265 -0.558,0.457c-0.146,0.191 -0.22,0.422 -0.22,0.693c0,0.473 0.271,0.822 0.812,1.047c0.54,0.226 1.464,0.417 2.771,0.575c1.465,0.18 2.648,0.625 3.549,1.335c0.901,0.71 1.352,1.73 1.352,3.059c0,1.983 -0.693,3.538 -2.079,4.664c-1.385,1.127 -3.306,1.69 -5.762,1.69c-1.24,0 -2.305,-0.18 -3.195,-0.54c-0.89,-0.361 -1.622,-0.812 -2.197,-1.352c-0.574,-0.541 -1.008,-1.138 -1.301,-1.792c-0.293,-0.653 -0.451,-1.273 -0.473,-1.859l4.191,-1.014c0.068,0.744 0.383,1.38 0.947,1.91c0.563,0.529 1.419,0.794 2.568,0.794c0.789,0 1.476,-0.124 2.062,-0.372c0.586,-0.247 0.879,-0.687 0.879,-1.318c-0,-0.473 -0.225,-0.85 -0.676,-1.132c-0.451,-0.282 -1.284,-0.479 -2.501,-0.592c-1.623,-0.135 -2.913,-0.597 -3.87,-1.385c-0.958,-0.789 -1.437,-1.837 -1.437,-3.144c0,-0.946 0.197,-1.791 0.592,-2.535c0.394,-0.743 0.918,-1.363 1.571,-1.859c0.654,-0.496 1.414,-0.873 2.282,-1.132c0.867,-0.259 1.774,-0.389 2.721,-0.389c1.171,0 2.152,0.158 2.94,0.473c0.789,0.316 1.431,0.71 1.927,1.183c0.496,0.474 0.862,0.986 1.098,1.538c0.237,0.552 0.389,1.065 0.457,1.538l-4.124,1.082c-0.09,-0.609 -0.372,-1.087 -0.845,-1.437c-0.473,-0.349 -1.138,-0.524 -1.994,-0.524Z" style="fill:rgb(131,133,136);fill-rule:nonzero;"/>
                <path d="M847.127,613.717l0.338,0.237l1.623,-1.15l2.129,3.178l-1.994,1.352c-0.879,0.585 -1.803,0.878 -2.772,0.878c-0.856,0 -1.622,-0.236 -2.298,-0.709c-0.676,-0.474 -1.104,-1.138 -1.285,-1.995l-0.608,0c-0.203,0.383 -0.439,0.738 -0.71,1.065c-0.27,0.327 -0.603,0.609 -0.997,0.845c-0.394,0.237 -0.856,0.428 -1.386,0.575c-0.529,0.146 -1.155,0.219 -1.876,0.219c-0.878,0 -1.69,-0.174 -2.433,-0.523c-0.744,-0.35 -1.392,-0.834 -1.944,-1.454c-0.552,-0.62 -0.986,-1.346 -1.301,-2.18c-0.316,-0.834 -0.473,-1.746 -0.473,-2.738c-0,-1.51 0.203,-2.918 0.608,-4.225c0.406,-1.307 0.992,-2.45 1.758,-3.431c0.766,-0.98 1.707,-1.751 2.822,-2.315c1.115,-0.563 2.372,-0.845 3.769,-0.845c1.239,0 2.219,0.248 2.94,0.744c0.721,0.496 1.206,1.149 1.454,1.96l0.608,0l0.473,-2.231l4.259,0l-2.704,12.743Zm-8.179,0.439c0.811,0 1.532,-0.163 2.163,-0.49c0.631,-0.326 1.155,-0.76 1.571,-1.301c0.417,-0.541 0.738,-1.177 0.964,-1.91c0.225,-0.732 0.338,-1.504 0.338,-2.315c-0,-1.059 -0.304,-1.921 -0.913,-2.586c-0.608,-0.664 -1.419,-0.997 -2.433,-0.997c-0.812,0 -1.533,0.164 -2.164,0.49c-0.631,0.327 -1.16,0.761 -1.588,1.302c-0.428,0.54 -0.755,1.177 -0.98,1.909c-0.226,0.733 -0.338,1.504 -0.338,2.316c-0,0.946 0.276,1.78 0.828,2.501c0.552,0.721 1.402,1.081 2.552,1.081Z" style="fill:rgb(131,133,136);fill-rule:nonzero;"/>
                <path d="M864.23,617.334c-0.451,0.315 -0.913,0.54 -1.386,0.676c-0.473,0.135 -0.935,0.202 -1.386,0.202c-0.495,0 -0.969,-0.084 -1.419,-0.253c-0.451,-0.169 -0.845,-0.406 -1.183,-0.71c-0.338,-0.304 -0.603,-0.676 -0.795,-1.115c-0.191,-0.44 -0.287,-0.93 -0.287,-1.471c0,-0.405 0.045,-0.8 0.135,-1.183l3.685,-15.379l-0.338,-0.236l-4.53,3.109l-2.129,-3.177l4.901,-3.312c0.451,-0.316 0.913,-0.541 1.386,-0.676c0.473,-0.135 0.935,-0.203 1.386,-0.203c0.495,-0 0.969,0.084 1.419,0.253c0.451,0.169 0.845,0.406 1.183,0.71c0.338,0.304 0.603,0.676 0.795,1.116c0.191,0.439 0.287,0.929 0.287,1.47c-0,0.361 -0.045,0.755 -0.135,1.183l-3.685,15.379l0.338,0.237l4.53,-3.11l2.129,3.177l-4.901,3.313Z" style="fill:rgb(131,133,136);fill-rule:nonzero;"/>
                <path d="M879.677,605.03l-4.732,0l-0,-4.056l5.61,0l1.555,-7.368l4.259,-0l-1.555,7.368l5.814,0l-0,4.056l-6.693,0l-1.892,8.687l0.338,0.237l4.529,-3.11l2.129,3.177l-4.901,3.313c-0.856,0.585 -1.769,0.878 -2.738,0.878c-0.495,0 -0.968,-0.084 -1.419,-0.253c-0.451,-0.169 -0.845,-0.411 -1.183,-0.727c-0.338,-0.315 -0.609,-0.698 -0.811,-1.149c-0.203,-0.451 -0.305,-0.958 -0.305,-1.521c0,-0.18 0.012,-0.344 0.034,-0.49c0.023,-0.147 0.057,-0.344 0.102,-0.592l1.859,-8.45Z" style="fill:rgb(131,133,136);fill-rule:nonzero;"/>
                <path d="M935.506,910.43l-4.765,-0l-0,-4.056l5.644,-0l0.744,-3.448c0.09,-0.473 0.27,-0.924 0.541,-1.352c0.27,-0.428 0.591,-0.794 0.963,-1.098c0.372,-0.304 0.789,-0.547 1.251,-0.727c0.461,-0.18 0.929,-0.27 1.402,-0.27l5.949,-0l0,4.056l-5.07,-0c-0.608,-0 -0.98,0.338 -1.115,1.014l-0.406,1.825l5.712,-0l0,4.056l-6.591,-0l-3.752,16.765c-0.247,1.104 -0.709,1.898 -1.385,2.383c-0.676,0.484 -1.409,0.726 -2.197,0.726c-0.654,0 -1.29,-0.152 -1.91,-0.456c-0.62,-0.304 -1.099,-0.738 -1.437,-1.301l-2.129,-3.414l3.279,-1.994l1.487,2.569l0.405,-0.068l3.38,-15.21Z" style="fill:rgb(131,133,136);fill-rule:nonzero;"/>
                <path d="M962.682,911.376c0.045,-0.18 0.067,-0.338 0.067,-0.473c0,-0.631 -0.304,-0.946 -0.912,-0.946c-0.361,-0 -0.631,0.118 -0.812,0.355c-0.18,0.236 -0.304,0.523 -0.371,0.861l-2.569,11.966l-4.259,-0l2.501,-11.763c0.045,-0.225 0.068,-0.383 0.068,-0.473c-0,-0.631 -0.293,-0.946 -0.879,-0.946c-0.653,-0 -1.059,0.405 -1.217,1.216l-2.569,11.966l-4.225,-0l3.549,-16.765l4.259,-0l-0.338,1.622l0.609,0c0.18,-0.698 0.518,-1.222 1.014,-1.571c0.495,-0.35 1.059,-0.524 1.69,-0.524c0.743,-0 1.307,0.202 1.69,0.608c0.383,0.406 0.631,0.901 0.743,1.487l0.609,0c0.248,-0.608 0.625,-1.109 1.132,-1.504c0.507,-0.394 1.166,-0.591 1.977,-0.591c0.947,-0 1.673,0.304 2.18,0.912c0.507,0.609 0.761,1.341 0.761,2.197c-0,0.158 -0.006,0.299 -0.017,0.423c-0.011,0.124 -0.039,0.276 -0.084,0.456l-1.995,9.228l0.338,0.236l1.15,-0.811l2.129,3.177l-1.521,1.014c-0.451,0.316 -0.907,0.541 -1.369,0.676c-0.462,0.135 -0.918,0.203 -1.369,0.203c-0.496,-0 -0.963,-0.085 -1.403,-0.254c-0.439,-0.169 -0.828,-0.411 -1.166,-0.726c-0.338,-0.316 -0.602,-0.704 -0.794,-1.166c-0.192,-0.462 -0.287,-0.986 -0.287,-1.572c-0,-0.316 0.045,-0.699 0.135,-1.149l1.555,-7.369Z" style="fill:rgb(131,133,136);fill-rule:nonzero;"/>
                <path d="M975.965,918.88l3.651,-17.171l-0.609,0l-3.954,8.112l-4.462,0l-0,-0.405l5.239,-9.937l8.72,-0l-4.123,19.401l5.847,-0l0,4.259l-17.001,-0l-0,-4.259l6.692,-0Z" style="fill:rgb(131,133,136);fill-rule:nonzero;"/>
                <path d="M1028.83,595.985l-4.766,0l-0,-4.056l5.644,0l0.744,-3.447c0.09,-0.474 0.27,-0.924 0.541,-1.352c0.27,-0.429 0.591,-0.795 0.963,-1.099c0.372,-0.304 0.789,-0.546 1.251,-0.727c0.462,-0.18 0.929,-0.27 1.402,-0.27l5.949,0l0,4.056l-5.07,0c-0.608,0 -0.98,0.338 -1.115,1.014l-0.406,1.825l5.712,0l0,4.056l-6.591,0l-3.751,16.765c-0.248,1.104 -0.71,1.899 -1.386,2.383c-0.676,0.484 -1.409,0.727 -2.197,0.727c-0.654,-0 -1.29,-0.152 -1.91,-0.457c-0.62,-0.304 -1.098,-0.738 -1.436,-1.301l-2.13,-3.414l3.279,-1.994l1.487,2.569l0.406,-0.068l3.38,-15.21Z" style="fill:rgb(131,133,136);fill-rule:nonzero;"/>
                <path d="M1056,596.932c0.045,-0.181 0.067,-0.338 0.067,-0.474c0,-0.63 -0.304,-0.946 -0.912,-0.946c-0.361,0 -0.631,0.118 -0.811,0.355c-0.181,0.237 -0.305,0.524 -0.372,0.862l-2.569,11.965l-4.259,0l2.501,-11.762c0.046,-0.226 0.068,-0.383 0.068,-0.474c0,-0.63 -0.293,-0.946 -0.879,-0.946c-0.653,0 -1.059,0.406 -1.217,1.217l-2.568,11.965l-4.225,0l3.549,-16.765l4.258,0l-0.338,1.623l0.609,-0c0.18,-0.699 0.518,-1.223 1.014,-1.572c0.496,-0.349 1.059,-0.524 1.69,-0.524c0.743,0 1.307,0.203 1.69,0.608c0.383,0.406 0.631,0.902 0.743,1.488l0.609,-0c0.248,-0.609 0.625,-1.11 1.132,-1.504c0.507,-0.395 1.166,-0.592 1.977,-0.592c0.947,0 1.674,0.304 2.181,0.913c0.507,0.608 0.76,1.34 0.76,2.197c0,0.157 -0.006,0.298 -0.017,0.422c-0.011,0.124 -0.039,0.276 -0.084,0.456l-1.995,9.228l0.338,0.236l1.15,-0.811l2.129,3.177l-1.521,1.014c-0.451,0.316 -0.907,0.541 -1.369,0.676c-0.462,0.136 -0.918,0.203 -1.369,0.203c-0.495,0 -0.963,-0.084 -1.402,-0.253c-0.44,-0.169 -0.829,-0.411 -1.167,-0.727c-0.338,-0.315 -0.602,-0.704 -0.794,-1.166c-0.191,-0.462 -0.287,-0.986 -0.287,-1.572c-0,-0.315 0.045,-0.698 0.135,-1.149l1.555,-7.368Z" style="fill:rgb(131,133,136);fill-rule:nonzero;"/>
                <path d="M1069.29,604.435l3.651,-17.17l-0.609,-0l-3.954,8.112l-4.462,-0l0,-0.406l5.239,-9.937l8.721,0l-4.124,19.401l5.847,0l0,4.259l-17.001,0l-0,-4.259l6.692,0Z" style="fill:rgb(131,133,136);fill-rule:nonzero;"/>
                <path d="M1043.41,910.423l-4.765,-0l-0,-4.056l5.644,-0l0.744,-3.448c0.09,-0.473 0.27,-0.924 0.541,-1.352c0.27,-0.428 0.591,-0.794 0.963,-1.098c0.372,-0.305 0.789,-0.547 1.25,-0.727c0.462,-0.18 0.93,-0.271 1.403,-0.271l5.949,0l-0,4.056l-5.07,0c-0.608,0 -0.98,0.338 -1.115,1.014l-0.406,1.826l5.712,-0l0,4.056l-6.591,-0l-3.752,16.765c-0.248,1.104 -0.709,1.898 -1.385,2.382c-0.676,0.485 -1.409,0.727 -2.197,0.727c-0.654,0 -1.29,-0.152 -1.91,-0.456c-0.62,-0.304 -1.099,-0.738 -1.437,-1.301l-2.129,-3.414l3.279,-1.995l1.487,2.569l0.405,-0.067l3.38,-15.21Z" style="fill:rgb(131,133,136);fill-rule:nonzero;"/>
                <path d="M1070.59,911.369c0.045,-0.18 0.067,-0.338 0.067,-0.473c0,-0.631 -0.304,-0.947 -0.912,-0.947c-0.361,0 -0.631,0.119 -0.812,0.355c-0.18,0.237 -0.304,0.524 -0.371,0.862l-2.569,11.965l-4.259,0l2.501,-11.762c0.045,-0.225 0.068,-0.383 0.068,-0.473c-0,-0.631 -0.293,-0.947 -0.879,-0.947c-0.653,0 -1.059,0.406 -1.217,1.217l-2.569,11.965l-4.225,0l3.549,-16.764l4.259,-0l-0.338,1.622l0.609,0c0.18,-0.698 0.518,-1.222 1.014,-1.572c0.495,-0.349 1.059,-0.524 1.69,-0.524c0.743,0 1.307,0.203 1.69,0.609c0.383,0.405 0.631,0.901 0.743,1.487l0.609,0c0.247,-0.608 0.625,-1.11 1.132,-1.504c0.507,-0.394 1.166,-0.592 1.977,-0.592c0.947,0 1.673,0.305 2.18,0.913c0.507,0.608 0.761,1.341 0.761,2.197c-0,0.158 -0.006,0.299 -0.017,0.423c-0.011,0.124 -0.04,0.276 -0.085,0.456l-1.994,9.227l0.338,0.237l1.149,-0.811l2.13,3.177l-1.521,1.014c-0.451,0.315 -0.907,0.541 -1.369,0.676c-0.462,0.135 -0.918,0.203 -1.369,0.203c-0.496,-0 -0.963,-0.085 -1.403,-0.254c-0.439,-0.169 -0.828,-0.411 -1.166,-0.727c-0.338,-0.315 -0.603,-0.704 -0.794,-1.166c-0.192,-0.462 -0.287,-0.985 -0.287,-1.571c-0,-0.316 0.045,-0.699 0.135,-1.15l1.555,-7.368Z" style="fill:rgb(131,133,136);fill-rule:nonzero;"/>
                <path d="M1093.54,918.873l-0,4.258l-17.103,0l0.98,-4.664c0.271,-1.329 0.682,-2.45 1.234,-3.363c0.552,-0.913 1.228,-1.667 2.028,-2.265c0.8,-0.597 1.729,-1.07 2.788,-1.419c1.06,-0.349 2.243,-0.637 3.549,-0.862c0.676,-0.113 1.336,-0.276 1.978,-0.49c0.642,-0.214 1.217,-0.49 1.724,-0.828c0.507,-0.338 0.912,-0.766 1.216,-1.285c0.305,-0.518 0.457,-1.138 0.457,-1.859c-0,-0.856 -0.282,-1.543 -0.845,-2.062c-0.564,-0.518 -1.386,-0.777 -2.468,-0.777c-1.329,0 -2.439,0.389 -3.329,1.166c-0.89,0.778 -1.482,1.854 -1.775,3.228l-0.304,1.487l-4.461,0l0.405,-1.893c0.564,-2.613 1.696,-4.641 3.397,-6.084c1.701,-1.442 3.927,-2.163 6.676,-2.163c1.126,0 2.14,0.175 3.042,0.524c0.901,0.349 1.661,0.823 2.281,1.42c0.62,0.597 1.099,1.29 1.437,2.078c0.338,0.789 0.507,1.612 0.507,2.468c-0,2.456 -0.761,4.411 -2.282,5.864c-1.521,1.454 -3.656,2.473 -6.405,3.059c-1.217,0.248 -2.208,0.507 -2.974,0.777c-0.766,0.271 -1.375,0.564 -1.826,0.879c-0.45,0.316 -0.783,0.671 -0.997,1.065c-0.214,0.394 -0.388,0.839 -0.524,1.335l-0.101,0.406l11.695,-0Z" style="fill:rgb(131,133,136);fill-rule:nonzero;"/>
                <path d="M838.514,1034.95c0.045,-0.248 0.079,-0.445 0.102,-0.591c0.022,-0.147 0.034,-0.31 0.034,-0.49c-0,-0.812 -0.237,-1.443 -0.71,-1.893c-0.474,-0.451 -1.116,-0.676 -1.927,-0.676c-1.149,-0 -2.09,0.405 -2.822,1.217c-0.733,0.811 -1.245,1.892 -1.538,3.244l-1.893,8.924l-4.259,-0l5.138,-24.134l4.259,0l-2.062,9.667l0.608,0c1.149,-1.848 2.794,-2.771 4.935,-2.771c1.397,-0 2.541,0.416 3.431,1.25c0.89,0.834 1.335,2.051 1.335,3.651c-0,0.315 -0.023,0.636 -0.068,0.963c-0.045,0.327 -0.101,0.67 -0.169,1.031l-1.352,6.32l0.338,0.237l2.164,-1.487l2.129,3.177l-2.535,1.69c-0.856,0.586 -1.769,0.879 -2.738,0.879c-0.496,-0 -0.969,-0.085 -1.419,-0.254c-0.451,-0.169 -0.845,-0.411 -1.183,-0.726c-0.339,-0.316 -0.609,-0.699 -0.812,-1.15c-0.203,-0.45 -0.304,-0.957 -0.304,-1.521c0,-0.292 0.045,-0.653 0.135,-1.081l1.183,-5.476Z" style="fill:rgb(131,133,136);fill-rule:nonzero;"/>
                <path d="M850.277,1051.44l-4.259,-0l4.157,-19.503l-0.338,-0.237l-1.554,1.15l-2.197,-3.042l1.825,-1.352c0.473,-0.338 0.963,-0.592 1.47,-0.761c0.507,-0.169 0.997,-0.253 1.47,-0.253c0.902,-0 1.69,0.259 2.366,0.777c0.676,0.518 1.093,1.228 1.251,2.129l0.608,0c1.104,-1.937 2.907,-2.906 5.408,-2.906c0.766,-0 1.499,0.146 2.197,0.439c0.699,0.293 1.313,0.721 1.842,1.284c0.53,0.564 0.947,1.257 1.251,2.079c0.304,0.823 0.456,1.763 0.456,2.822c0,1.33 -0.163,2.659 -0.49,3.989c-0.326,1.329 -0.839,2.518 -1.538,3.566c-0.698,1.048 -1.594,1.898 -2.687,2.552c-1.093,0.653 -2.405,0.98 -3.937,0.98c-0.722,-0 -1.352,-0.085 -1.893,-0.254c-0.541,-0.169 -1.003,-0.388 -1.386,-0.659c-0.383,-0.27 -0.699,-0.58 -0.946,-0.929c-0.248,-0.35 -0.417,-0.704 -0.507,-1.065l-0.609,0l-1.96,9.194Zm6.489,-10.343c0.834,-0 1.566,-0.152 2.197,-0.456c0.631,-0.305 1.155,-0.727 1.572,-1.268c0.417,-0.541 0.727,-1.183 0.93,-1.927c0.202,-0.743 0.304,-1.554 0.304,-2.433c-0,-0.947 -0.304,-1.769 -0.913,-2.468c-0.608,-0.698 -1.453,-1.047 -2.535,-1.047c-0.766,-0 -1.453,0.152 -2.062,0.456c-0.608,0.304 -1.126,0.727 -1.554,1.267c-0.429,0.541 -0.761,1.183 -0.998,1.927c-0.236,0.744 -0.354,1.555 -0.354,2.434c-0,1.059 0.304,1.909 0.912,2.552c0.609,0.642 1.442,0.963 2.501,0.963Z" style="fill:rgb(131,133,136);fill-rule:nonzero;"/>
                <path d="M931.788,1032.04l-0.405,-0.135l-1.318,1.656l-2.941,-2.399l1.589,-2.028c0.45,-0.564 0.974,-0.986 1.571,-1.268c0.597,-0.282 1.223,-0.422 1.876,-0.422c0.473,-0 0.935,0.078 1.386,0.236c0.451,0.158 0.851,0.389 1.2,0.693c0.349,0.304 0.637,0.693 0.862,1.166c0.225,0.473 0.36,1.014 0.405,1.623l0.71,11.492l0.609,-0l6.827,-15.008l3.82,1.859l-7.098,15.177l-8.214,-0l-0.879,-12.642Z" style="fill:rgb(131,133,136);fill-rule:nonzero;"/>
                <path d="M966.772,1034.2c-0,1.577 -0.226,3.036 -0.676,4.377c-0.451,1.34 -1.116,2.495 -1.995,3.464c-0.879,0.969 -1.977,1.73 -3.295,2.282c-1.318,0.552 -2.845,0.828 -4.58,0.828c-0.992,-0 -1.921,-0.147 -2.789,-0.44c-0.867,-0.292 -1.628,-0.726 -2.281,-1.301c-0.654,-0.574 -1.172,-1.279 -1.555,-2.112c-0.383,-0.834 -0.575,-1.78 -0.575,-2.84c0,-1.735 0.271,-3.284 0.812,-4.647c0.54,-1.363 1.278,-2.518 2.214,-3.465c0.935,-0.946 2.039,-1.667 3.312,-2.163c1.273,-0.496 2.642,-0.743 4.107,-0.743c1.059,-0 2.039,0.163 2.94,0.49c0.902,0.326 1.673,0.783 2.316,1.369c0.642,0.585 1.143,1.295 1.504,2.129c0.36,0.834 0.541,1.758 0.541,2.772Zm-9.904,6.962c0.811,-0.022 1.561,-0.202 2.248,-0.54c0.687,-0.338 1.273,-0.783 1.757,-1.335c0.485,-0.553 0.862,-1.2 1.133,-1.944c0.27,-0.744 0.405,-1.532 0.405,-2.366c0,-1.172 -0.315,-2.056 -0.946,-2.653c-0.631,-0.597 -1.476,-0.896 -2.535,-0.896c-0.811,0 -1.555,0.175 -2.231,0.524c-0.676,0.349 -1.262,0.811 -1.758,1.386c-0.495,0.574 -0.878,1.233 -1.149,1.977c-0.27,0.744 -0.405,1.521 -0.405,2.332c-0,1.149 0.315,2.023 0.946,2.62c0.631,0.597 1.476,0.895 2.535,0.895Z" style="fill:rgb(131,133,136);fill-rule:nonzero;"/>
                <path d="M981.204,1044.28c-0.451,0.316 -0.912,0.541 -1.386,0.676c-0.473,0.135 -0.935,0.203 -1.385,0.203c-0.496,-0 -0.969,-0.085 -1.42,-0.254c-0.451,-0.169 -0.845,-0.405 -1.183,-0.709c-0.338,-0.305 -0.603,-0.676 -0.794,-1.116c-0.192,-0.439 -0.288,-0.929 -0.288,-1.47c0,-0.406 0.045,-0.8 0.136,-1.183l3.684,-15.379l-0.338,-0.237l-4.529,3.11l-2.13,-3.177l4.901,-3.313c0.451,-0.315 0.913,-0.541 1.386,-0.676c0.473,-0.135 0.935,-0.203 1.386,-0.203c0.495,0 0.969,0.085 1.419,0.254c0.451,0.169 0.845,0.406 1.183,0.71c0.338,0.304 0.603,0.676 0.795,1.115c0.191,0.44 0.287,0.93 0.287,1.47c-0,0.361 -0.045,0.755 -0.135,1.183l-3.684,15.379l0.338,0.237l4.529,-3.11l2.129,3.178l-4.901,3.312Z" style="fill:rgb(131,133,136);fill-rule:nonzero;"/>
                <path d="M1054.36,1034.01c-0,1.578 -0.226,3.037 -0.676,4.377c-0.451,1.341 -1.116,2.496 -1.995,3.465c-0.878,0.969 -1.977,1.729 -3.295,2.281c-1.318,0.553 -2.845,0.829 -4.58,0.829c-0.992,-0 -1.921,-0.147 -2.789,-0.44c-0.867,-0.293 -1.628,-0.727 -2.281,-1.301c-0.654,-0.575 -1.172,-1.279 -1.555,-2.113c-0.383,-0.833 -0.574,-1.78 -0.574,-2.839c-0,-1.735 0.27,-3.284 0.811,-4.647c0.541,-1.364 1.279,-2.518 2.214,-3.465c0.935,-0.946 2.039,-1.667 3.312,-2.163c1.273,-0.496 2.642,-0.744 4.107,-0.744c1.059,0 2.039,0.164 2.94,0.49c0.902,0.327 1.673,0.783 2.316,1.369c0.642,0.586 1.143,1.296 1.504,2.13c0.36,0.833 0.541,1.757 0.541,2.771Zm-9.904,6.963c0.811,-0.022 1.561,-0.203 2.248,-0.541c0.687,-0.338 1.273,-0.783 1.757,-1.335c0.485,-0.552 0.862,-1.2 1.133,-1.943c0.27,-0.744 0.405,-1.532 0.405,-2.366c0,-1.172 -0.315,-2.056 -0.946,-2.654c-0.631,-0.597 -1.476,-0.895 -2.535,-0.895c-0.811,-0 -1.555,0.174 -2.231,0.524c-0.676,0.349 -1.262,0.811 -1.757,1.385c-0.496,0.575 -0.879,1.234 -1.15,1.978c-0.27,0.743 -0.405,1.521 -0.405,2.332c-0,1.149 0.315,2.022 0.946,2.619c0.631,0.598 1.476,0.896 2.535,0.896Z" style="fill:rgb(131,133,136);fill-rule:nonzero;"/>
                <path d="M1063.72,1027.73l-2.095,9.734c-0.091,0.383 -0.136,0.755 -0.136,1.115c0,0.857 0.237,1.493 0.71,1.91c0.473,0.417 1.104,0.625 1.893,0.625c1.194,0 2.112,-0.388 2.755,-1.166c0.642,-0.777 1.121,-1.876 1.436,-3.295l1.893,-8.923l4.259,-0l-2.772,12.776l0.372,0.203l1.217,-0.879l2.129,3.11l-1.588,1.149c-0.429,0.315 -0.874,0.541 -1.335,0.676c-0.462,0.135 -0.919,0.203 -1.369,0.203c-0.924,-0 -1.735,-0.265 -2.434,-0.795c-0.699,-0.529 -1.093,-1.301 -1.183,-2.315l-0.608,-0c-0.496,1.149 -1.167,1.955 -2.012,2.417c-0.845,0.462 -1.797,0.693 -2.856,0.693c-1.464,-0 -2.659,-0.445 -3.582,-1.336c-0.924,-0.89 -1.386,-2.135 -1.386,-3.734c-0,-0.564 0.067,-1.172 0.203,-1.826l2.23,-10.342l4.259,-0Z" style="fill:rgb(131,133,136);fill-rule:nonzero;"/>
                <path d="M1084.24,1031.78l-4.732,-0l-0,-4.056l5.611,-0l1.554,-7.369l4.259,0l-1.555,7.369l5.814,-0l0,4.056l-6.692,-0l-1.893,8.686l0.338,0.237l4.529,-3.11l2.129,3.177l-4.901,3.313c-0.856,0.586 -1.768,0.879 -2.737,0.879c-0.496,-0 -0.969,-0.085 -1.42,-0.254c-0.451,-0.169 -0.845,-0.411 -1.183,-0.727c-0.338,-0.315 -0.608,-0.698 -0.811,-1.149c-0.203,-0.45 -0.304,-0.957 -0.304,-1.521c-0,-0.18 0.011,-0.343 0.033,-0.49c0.023,-0.146 0.057,-0.344 0.102,-0.591l1.859,-8.45Z" style="fill:rgb(131,133,136);fill-rule:nonzero;"/>
                <g>
                    <path d="M979.374,416.886l27.305,-0" style="fill:none;stroke:rgb(131,133,136);stroke-width:3.96px;"/>
                    <path d="M993.026,389.698l0,36.092" style="fill:none;stroke:rgb(131,133,136);stroke-width:3.96px;"/>
                    <path d="M983.648,397.853l-0,7.1c-0,3.976 2.333,5.64 9.378,5.64c7.046,-0 9.379,-1.664 9.379,-5.64l0,-7.1" style="fill:none;stroke:rgb(131,133,136);stroke-width:3.96px;"/>
                </g>
                <path d="M716.266,430.18l-0.338,-0.203l-2.671,1.96l-2.264,-3.042l2.704,-2.028c0.518,-0.383 1.065,-0.67 1.639,-0.862c0.575,-0.191 1.121,-0.287 1.639,-0.287c0.902,0 1.69,0.248 2.366,0.744c0.676,0.495 1.082,1.194 1.217,2.095l0.609,0c0.45,-0.946 1.081,-1.656 1.892,-2.129c0.812,-0.473 1.724,-0.71 2.738,-0.71c1.285,0 2.327,0.4 3.127,1.2c0.8,0.8 1.2,1.91 1.2,3.329c-0,0.293 -0.017,0.58 -0.051,0.862c-0.034,0.282 -0.096,0.625 -0.186,1.031l-0.169,0.744l-4.529,0.338l0.101,-0.474c0.068,-0.338 0.102,-0.642 0.102,-0.912c-0,-0.654 -0.181,-1.172 -0.541,-1.555c-0.361,-0.383 -0.901,-0.575 -1.623,-0.575c-0.901,0 -1.616,0.305 -2.146,0.913c-0.529,0.608 -0.918,1.476 -1.166,2.603l-1.217,5.678l4.056,0l0,4.056l-11.559,0l-0,-4.056l3.244,0l1.826,-8.72Z" style="fill:rgb(131,133,136);fill-rule:nonzero;"/>
                <path d="M736.512,435.959c-0.045,0.181 -0.068,0.372 -0.068,0.575c0,0.811 0.31,1.487 0.93,2.028c0.619,0.541 1.436,0.811 2.45,0.811c1.059,0 1.904,-0.191 2.535,-0.574c0.631,-0.383 1.116,-0.834 1.454,-1.352l3.38,2.129c-0.271,0.451 -0.626,0.901 -1.065,1.352c-0.439,0.451 -0.98,0.862 -1.622,1.234c-0.643,0.372 -1.397,0.676 -2.265,0.912c-0.868,0.237 -1.876,0.355 -3.025,0.355c-1.037,0 -1.989,-0.163 -2.856,-0.49c-0.868,-0.327 -1.611,-0.777 -2.231,-1.352c-0.62,-0.574 -1.104,-1.262 -1.453,-2.062c-0.35,-0.8 -0.524,-1.684 -0.524,-2.653c-0,-1.532 0.231,-2.974 0.693,-4.326c0.462,-1.352 1.132,-2.535 2.011,-3.549c0.879,-1.014 1.96,-1.814 3.245,-2.4c1.284,-0.586 2.76,-0.879 4.427,-0.879c1.172,0 2.192,0.186 3.059,0.558c0.868,0.372 1.583,0.867 2.147,1.487c0.563,0.62 0.985,1.324 1.267,2.112c0.282,0.789 0.423,1.6 0.423,2.434c-0,0.27 -0.017,0.546 -0.051,0.828c-0.034,0.282 -0.096,0.648 -0.186,1.099l-0.372,1.723l-12.303,0Zm5.34,-6.388c-1.059,0 -1.977,0.265 -2.754,0.795c-0.778,0.529 -1.358,1.177 -1.741,1.943l7.909,0c0,-0.856 -0.265,-1.527 -0.794,-2.011c-0.53,-0.485 -1.403,-0.727 -2.62,-0.727Z" style="fill:rgb(131,133,136);fill-rule:nonzero;"/>
                <path d="M762.504,429.571c-0.248,0 -0.501,0.028 -0.76,0.085c-0.259,0.056 -0.502,0.141 -0.727,0.253c-0.225,0.113 -0.411,0.265 -0.558,0.457c-0.146,0.191 -0.219,0.422 -0.219,0.692c-0,0.474 0.27,0.823 0.811,1.048c0.541,0.226 1.464,0.417 2.771,0.575c1.465,0.18 2.648,0.625 3.549,1.335c0.902,0.71 1.352,1.729 1.352,3.059c0,1.983 -0.693,3.538 -2.078,4.664c-1.386,1.127 -3.307,1.69 -5.763,1.69c-1.24,0 -2.304,-0.18 -3.194,-0.541c-0.89,-0.36 -1.623,-0.811 -2.197,-1.352c-0.575,-0.54 -1.009,-1.137 -1.302,-1.791c-0.293,-0.653 -0.45,-1.273 -0.473,-1.859l4.191,-1.014c0.068,0.744 0.383,1.38 0.947,1.91c0.563,0.529 1.419,0.794 2.569,0.794c0.788,0 1.476,-0.124 2.061,-0.372c0.586,-0.248 0.879,-0.687 0.879,-1.318c0,-0.473 -0.225,-0.851 -0.676,-1.132c-0.45,-0.282 -1.284,-0.479 -2.501,-0.592c-1.622,-0.135 -2.912,-0.597 -3.87,-1.386c-0.958,-0.788 -1.437,-1.836 -1.437,-3.143c0,-0.946 0.198,-1.791 0.592,-2.535c0.394,-0.744 0.918,-1.363 1.572,-1.859c0.653,-0.496 1.414,-0.873 2.281,-1.132c0.868,-0.259 1.775,-0.389 2.721,-0.389c1.172,0 2.152,0.158 2.941,0.473c0.788,0.316 1.43,0.71 1.926,1.183c0.496,0.473 0.862,0.986 1.099,1.538c0.236,0.552 0.388,1.065 0.456,1.538l-4.124,1.082c-0.09,-0.609 -0.371,-1.088 -0.845,-1.437c-0.473,-0.349 -1.138,-0.524 -1.994,-0.524Z" style="fill:rgb(131,133,136);fill-rule:nonzero;"/>
                <path d="M791.167,432.478c-0,1.577 -0.226,3.036 -0.676,4.377c-0.451,1.341 -1.116,2.496 -1.995,3.465c-0.878,0.969 -1.977,1.729 -3.295,2.281c-1.318,0.552 -2.845,0.828 -4.58,0.828c-0.991,0 -1.921,-0.146 -2.788,-0.439c-0.868,-0.293 -1.629,-0.727 -2.282,-1.301c-0.653,-0.575 -1.172,-1.279 -1.555,-2.113c-0.383,-0.834 -0.574,-1.78 -0.574,-2.839c-0,-1.735 0.27,-3.284 0.811,-4.648c0.541,-1.363 1.279,-2.518 2.214,-3.464c0.935,-0.947 2.039,-1.668 3.312,-2.163c1.273,-0.496 2.642,-0.744 4.107,-0.744c1.059,0 2.039,0.163 2.94,0.49c0.902,0.327 1.674,0.783 2.316,1.369c0.642,0.586 1.143,1.296 1.504,2.129c0.36,0.834 0.541,1.758 0.541,2.772Zm-9.904,6.963c0.811,-0.023 1.561,-0.203 2.248,-0.541c0.687,-0.338 1.273,-0.783 1.758,-1.335c0.484,-0.552 0.861,-1.2 1.132,-1.944c0.27,-0.743 0.405,-1.532 0.405,-2.366c0,-1.171 -0.315,-2.056 -0.946,-2.653c-0.631,-0.597 -1.476,-0.896 -2.535,-0.896c-0.811,0 -1.555,0.175 -2.231,0.524c-0.676,0.35 -1.262,0.812 -1.757,1.386c-0.496,0.575 -0.879,1.234 -1.15,1.977c-0.27,0.744 -0.405,1.521 -0.405,2.333c-0,1.149 0.315,2.022 0.946,2.619c0.631,0.597 1.476,0.896 2.535,0.896Z" style="fill:rgb(131,133,136);fill-rule:nonzero;"/>
                <g>
                    <path d="M923.335,708.518l4.872,-7.332l3.913,6.778l-8.785,0.554Z" style="fill:rgb(131,133,136);stroke:rgb(131,133,136);stroke-width:3.24px;"/>
                    <path d="M1039.93,708.518l-4.873,-7.332l-3.912,6.778l8.785,0.554Z" style="fill:rgb(131,133,136);stroke:rgb(131,133,136);stroke-width:3.24px;"/>
                    <path d="M760.888,708.518l4.873,-7.332l3.913,6.778l-8.786,0.554Z" style="fill:rgb(131,133,136);stroke:rgb(131,133,136);stroke-width:3.24px;"/>
                </g>
                <g>
                    <path d="M693.488,975.392l-0.002,-0c-6.841,-0 -12.386,-5.546 -12.386,-12.386c0,-28.376 0,-98.658 0,-137.913c0,-15.266 12.375,-27.641 27.641,-27.641l11.146,-0c9.983,-0 18.076,-8.093 18.076,-18.076c-0,-0.001 -0,-30.167 -0,-30.167" style="fill:none;stroke:rgb(222,222,222);stroke-width:2.11px;"/>
                    <path d="M900.409,749.209l0,30.167c0,9.946 -8.062,18.008 -18.008,18.008c-17.136,0 -43.165,0 -62.94,0c-15.295,0 -27.693,12.399 -27.693,27.694l-0,138.014c-0,6.793 5.506,12.3 12.3,12.3c0.001,-0 0.001,-0 0.001,-0" style="fill:none;stroke:rgb(222,222,222);stroke-width:2.11px;"/>
                    <path d="M1107.54,854.031l0.005,-0c6.516,-0 11.799,-5.28 11.802,-11.795c0.004,-5.813 0.008,-13.055 0.012,-20.012c0.004,-6.587 -2.609,-12.905 -7.265,-17.563c-4.656,-4.659 -10.972,-7.277 -17.559,-7.277l-13.634,0c-9.951,0 -18.023,-8.056 -18.042,-18.007c0,-0.001 0,-0.002 0,-0.002l0,-30.166" style="fill:none;stroke:rgb(222,222,222);stroke-width:2.11px;"/>
                    <path d="M998.443,975.392l25.29,-0" style="fill:none;stroke:rgb(222,222,222);stroke-width:1.86px;"/>
                </g>
                <g>
                    <path d="M993.999,1088.22c-4.384,0.297 -6.231,3.204 -7.212,6.268c-0.863,2.695 -1.83,5.476 -2.883,6.905c-0.584,0.794 -1.234,1.201 -1.867,1.201c-0.628,-0 -1.089,-0.332 -1.384,-0.954c-0.449,-0.947 -0.437,-2.802 -0.318,-4.659c0.093,-1.458 0.237,-2.915 0.174,-3.847c-0.009,-0.135 -0.037,-0.289 -0.062,-0.402c-0.054,0.028 -0.108,0.066 -0.164,0.108c-0.207,0.156 -0.411,0.382 -0.619,0.651c-0.718,0.933 -1.429,2.347 -2.101,3.574c-0.574,1.048 -1.131,1.964 -1.629,2.425c-0.338,0.313 -0.68,0.453 -0.988,0.453c-0.58,-0 -0.998,-0.354 -1.159,-1.093c-0.206,-0.945 0.081,-2.798 0.418,-4.65c0.267,-1.466 0.555,-2.932 0.566,-3.871c0.001,-0.12 -0.012,-0.254 -0.026,-0.359c-0.08,0.047 -0.16,0.117 -0.246,0.196c-0.259,0.239 -0.517,0.585 -0.778,0.998c-0.87,1.375 -1.735,3.456 -2.525,5.265c-0.649,1.487 -1.258,2.797 -1.767,3.452c-0.367,0.47 -0.758,0.659 -1.065,0.659c-0.58,0 -0.978,-0.301 -1.206,-0.864c-0.313,-0.771 -0.197,-2.283 0.025,-3.795c0.138,-0.938 0.303,-1.877 0.373,-2.599c0.017,-0.177 0.02,-0.377 0.017,-0.539c-0.052,0.025 -0.107,0.054 -0.167,0.084c-0.479,0.241 -1.094,0.631 -1.794,1.062c-1.226,0.756 -2.695,1.62 -4.151,2.132c-0.297,1.175 -0.776,2.291 -1.407,3.162c-0.838,1.156 -1.945,1.885 -3.231,1.885c-1.133,0 -1.837,-0.575 -2.284,-1.391c-0.377,-0.689 -0.553,-1.571 -0.661,-2.357c-0.048,-0.355 -0.113,-0.778 -0.159,-1.068c-0.232,0.101 -0.543,0.238 -0.824,0.371c-0.494,0.235 -1.071,0.493 -1.689,0.703c-0.261,1.227 -0.709,2.396 -1.311,3.303c-0.793,1.196 -1.856,1.942 -3.08,1.942c-1.089,0 -1.803,-0.605 -2.264,-1.488c-0.383,-0.734 -0.579,-1.674 -0.7,-2.512c-0.052,-0.358 -0.091,-0.695 -0.129,-0.982c-0.148,0.171 -0.306,0.372 -0.474,0.585c-0.498,0.629 -1.079,1.346 -1.73,1.824c-0.517,0.379 -1.08,0.613 -1.676,0.613c-1.072,0 -1.909,-0.522 -2.52,-1.426c-0.503,-0.745 -0.846,-1.776 -1.036,-2.967c-0.877,0.64 -1.85,1.195 -2.802,1.701c-0.004,0.124 -0.012,0.248 -0.024,0.371c-0.128,1.326 -0.761,2.779 -1.573,3.729c-0.626,0.734 -1.371,1.164 -2.069,1.164c-0.364,-0 -0.788,-0.141 -1.16,-0.413c-0.53,-0.388 -0.949,-1.031 -0.949,-1.796c0,-0.771 0.582,-1.515 1.615,-2.194c0.772,-0.509 1.812,-1.014 2.914,-1.579c-0.069,-0.747 -0.295,-1.466 -0.658,-1.99c-0.273,-0.393 -0.623,-0.675 -1.064,-0.675c-1.367,0 -2.274,0.793 -2.925,1.793c-0.73,1.122 -1.15,2.505 -1.469,3.541c-0.222,0.72 -0.412,1.292 -0.593,1.572c-0.22,0.342 -0.497,0.45 -0.732,0.45c-0.125,0 -0.26,-0.033 -0.391,-0.132c-0.083,-0.062 -0.225,-0.217 -0.319,-0.511c-0.147,-0.459 -0.328,-1.593 -0.476,-3.114c-0.586,0.938 -1.162,1.793 -1.704,2.525c-0.861,1.164 -1.645,2.022 -2.238,2.436c-0.371,0.259 -0.705,0.366 -0.967,0.366c-1.145,0 -1.788,-0.803 -1.986,-2.15c-0.224,-1.522 0.134,-3.825 0.481,-5.827c0.176,-1.017 0.347,-1.952 0.42,-2.65c0.02,-0.189 0.023,-0.399 0.022,-0.558c-0.529,0.044 -1.105,0.17 -1.688,0.297c-0.389,2.128 -1.582,4.677 -3.139,6.518c-1.315,1.554 -2.897,2.588 -4.446,2.588c-1.877,-0 -3.234,-0.733 -4.157,-1.858c-1.166,0.976 -2.459,1.583 -3.744,1.583c-1.357,0 -2.485,-1.03 -3.266,-2.805c-0.257,-0.584 -0.48,-1.25 -0.669,-1.978c-0.606,1.224 -1.218,2.337 -1.811,3.269c-0.707,1.113 -1.393,1.975 -2.004,2.491c-0.522,0.441 -1.021,0.646 -1.45,0.646c-0.929,0 -1.587,-0.632 -1.953,-1.764c-0.415,-1.284 -0.469,-3.289 -0.448,-5.295c0.02,-1.898 0.102,-3.797 -0.056,-5.013c-0.036,-0.273 -0.082,-0.507 -0.151,-0.687c-0.012,-0.03 -0.029,-0.064 -0.045,-0.093c-0.039,0.025 -0.076,0.067 -0.12,0.109c-0.17,0.162 -0.335,0.398 -0.503,0.686c-0.592,1.011 -1.171,2.593 -1.743,4.174c-0.702,1.944 -1.397,3.883 -2.06,4.875c-0.427,0.639 -0.912,0.928 -1.325,0.928c-0.476,0 -0.886,-0.292 -1.118,-0.932c-0.298,-0.819 -0.317,-2.424 -0.306,-4.03c0.009,-1.259 0.029,-2.519 -0.119,-3.325c-0.025,-0.134 -0.079,-0.292 -0.114,-0.385c-0.282,0.06 -0.517,0.304 -0.759,0.612c-0.602,0.764 -1.125,1.962 -1.679,3.157c-0.604,1.303 -1.244,2.6 -2.003,3.433c-0.612,0.672 -1.308,1.062 -2.096,1.062c-1.255,0 -1.931,-0.89 -2.088,-2.46c-0.179,-1.8 0.33,-4.613 0.82,-7.426c0.176,-1.01 0.35,-2.019 0.483,-2.977c-0.226,0.045 -0.462,0.067 -0.706,0.067c-2.558,0 -3.34,-2.392 -2.857,-4.349c0.335,-1.356 1.286,-2.416 2.507,-2.416c1.398,0 2.152,0.893 2.412,2.418c0.093,0.549 0.117,1.192 0.092,1.899c0.085,-0.117 0.166,-0.241 0.242,-0.371c0.621,-1.056 0.947,-2.465 0.99,-3.873c0.042,-1.404 -0.197,-2.811 -0.743,-3.865c-0.476,-0.918 -1.188,-1.561 -2.186,-1.561c-1.669,-0 -3.058,0.996 -4.132,2.551c-1.738,2.516 -2.648,6.466 -2.505,10.473c0.186,5.163 1.296,10.423 0.689,13.114c-0.193,0.858 -0.556,1.489 -1.091,1.869c-0.379,0.269 -0.849,0.424 -1.434,0.424c-1.009,-0 -1.887,-0.622 -2.608,-1.642c-0.915,-1.295 -1.602,-3.25 -2.151,-4.953c-0.346,-1.071 -0.636,-2.036 -0.905,-2.635c-0.011,-0.024 -0.023,-0.049 -0.036,-0.074l-0.03,0.044c-0.323,0.483 -0.685,1.26 -1.083,2.122c-0.75,1.626 -1.618,3.53 -2.512,4.53c-0.511,0.572 -1.059,0.871 -1.583,0.871c-0.614,-0 -1.145,-0.419 -1.459,-1.321c-0.484,-1.391 -0.531,-4.183 -0.497,-7.345c0.041,-3.907 0.186,-8.4 -0.39,-11.369c-0.176,-0.906 -0.414,-1.661 -0.762,-2.186c-0.259,-0.389 -0.578,-0.634 -1.005,-0.634c-0.738,0 -1.252,0.635 -1.667,1.487c-0.764,1.57 -1.089,3.919 -1.052,5.845c0.061,3.192 1.141,5.222 1.141,5.222c0.161,0.298 0.049,0.671 -0.249,0.832c-0.299,0.16 -0.672,0.049 -0.832,-0.25c-0,0 -1.221,-2.243 -1.288,-5.78c-0.041,-2.112 0.338,-4.685 1.176,-6.407c0.654,-1.344 1.606,-2.177 2.771,-2.177c1.301,-0 2.225,1.027 2.738,2.822c0.64,2.236 0.715,5.73 0.687,9.224c-0.032,3.942 -0.196,7.884 0.271,9.895c0.067,0.287 0.144,0.528 0.245,0.712c0.055,0.101 0.084,0.201 0.172,0.201c0.128,0 0.246,-0.077 0.372,-0.177c0.211,-0.166 0.416,-0.408 0.621,-0.695c0.71,-0.996 1.382,-2.505 1.987,-3.815c0.509,-1.104 0.98,-2.074 1.374,-2.56c0.315,-0.389 0.654,-0.536 0.92,-0.536c0.246,-0 0.543,0.12 0.795,0.476c0.254,0.358 0.532,1.086 0.832,2.003c0.536,1.641 1.19,3.941 2.141,5.517c0.52,0.861 1.094,1.524 1.866,1.524c0.592,0 0.954,-0.297 1.165,-0.808c0.186,-0.449 0.274,-1.029 0.307,-1.708c0.138,-2.842 -0.707,-7.264 -0.863,-11.618c-0.154,-4.294 0.859,-8.519 2.721,-11.215c1.326,-1.92 3.082,-3.082 5.143,-3.082c1.193,0 2.141,0.573 2.834,1.51c0.929,1.257 1.382,3.217 1.323,5.182c-0.06,1.961 -0.626,3.915 -1.651,5.169c-0.285,0.35 -0.605,0.648 -0.959,0.883c-0.138,1.18 -0.349,2.452 -0.571,3.724c-0.468,2.687 -0.978,5.373 -0.807,7.093c0.078,0.782 0.24,1.354 0.865,1.354c0.597,-0 1.06,-0.447 1.499,-1.044c0.55,-0.747 1.024,-1.744 1.486,-2.74c0.598,-1.289 1.178,-2.575 1.827,-3.4c0.554,-0.704 1.181,-1.095 1.862,-1.095c0.453,-0 0.861,0.29 1.075,0.953c0.262,0.815 0.26,2.411 0.249,4.009c-0.008,1.253 -0.018,2.506 0.152,3.308c0.024,0.112 0.071,0.242 0.109,0.335c0.01,-0.009 0.019,-0.018 0.027,-0.026c0.153,-0.163 0.303,-0.402 0.459,-0.692c0.546,-1.016 1.105,-2.605 1.679,-4.193c0.706,-1.953 1.442,-3.902 2.177,-4.898c0.453,-0.614 0.956,-0.905 1.415,-0.905c0.475,-0 0.881,0.278 1.121,0.906c0.308,0.805 0.343,2.42 0.317,4.249c-0.031,2.177 -0.129,4.68 0.234,6.334c0.084,0.382 0.19,0.714 0.338,0.972c0.14,0.244 0.312,0.415 0.572,0.415c0.202,-0 0.412,-0.149 0.658,-0.356c0.54,-0.456 1.135,-1.228 1.759,-2.212c0.798,-1.255 1.633,-2.846 2.437,-4.595c-0.28,-1.726 -0.412,-3.649 -0.401,-5.572c0.008,-1.438 0.097,-2.876 0.261,-4.232c-3.469,0.193 -5.196,0.494 -5.196,0.494c-0.267,0.047 -0.522,-0.132 -0.569,-0.399c-0.047,-0.268 0.132,-0.522 0.399,-0.569c0,-0 1.829,-0.321 5.502,-0.518c0.34,-2.217 0.893,-4.143 1.63,-5.384c0.668,-1.124 1.512,-1.725 2.434,-1.725c0.792,0 1.345,0.489 1.58,1.468c0.242,1.01 0.114,2.677 -0.307,4.687c-0.055,0.263 -0.115,0.532 -0.18,0.806c2.329,-0.014 5.041,0.033 8.137,0.184c0.271,0.013 0.48,0.244 0.467,0.515c-0.013,0.27 -0.244,0.48 -0.514,0.466c-3.191,-0.155 -5.969,-0.2 -8.335,-0.18c-0.828,3.166 -2.175,6.886 -3.639,10.127c0.223,1.256 0.533,2.386 0.936,3.301c0.54,1.227 1.202,2.071 2.141,2.071c1.063,-0 2.112,-0.557 3.066,-1.389c-0.882,-1.696 -1.088,-3.882 -0.801,-5.842c0.226,-1.551 0.762,-2.942 1.467,-3.811c0.566,-0.696 1.249,-1.077 1.975,-1.077c0.783,0 1.366,0.25 1.784,0.655c0.583,0.566 0.854,1.485 0.793,2.611c-0.123,2.249 -1.564,5.406 -3.564,7.566l-0.086,0.091c0.72,0.892 1.78,1.47 3.267,1.47c1.05,0 2.085,-0.661 3.019,-1.614c1.522,-1.553 2.751,-3.904 3.246,-5.947l0.014,-0.061c-0.306,0.046 -0.605,0.075 -0.891,0.075c-1.945,-0 -2.705,-1.713 -2.396,-3.093c0.216,-0.966 0.939,-1.753 2.093,-1.753c0.781,0 1.367,0.253 1.792,0.667c0.579,0.564 0.865,1.475 0.843,2.591c0.677,-0.147 1.34,-0.283 1.925,-0.283c0.318,-0 0.575,0.144 0.736,0.481c0.089,0.187 0.146,0.502 0.131,0.923c-0.026,0.741 -0.241,1.933 -0.471,3.258c-0.324,1.869 -0.685,4.017 -0.476,5.438c0.091,0.618 0.245,1.101 0.771,1.101c0.031,0 0.062,-0.024 0.102,-0.045c0.112,-0.059 0.234,-0.148 0.368,-0.26c0.491,-0.412 1.09,-1.11 1.748,-2c0.792,-1.071 1.664,-2.415 2.527,-3.895c-0.262,-4.33 -0.181,-10.216 1.062,-13.473c0.667,-1.747 1.7,-2.77 3.037,-2.77c0.64,-0 1.131,0.189 1.5,0.51c0.36,0.312 0.61,0.76 0.738,1.334c0.207,0.928 0.084,2.24 -0.304,3.769c-0.81,3.189 -2.758,7.393 -4.784,10.919c0.009,0.136 0.018,0.27 0.028,0.402c0.075,1.026 0.167,1.935 0.262,2.658c0.344,-1.111 0.809,-2.547 1.575,-3.724c0.873,-1.342 2.122,-2.351 3.955,-2.351c0.839,-0 1.554,0.454 2.073,1.202c0.39,0.562 0.666,1.298 0.802,2.082c0.963,-0.528 1.921,-1.116 2.741,-1.806c-0.014,-0.233 -0.023,-0.47 -0.027,-0.709c-0.06,-3.527 0.89,-7.666 2.37,-9.834c0.749,-1.097 1.654,-1.709 2.601,-1.709c0.549,-0 0.966,0.175 1.274,0.464c0.414,0.386 0.644,1.021 0.634,1.853c-0.034,2.517 -2.327,7.19 -5.377,10.249c-0.067,0.067 -0.135,0.133 -0.205,0.199c0.1,1.029 0.309,1.956 0.65,2.685c0.392,0.837 0.957,1.399 1.79,1.399c0.443,-0 0.837,-0.258 1.205,-0.582c0.461,-0.405 0.872,-0.927 1.238,-1.39c0.403,-0.509 0.766,-0.952 1.071,-1.176c0.244,-0.179 0.482,-0.254 0.691,-0.254c0.211,-0 0.422,0.08 0.588,0.313c0.062,0.087 0.127,0.218 0.175,0.395c0.061,0.226 0.109,0.573 0.162,0.987c0.093,0.743 0.206,1.735 0.531,2.54c0.248,0.612 0.615,1.127 1.312,1.127c0.835,-0 1.515,-0.577 2.057,-1.393c0.425,-0.642 0.76,-1.433 0.991,-2.28c-0.306,0.05 -0.616,0.079 -0.925,0.079c-3.117,-0 -4.287,-2.793 -3.86,-5.048c0.299,-1.578 1.372,-2.846 2.999,-2.846c2.143,0 3.281,2.052 3.383,4.634c0.018,0.473 0.003,0.962 -0.043,1.454c0.538,-0.221 1.024,-0.465 1.42,-0.653c0.551,-0.263 0.982,-0.415 1.209,-0.415c0.262,-0 0.512,0.114 0.688,0.425c0.12,0.212 0.209,0.642 0.277,1.186c0.085,0.682 0.169,1.594 0.477,2.333c0.235,0.563 0.614,1.021 1.335,1.021c0.903,-0 1.648,-0.566 2.237,-1.379c0.426,-0.587 0.769,-1.304 1.021,-2.073c-0.311,0.052 -0.617,0.081 -0.915,0.081c-3.099,-0 -4.345,-2.797 -3.859,-5.049c0.334,-1.551 1.468,-2.824 3.318,-2.824c2.066,0 3.153,2.018 3.186,4.564c0.006,0.476 -0.023,0.967 -0.086,1.461c1.144,-0.486 2.273,-1.18 3.242,-1.777c0.867,-0.535 1.614,-1.003 2.149,-1.239c0.32,-0.14 0.59,-0.204 0.791,-0.204c0.402,-0 0.747,0.227 0.865,0.806c0.104,0.508 -0.016,1.531 -0.194,2.686c-0.203,1.317 -0.469,2.83 -0.381,3.831c0.014,0.159 0.037,0.301 0.075,0.423c0.016,0.051 0.019,0.105 0.04,0.137c0.043,-0.041 0.104,-0.103 0.147,-0.158c0.125,-0.16 0.254,-0.366 0.39,-0.607c0.566,-1.008 1.216,-2.583 1.907,-4.157c0.848,-1.929 1.765,-3.851 2.651,-4.835c0.51,-0.567 1.046,-0.849 1.539,-0.849c0.362,-0 0.638,0.161 0.829,0.486c0.143,0.243 0.23,0.649 0.224,1.179c-0.011,0.988 -0.304,2.533 -0.585,4.077c-0.265,1.451 -0.521,2.901 -0.469,3.83c0.008,0.138 0.045,0.3 0.072,0.404c0.029,-0.02 0.059,-0.043 0.083,-0.065c0.108,-0.101 0.219,-0.232 0.334,-0.385c0.508,-0.678 1.058,-1.741 1.632,-2.802c0.614,-1.134 1.258,-2.265 1.896,-2.991c0.552,-0.628 1.138,-0.964 1.681,-0.964c0.421,-0 0.787,0.243 0.966,0.828c0.193,0.629 0.152,1.891 0.053,3.32c-0.115,1.665 -0.291,3.58 -0.085,4.846c0.045,0.276 0.106,0.516 0.201,0.702c0.062,0.123 0.131,0.222 0.259,0.222c0.178,0 0.339,-0.115 0.508,-0.273c0.263,-0.247 0.515,-0.606 0.765,-1.042c0.838,-1.462 1.601,-3.733 2.307,-5.937c1.149,-3.586 3.367,-6.944 8.647,-7.137l0.07,-0.328c0.032,-0.146 0.176,-0.24 0.322,-0.208l0.328,0.069c0.146,0.032 0.24,0.176 0.208,0.322l-0.058,0.272c0.003,0.002 0.006,0.004 0.009,0.007l0.257,0.05l0.061,-0.285c0.043,-0.202 0.241,-0.331 0.443,-0.288l0.459,0.098c0.202,0.043 0.331,0.242 0.287,0.444l-0.057,0.267l0.244,0.048l0.054,-0.271c0.046,-0.234 0.27,-0.389 0.506,-0.348l4.148,0.713c0.244,0.042 0.405,0.276 0.357,0.518l-0.013,0.066l0.03,0.006c0.122,0.024 0.211,0.121 0.231,0.237l3.66,0.721c0.168,0.033 0.3,0.143 0.368,0.287l1.243,0.147l0.347,0.462l-0.081,0.409l-0.496,0.295l-1.203,-0.337c-0.117,0.109 -0.283,0.162 -0.452,0.128l-3.66,-0.721c-0.062,0.1 -0.182,0.156 -0.304,0.132l-0.029,-0.006l-0.013,0.065c-0.048,0.243 -0.286,0.398 -0.527,0.345l-4.11,-0.914c-0.232,-0.051 -0.382,-0.28 -0.336,-0.514l0.054,-0.271l-0.262,-0.051l-0.061,0.286c-0.043,0.201 -0.242,0.33 -0.443,0.287l-0.459,-0.098c-0.202,-0.043 -0.331,-0.242 -0.288,-0.444l0.057,-0.267l-0.266,-0.052l-0.062,0.29c-0.031,0.147 -0.176,0.24 -0.322,0.209l-0.327,-0.07c-0.147,-0.031 -0.24,-0.175 -0.209,-0.322l0.03,-0.141Zm-61.823,10.379c-0.463,0.238 -0.907,0.468 -1.314,0.693c-0.607,0.335 -1.128,0.657 -1.495,0.993c-0.247,0.226 -0.429,0.437 -0.429,0.689c-0,0.346 0.205,0.629 0.445,0.804c0.142,0.104 0.296,0.176 0.435,0.176c0.397,0 0.779,-0.315 1.135,-0.732c0.577,-0.676 1.043,-1.664 1.223,-2.623Zm-27.735,-0.717c1.308,-1.471 2.34,-3.399 2.814,-5.108c0.232,-0.838 0.332,-1.62 0.242,-2.257c-0.053,-0.38 -0.17,-0.702 -0.397,-0.922c-0.215,-0.209 -0.525,-0.308 -0.928,-0.308c-0.386,-0 -0.72,0.253 -1.021,0.623c-0.593,0.73 -1.015,1.91 -1.206,3.214c-0.23,1.569 -0.127,3.347 0.496,4.758Zm45.691,-1.514c0.089,-0.617 0.124,-1.238 0.1,-1.831c-0.039,-0.986 -0.235,-1.893 -0.64,-2.551c-0.337,-0.549 -0.832,-0.902 -1.515,-0.902c-1.012,-0 -1.606,0.864 -1.792,1.846c-0.3,1.584 0.463,3.59 2.653,3.59c0.401,0 0.803,-0.058 1.194,-0.152Zm10.283,-1.296c0.118,-0.638 0.175,-1.283 0.168,-1.896c-0.013,-0.961 -0.181,-1.846 -0.556,-2.486c-0.306,-0.525 -0.763,-0.865 -1.402,-0.865c-1.195,-0 -1.901,0.852 -2.117,1.854c-0.34,1.575 0.491,3.561 2.658,3.561c0.405,0 0.825,-0.061 1.249,-0.168Zm-35.833,-1.07c1.608,-3.014 3.048,-6.303 3.708,-8.9c0.329,-1.3 0.471,-2.411 0.295,-3.2c-0.064,-0.285 -0.166,-0.519 -0.344,-0.673c-0.169,-0.147 -0.402,-0.21 -0.695,-0.21c-0.89,0 -1.445,0.817 -1.889,1.98c-1.017,2.664 -1.2,7.155 -1.075,11.003Zm12.75,-0.398c2.142,-2.38 3.814,-5.517 4.293,-7.74c0.124,-0.578 0.169,-1.087 0.098,-1.489c-0.035,-0.201 -0.093,-0.37 -0.212,-0.48c-0.103,-0.097 -0.251,-0.133 -0.435,-0.133c-0.368,-0 -0.706,0.195 -1.027,0.5c-0.404,0.384 -0.767,0.938 -1.092,1.602c-0.994,2.026 -1.604,5.037 -1.625,7.74Zm-37.579,-8.909c-0.915,0.017 -1.76,0.044 -2.534,0.077c-0.173,1.37 -0.265,2.835 -0.273,4.3c-0.006,1.136 0.037,2.271 0.134,3.362c1.066,-2.57 2.018,-5.308 2.673,-7.739Zm15.093,6.874c0.025,-0.36 0.016,-0.696 -0.033,-1c-0.063,-0.398 -0.191,-0.734 -0.427,-0.964c-0.22,-0.214 -0.531,-0.318 -0.935,-0.318c-0.505,-0 -0.8,0.37 -0.895,0.793c-0.157,0.703 0.206,1.595 1.198,1.595c0.348,0 0.716,-0.043 1.092,-0.106Zm-40.807,-5.213c0.099,-1.051 0.116,-1.996 -0.012,-2.753c-0.14,-0.822 -0.447,-1.395 -1.201,-1.395c-0.695,-0 -1.124,0.71 -1.315,1.482c-0.304,1.233 0.053,2.826 1.665,2.826c0.311,-0 0.598,-0.057 0.863,-0.16Zm25.967,-2.648c0.089,-0.367 0.171,-0.726 0.244,-1.073c0.373,-1.78 0.528,-3.254 0.314,-4.149c-0.071,-0.296 -0.146,-0.525 -0.385,-0.525c-0.331,-0 -0.622,0.18 -0.893,0.465c-0.358,0.376 -0.668,0.924 -0.943,1.592c-0.422,1.027 -0.75,2.324 -0.983,3.764c0.809,-0.032 1.691,-0.058 2.646,-0.074Z" style="fill:rgb(131,133,136);"/>
                    <g>
                        <path d="M796.99,1093.58c0,-0 2.295,5.732 9.415,5.732c7.121,0 9.494,-5.675 9.494,-5.675c0,0 0.359,-7.269 -9.494,-7.269c-9.853,-0 -9.415,7.212 -9.415,7.212Z" style="fill:rgb(131,133,136);"/>
                        <path d="M801.878,1098.39c0,0 -1.925,1.41 -1.735,3.253c0.19,1.842 1.054,2.618 1.537,2.362c0.482,-0.257 -0.378,-1.205 -0.378,-1.985c-0,-0.779 0.878,-1.869 2.449,-3.003c-0.098,-1.106 -1.558,-1.034 -1.873,-0.627Z" style="fill:rgb(131,133,136);"/>
                        <path d="M797.297,1091.52c-1.555,-1.257 -2.554,-2.902 -2.715,-4.94c0.552,-0.317 1.041,-0.23 1.622,0.166c0.419,1.059 1.166,1.987 2.162,2.701c0.131,1.05 -0.29,1.693 -1.069,2.073Z" style="fill:rgb(131,133,136);"/>
                        <path d="M798.817,1096.23c0,-0 -3.07,1.324 -3.202,3.89c-0.094,1.85 0.659,2.511 1.142,2.255c0.483,-0.256 -0.235,-1.691 0.231,-2.505c0.387,-0.677 1.706,-1.546 3.485,-2.256c0.538,-1.276 -0.994,-1.865 -1.656,-1.384Z" style="fill:rgb(131,133,136);"/>
                        <path d="M796.99,1093.58c0,-0 -3.13,0.681 -3.753,2.993c-0.128,0.476 -0.115,2.349 0.431,2.349c0.547,0 0.238,-1.294 1.077,-2.42c0.697,-0.937 1.464,-0.536 3.242,-1.246c0.363,-0.681 -0.265,-1.859 -0.997,-1.676Z" style="fill:rgb(131,133,136);"/>
                        <path d="M795.444,1086.86c-1.51,-0.179 -2.433,-1.791 -2.392,-3.093c0.11,-3.552 2.858,-5.88 6.066,-5.873c0.578,-0.009 0.808,0.168 0.36,0.703c-0.786,0.93 -0.893,3.225 -0.83,4.757c0.036,0.873 -1.585,3.697 -3.204,3.506Z" style="fill:rgb(131,133,136);"/>
                        <path d="M796.204,1086.75c3.077,0.024 5.215,-0.651 5.446,-4.016c0.017,-0.251 0.09,-0.799 -0.195,-0.847c-0.503,-0.085 -2.265,-0.044 -2.817,0.338c-1.05,0.662 -1.883,2.094 -2.434,4.525Z" style="fill:rgb(131,133,136);"/>
                        <path d="M810.931,1098.39c-0,0 1.925,1.41 1.735,3.253c-0.191,1.842 -1.054,2.618 -1.537,2.362c-0.482,-0.257 0.378,-1.205 0.378,-1.985c0,-0.779 -0.878,-1.869 -2.449,-3.003c0.098,-1.106 1.558,-1.034 1.873,-0.627Z" style="fill:rgb(131,133,136);"/>
                        <path d="M815.512,1091.52c1.555,-1.257 2.53,-2.885 2.691,-4.924c-0.552,-0.317 -1.017,-0.245 -1.599,0.15c-0.418,1.06 -1.165,1.987 -2.161,2.701c-0.131,1.05 0.29,1.693 1.069,2.073Z" style="fill:rgb(131,133,136);"/>
                        <path d="M813.992,1096.23c-0,-0 3.07,1.324 3.202,3.89c0.094,1.85 -0.66,2.511 -1.142,2.255c-0.483,-0.256 0.235,-1.691 -0.231,-2.505c-0.387,-0.677 -1.706,-1.546 -3.485,-2.256c-0.538,-1.276 0.994,-1.865 1.656,-1.384Z" style="fill:rgb(131,133,136);"/>
                        <path d="M815.818,1093.58c0,-0 3.131,0.681 3.754,2.993c0.128,0.476 0.115,2.349 -0.431,2.349c-0.547,0 -0.238,-1.294 -1.077,-2.42c-0.697,-0.937 -1.464,-0.536 -3.242,-1.246c-0.363,-0.681 0.265,-1.859 0.996,-1.676Z" style="fill:rgb(131,133,136);"/>
                        <path d="M817.365,1086.86c1.51,-0.179 2.433,-1.791 2.392,-3.093c-0.111,-3.552 -2.858,-5.88 -6.066,-5.873c-0.579,-0.009 -0.808,0.168 -0.36,0.703c0.786,0.93 0.892,3.225 0.83,4.757c-0.036,0.873 1.584,3.697 3.204,3.506Z" style="fill:rgb(131,133,136);"/>
                        <path d="M816.604,1086.75c-3.077,0.024 -5.214,-0.651 -5.445,-4.016c-0.018,-0.251 -0.09,-0.799 0.195,-0.847c0.502,-0.085 2.265,-0.044 2.817,0.338c1.05,0.662 1.883,2.094 2.433,4.525Z" style="fill:rgb(131,133,136);"/>
                    </g>
                    <path d="M835.038,1089.58l1.371,0l-2.249,3.636l-0,0.184l2.434,3.821l-1.402,-0l-2.08,-3.358l-0.277,-0l-2.08,3.358l-1.401,-0l2.434,-3.821l-0,-0.184l-2.25,-3.636l1.371,0l1.926,3.173l0.277,0l1.926,-3.173Z" style="fill:rgb(131,133,136);fill-rule:nonzero;"/>
                </g>
                <path d="M840.537,123.071l0.608,0l4.563,-21.429l4.259,0l-5.036,23.66l-8.315,0l1.589,-21.429l-0.609,-0l-4.563,21.429l-4.225,0l5.003,-23.66l8.314,0l-1.588,21.429Z" style="fill:rgb(131,133,136);fill-rule:nonzero;"/>
                <path d="M855.307,118.306c-0.045,0.18 -0.067,0.371 -0.067,0.574c-0,0.811 0.31,1.487 0.929,2.028c0.62,0.541 1.437,0.811 2.451,0.811c1.059,0 1.904,-0.191 2.535,-0.574c0.631,-0.383 1.115,-0.834 1.453,-1.352l3.38,2.129c-0.27,0.451 -0.625,0.902 -1.064,1.352c-0.44,0.451 -0.981,0.862 -1.623,1.234c-0.642,0.372 -1.397,0.676 -2.264,0.913c-0.868,0.236 -1.876,0.354 -3.026,0.354c-1.036,0 -1.988,-0.163 -2.856,-0.49c-0.867,-0.326 -1.611,-0.777 -2.23,-1.352c-0.62,-0.574 -1.105,-1.262 -1.454,-2.061c-0.349,-0.8 -0.524,-1.685 -0.524,-2.654c0,-1.532 0.231,-2.974 0.693,-4.326c0.462,-1.352 1.132,-2.535 2.011,-3.549c0.879,-1.014 1.961,-1.814 3.245,-2.4c1.284,-0.586 2.76,-0.879 4.428,-0.879c1.172,0 2.191,0.186 3.059,0.558c0.867,0.372 1.583,0.867 2.146,1.487c0.563,0.62 0.986,1.324 1.268,2.113c0.281,0.788 0.422,1.599 0.422,2.433c0,0.271 -0.017,0.547 -0.051,0.828c-0.033,0.282 -0.095,0.648 -0.186,1.099l-0.371,1.724l-12.304,-0Zm5.341,-6.389c-1.059,0 -1.977,0.265 -2.755,0.795c-0.777,0.529 -1.357,1.177 -1.741,1.943l7.91,0c-0,-0.856 -0.265,-1.526 -0.795,-2.011c-0.529,-0.484 -1.402,-0.727 -2.619,-0.727Z" style="fill:rgb(131,133,136);fill-rule:nonzero;"/>
                <path d="M874.506,132.062l-4.259,0l4.157,-19.502l-0.338,-0.237l-1.554,1.149l-2.197,-3.042l1.825,-1.352c0.473,-0.338 0.963,-0.591 1.47,-0.76c0.507,-0.169 0.997,-0.254 1.47,-0.254c0.902,0 1.691,0.259 2.367,0.778c0.676,0.518 1.092,1.228 1.25,2.129l0.609,0c1.104,-1.938 2.906,-2.907 5.408,-2.907c0.766,0 1.498,0.147 2.197,0.44c0.698,0.293 1.312,0.721 1.842,1.284c0.529,0.563 0.946,1.256 1.25,2.079c0.304,0.822 0.457,1.763 0.457,2.822c-0,1.329 -0.164,2.659 -0.491,3.988c-0.326,1.33 -0.839,2.519 -1.537,3.566c-0.699,1.048 -1.595,1.899 -2.688,2.552c-1.092,0.654 -2.405,0.98 -3.937,0.98c-0.721,0 -1.352,-0.084 -1.893,-0.253c-0.541,-0.169 -1.003,-0.389 -1.386,-0.659c-0.383,-0.271 -0.698,-0.58 -0.946,-0.93c-0.248,-0.349 -0.417,-0.704 -0.507,-1.064l-0.609,-0l-1.96,9.193Zm6.49,-10.343c0.833,0 1.566,-0.152 2.197,-0.456c0.63,-0.304 1.154,-0.727 1.571,-1.267c0.417,-0.541 0.727,-1.183 0.93,-1.927c0.203,-0.744 0.304,-1.555 0.304,-2.434c-0,-0.946 -0.304,-1.768 -0.913,-2.467c-0.608,-0.699 -1.453,-1.048 -2.535,-1.048c-0.766,0 -1.453,0.152 -2.061,0.457c-0.609,0.304 -1.127,0.726 -1.555,1.267c-0.428,0.541 -0.761,1.183 -0.997,1.927c-0.237,0.743 -0.355,1.554 -0.355,2.433c-0,1.059 0.304,1.91 0.912,2.552c0.609,0.642 1.442,0.963 2.502,0.963Z" style="fill:rgb(131,133,136);fill-rule:nonzero;"/>
                <path d="M898.47,112.593l-4.732,0l0,-4.056l5.611,0l1.555,-7.368l4.259,-0l-1.555,7.368l5.813,0l0,4.056l-6.692,0l-1.893,8.687l0.338,0.237l4.529,-3.11l2.13,3.177l-4.901,3.313c-0.857,0.586 -1.769,0.878 -2.738,0.878c-0.496,0 -0.969,-0.084 -1.42,-0.253c-0.45,-0.169 -0.845,-0.411 -1.183,-0.727c-0.338,-0.315 -0.608,-0.698 -0.811,-1.149c-0.203,-0.451 -0.304,-0.958 -0.304,-1.521c-0,-0.18 0.011,-0.344 0.034,-0.49c0.022,-0.147 0.056,-0.344 0.101,-0.592l1.859,-8.45Z" style="fill:rgb(131,133,136);fill-rule:nonzero;"/>
                <path d="M919.325,108.537l-2.096,9.735c-0.09,0.383 -0.135,0.755 -0.135,1.115c-0,0.856 0.237,1.493 0.71,1.91c0.473,0.417 1.104,0.625 1.893,0.625c1.194,0 2.112,-0.388 2.754,-1.166c0.643,-0.777 1.121,-1.876 1.437,-3.295l1.893,-8.924l4.258,0l-2.771,12.777l0.372,0.203l1.216,-0.879l2.13,3.109l-1.589,1.15c-0.428,0.315 -0.873,0.54 -1.335,0.676c-0.462,0.135 -0.918,0.202 -1.369,0.202c-0.924,0 -1.735,-0.264 -2.433,-0.794c-0.699,-0.529 -1.093,-1.301 -1.183,-2.315l-0.609,-0c-0.496,1.149 -1.166,1.955 -2.011,2.417c-0.845,0.461 -1.797,0.692 -2.856,0.692c-1.465,0 -2.659,-0.445 -3.583,-1.335c-0.924,-0.89 -1.386,-2.135 -1.386,-3.735c0,-0.563 0.068,-1.171 0.203,-1.825l2.231,-10.343l4.259,0Z" style="fill:rgb(131,133,136);fill-rule:nonzero;"/>
                <path d="M945.283,115.568c0.09,-0.428 0.135,-0.789 0.135,-1.082c0,-0.811 -0.236,-1.442 -0.709,-1.893c-0.474,-0.45 -1.116,-0.676 -1.927,-0.676c-1.014,0 -1.881,0.361 -2.603,1.082c-0.721,0.721 -1.205,1.69 -1.453,2.907l-1.994,9.396l-4.259,0l3.549,-16.765l4.09,0l-0.575,2.704l0.609,0c0.54,-1.126 1.256,-1.937 2.146,-2.433c0.89,-0.496 1.876,-0.744 2.957,-0.744c1.42,0 2.552,0.428 3.397,1.285c0.845,0.856 1.268,2.061 1.268,3.616c-0,0.361 -0.023,0.693 -0.068,0.997c-0.045,0.305 -0.101,0.637 -0.169,0.997l-1.352,6.321l0.338,0.237l1.454,-1.014l2.129,3.177l-1.825,1.217c-0.856,0.586 -1.769,0.878 -2.738,0.878c-0.496,0 -0.969,-0.084 -1.42,-0.253c-0.45,-0.169 -0.845,-0.406 -1.183,-0.71c-0.338,-0.304 -0.608,-0.676 -0.811,-1.115c-0.203,-0.44 -0.304,-0.941 -0.304,-1.504c0,-0.293 0.034,-0.631 0.101,-1.014l1.217,-5.611Z" style="fill:rgb(131,133,136);fill-rule:nonzero;"/>
                <path d="M958.736,118.306c-0.045,0.18 -0.068,0.371 -0.068,0.574c0,0.811 0.31,1.487 0.93,2.028c0.619,0.541 1.436,0.811 2.45,0.811c1.059,0 1.904,-0.191 2.535,-0.574c0.631,-0.383 1.115,-0.834 1.453,-1.352l3.381,2.129c-0.271,0.451 -0.626,0.902 -1.065,1.352c-0.44,0.451 -0.98,0.862 -1.623,1.234c-0.642,0.372 -1.397,0.676 -2.264,0.913c-0.868,0.236 -1.876,0.354 -3.025,0.354c-1.037,0 -1.989,-0.163 -2.856,-0.49c-0.868,-0.326 -1.612,-0.777 -2.231,-1.352c-0.62,-0.574 -1.104,-1.262 -1.454,-2.061c-0.349,-0.8 -0.524,-1.685 -0.524,-2.654c0,-1.532 0.231,-2.974 0.693,-4.326c0.462,-1.352 1.133,-2.535 2.011,-3.549c0.879,-1.014 1.961,-1.814 3.245,-2.4c1.285,-0.586 2.761,-0.879 4.428,-0.879c1.172,0 2.191,0.186 3.059,0.558c0.868,0.372 1.583,0.867 2.146,1.487c0.564,0.62 0.986,1.324 1.268,2.113c0.281,0.788 0.422,1.599 0.422,2.433c0,0.271 -0.017,0.547 -0.05,0.828c-0.034,0.282 -0.096,0.648 -0.186,1.099l-0.372,1.724l-12.303,-0Zm5.34,-6.389c-1.059,0 -1.977,0.265 -2.755,0.795c-0.777,0.529 -1.357,1.177 -1.74,1.943l7.909,0c-0,-0.856 -0.265,-1.526 -0.794,-2.011c-0.53,-0.484 -1.403,-0.727 -2.62,-0.727Z" style="fill:rgb(131,133,136);fill-rule:nonzero;"/>
            </g>
            <g id="LEDs">
                <g>
                    <path d="M863.888,469.197c-3.838,-0.66 -7.784,-1.003 -11.809,-1.003c-38.279,-0 -69.357,31.077 -69.357,69.357c-0,22.428 10.668,42.383 27.203,55.065l-1.37,1.789c-17.071,-13.094 -28.087,-33.698 -28.087,-56.854c0,-39.523 32.088,-71.611 71.611,-71.611c3.937,0 7.801,0.319 11.566,0.931c-0.071,0.269 -0.109,0.552 -0.109,0.843c0,0.533 0.127,1.037 0.352,1.483Zm6.206,-0.968c15.003,3.894 28.101,12.534 37.593,24.22c-0.624,0.557 -1.036,1.348 -1.097,2.235c-9.364,-11.888 -22.53,-20.643 -37.658,-24.425c0.608,-0.502 1.034,-1.217 1.162,-2.03Zm41.498,29.503c4.26,6.351 7.531,13.42 9.591,20.986c-0.784,0.012 -1.529,0.181 -2.206,0.478c-2.091,-7.627 -5.453,-14.731 -9.843,-21.07c0.24,0.056 0.49,0.085 0.747,0.085c0.626,0 1.212,-0.175 1.711,-0.479Zm11.683,32.08c0.274,2.542 0.414,5.124 0.414,7.739c0,19.154 -7.536,36.562 -19.804,49.418c-0.351,-0.687 -0.806,-1.313 -1.343,-1.858c5.565,-5.902 10.108,-12.779 13.343,-20.346c0.713,-0.904 1.176,-2.014 1.284,-3.225c2.759,-7.477 4.267,-15.559 4.267,-23.989c-0,-2.494 -0.132,-4.957 -0.389,-7.383c0.075,0.003 0.15,0.005 0.225,0.005c0.705,-0 1.38,-0.128 2.003,-0.361Zm-33.006,57.626l-1.052,-1.374c2.493,-1.912 4.835,-4.012 7.004,-6.278c1.007,0.878 2.324,1.41 3.763,1.41c1.427,0 2.732,-0.522 3.735,-1.386c-1.065,1.299 -2.177,2.557 -3.335,3.771c-0.97,-0.456 -2.054,-0.712 -3.196,-0.712c-3.104,0 -5.771,1.884 -6.919,4.569Zm3.989,-11.869c-2.331,2.584 -4.896,4.953 -7.66,7.073l-1.284,-1.677c5.514,-4.229 10.2,-9.484 13.773,-15.479c0.409,0.163 0.855,0.253 1.322,0.253c0.373,0 0.732,-0.057 1.07,-0.163c-0.838,1.473 -1.741,2.905 -2.703,4.293c-2.582,0.555 -4.519,2.853 -4.519,5.6c-0,0.033 -0,0.067 0.001,0.1Zm8.069,-16.429c1.701,-3.949 2.95,-8.139 3.681,-12.502c0.329,0.98 0.915,1.842 1.679,2.506c-0.86,4.143 -2.173,8.121 -3.884,11.881c-0.263,-0.785 -0.79,-1.448 -1.476,-1.885Zm4.275,-17.387c0.105,-1.387 0.159,-2.788 0.159,-4.202c-0,-7.488 -1.508,-14.627 -4.237,-21.128c0.243,0.057 0.498,0.088 0.759,0.088c0.512,-0 0.996,-0.117 1.429,-0.325c1.943,4.776 3.254,9.876 3.83,15.194c-0.468,0.57 -0.749,1.298 -0.749,2.091c0,0.955 0.407,1.816 1.057,2.419c0.015,0.551 0.023,1.105 0.023,1.661c0,0.725 -0.013,1.448 -0.04,2.166c-0.913,0.468 -1.684,1.174 -2.231,2.036Zm-6.291,-29.973c-9.217,-17.201 -27.368,-28.911 -48.232,-28.911c-30.18,-0 -54.682,24.502 -54.682,54.682c-0,17.682 8.411,33.416 21.447,43.414l-1.284,1.677c-13.54,-10.384 -22.276,-26.726 -22.276,-45.091c0,-31.346 25.449,-56.795 56.795,-56.795c21.445,0 40.13,11.912 49.794,29.474c-0.681,0.323 -1.234,0.872 -1.562,1.55Zm12.486,18.867c-1.922,-17.069 -10.89,-32.019 -23.921,-41.87c1.627,-0.636 2.773,-2.157 2.773,-3.931c0,-0.398 -0.058,-0.784 -0.166,-1.149c12.274,8.999 21.362,22.09 25.25,37.255c-0.745,0.967 -1.189,2.179 -1.189,3.493c0,2.08 1.112,3.903 2.773,4.907c0.33,2.687 0.5,5.423 0.5,8.199c0,6.838 -1.031,13.437 -2.945,19.651c-1.118,-1.408 -2.844,-2.311 -4.78,-2.311c-0.138,-0 -0.276,0.004 -0.412,0.014c0.425,-1.436 0.799,-2.893 1.119,-4.37c2.994,-0.186 5.369,-2.676 5.369,-5.717c0,-2.563 -1.687,-4.735 -4.01,-5.466c0.017,-0.598 0.026,-1.199 0.026,-1.801c-0,-0.507 -0.006,-1.011 -0.019,-1.514c0.748,-0.605 1.226,-1.53 1.226,-2.566c-0,-1.197 -0.639,-2.245 -1.594,-2.824Zm-30.088,-45.971c-9.008,-5.233 -19.472,-8.23 -30.63,-8.23c-33.725,-0 -61.105,27.38 -61.105,61.105c0,19.759 9.399,37.34 23.966,48.513l-3.423,4.473c-15.911,-12.203 -26.176,-31.405 -26.176,-52.986c-0,-36.834 29.904,-66.739 66.738,-66.739c12.748,0 24.666,3.582 34.801,9.794c-2.271,0.142 -4.081,1.897 -4.171,4.07Zm29.251,82.355c-1.938,3.926 -4.251,7.634 -6.892,11.078c0.412,-0.791 0.644,-1.689 0.644,-2.64c0,-1.914 -0.94,-3.609 -2.383,-4.649c1.192,-1.832 2.288,-3.73 3.282,-5.69c1.115,1.206 2.711,1.962 4.481,1.962c0.295,0 0.584,-0.021 0.868,-0.061Zm-57.708,-96.019c-1.2,0 -2.173,0.974 -2.173,2.173c-0,1.2 0.973,2.173 2.173,2.173c1.199,0 2.173,-0.973 2.173,-2.173c-0,-1.199 -0.974,-2.173 -2.173,-2.173Z" style="fill:rgb(213,213,213);"/>
                </g>
                <path d="M912.841,382.903c-4.611,-3.537 -8.983,-7.371 -13.086,-11.474c-23.881,-23.881 -38.66,-56.864 -38.66,-93.271c0,-36.408 14.779,-69.391 38.66,-93.272c23.881,-23.881 56.864,-38.659 93.271,-38.659c36.408,-0 69.391,14.778 93.272,38.659c23.881,23.881 38.659,56.864 38.659,93.272c0,36.407 -14.778,69.39 -38.659,93.271c-4.103,4.103 -8.475,7.937 -13.086,11.474l-1.432,-1.87c30.891,-23.692 50.823,-60.974 50.823,-102.875c-0,-71.515 -58.062,-129.576 -129.577,-129.576c-71.515,-0 -129.576,58.061 -129.576,129.576c0,41.901 19.932,79.183 50.822,102.875l-1.431,1.87Zm4.759,-6.216c-29.586,-22.692 -48.675,-58.399 -48.675,-98.529c-0,-68.494 55.608,-124.102 124.101,-124.102c68.494,0 124.102,55.608 124.102,124.102c-0,40.13 -19.089,75.837 -48.675,98.529l-9.416,-12.3c25.893,-19.858 42.599,-51.108 42.599,-86.229c0,-59.944 -48.666,-108.61 -108.61,-108.61c-59.943,-0 -108.609,48.666 -108.609,108.61c-0,35.121 16.706,66.371 42.598,86.229l-9.415,12.3Z" style="fill:rgb(213,213,213);"/>
                <g>
                    <path d="M1041.16,460.103c-33.862,4.224 -60.101,33.144 -60.101,68.143c-0,18.625 7.43,35.528 19.485,47.904l-2.593,3.388c-13.052,-13.176 -21.117,-31.299 -21.117,-51.292c-0,-38.242 29.51,-69.646 66.981,-72.662c-1.3,1.182 -2.245,2.749 -2.655,4.519Zm14.492,-4.519c37.471,3.016 66.981,34.42 66.981,72.662c0,19.993 -8.065,38.116 -21.117,51.292l-2.593,-3.388c12.055,-12.376 19.485,-29.279 19.485,-47.904c0,-34.999 -26.239,-63.919 -60.101,-68.143c-0.411,-1.77 -1.355,-3.337 -2.655,-4.519Zm2.415,9.341c31.314,4.088 55.528,30.9 55.528,63.321c-0,17.066 -6.709,32.578 -17.631,44.039l-2.602,-3.398c9.929,-10.654 16.008,-24.943 16.008,-40.641c-0,-31.022 -23.739,-56.544 -54.027,-59.375c1.241,-1.028 2.194,-2.389 2.724,-3.946Zm-13.944,3.946c-30.287,2.831 -54.026,28.353 -54.026,59.375c0,15.698 6.079,29.987 16.008,40.641l-2.602,3.398c-10.922,-11.461 -17.631,-26.973 -17.631,-44.039c0,-32.421 24.214,-59.233 55.528,-63.321c0.53,1.557 1.483,2.918 2.723,3.946Z" style="fill:rgb(213,213,213);"/>
                    <circle cx="1049.74" cy="462.093" r="6.221" style="fill:rgb(213,213,213);"/>
                </g>
                <g>
                    <path d="M700.861,425.508c-18.379,-14.735 -30.156,-37.373 -30.156,-62.741c-0,-44.36 36.014,-80.375 80.375,-80.375c32.292,0 60.161,19.085 72.935,46.58c-2.487,0.055 -4.728,1.116 -6.332,2.791c-11.699,-25.065 -37.137,-42.453 -66.603,-42.453c-40.542,0 -73.458,32.915 -73.458,73.457c0,23.184 10.764,43.874 27.562,57.341l-4.323,5.4Zm128.691,-80.19c1.246,5.619 1.903,11.458 1.903,17.449c-0,25.368 -11.777,48.006 -30.157,62.741l-4.322,-5.4c16.798,-13.467 27.561,-34.157 27.561,-57.341c0,-5.428 -0.59,-10.719 -1.709,-15.813c0.453,0.07 0.917,0.106 1.389,0.106c1.994,0 3.839,-0.647 5.335,-1.742Zm-120.281,69.684c-15.303,-12.268 -25.107,-31.115 -25.107,-52.235c-0,-36.932 29.984,-66.916 66.916,-66.916c36.932,0 66.916,29.984 66.916,66.916c-0,21.12 -9.805,39.967 -25.107,52.235l-1.619,-2.022c14.71,-11.793 24.135,-29.911 24.135,-50.213c0,-35.502 -28.823,-64.325 -64.325,-64.325c-35.502,-0 -64.326,28.823 -64.326,64.325c0,20.302 9.425,38.42 24.135,50.213l-1.618,2.022Zm3.069,-3.834c-14.179,-11.368 -23.265,-28.831 -23.265,-48.401c0,-34.221 27.784,-62.004 62.005,-62.004c34.221,0 62.004,27.783 62.004,62.004c0,19.57 -9.085,37.033 -23.264,48.401l-1.5,-1.874c13.63,-10.927 22.364,-27.715 22.364,-46.527c-0,-32.896 -26.708,-59.603 -59.604,-59.603c-32.897,-0 -59.604,26.707 -59.604,59.603c-0,18.812 8.733,35.6 22.363,46.527l-1.499,1.874Z" style="fill:rgb(213,213,213);"/>
                    <circle cx="824.217" cy="338.015" r="6.221" style="fill:rgb(213,213,213);"/>
                </g>
            </g>
            <g>
                <circle cx="734.876" cy="854.031" r="37.913" style="fill:rgb(222,222,222);"/>
                <circle cx="845.681" cy="854.031" r="37.913" style="fill:rgb(222,222,222);"/>
                <circle cx="956.429" cy="975.392" r="37.913" style="fill:rgb(222,222,222);"/>
                <circle cx="956.429" cy="854.031" r="37.913" style="fill:rgb(222,222,222);"/>
                <circle cx="1065.72" cy="854.031" r="37.913" style="fill:rgb(222,222,222);"/>
                <path d="M773.012,945.061c0,-4.184 -3.398,-7.582 -7.582,-7.582l-60.661,-0c-4.185,-0 -7.583,3.398 -7.583,7.582l0,60.661c0,4.185 3.398,7.583 7.583,7.583l60.661,-0c4.184,-0 7.582,-3.398 7.582,-7.583l0,-60.661Z" style="fill:rgb(222,222,222);"/>
                <path d="M883.594,945.061c-0,-4.184 -3.398,-7.582 -7.583,-7.582l-60.661,-0c-4.185,-0 -7.582,3.398 -7.582,7.582l-0,60.661c-0,4.185 3.397,7.583 7.582,7.583l60.661,-0c4.185,-0 7.583,-3.398 7.583,-7.583l-0,-60.661Z" style="fill:rgb(222,222,222);"/>
            </g>
            <g>
                <g id="Flat-jack" serif:id="Flat jack">
                    <path d="M734.697,820.33c0.248,-0.143 0.553,-0.143 0.801,0c3.255,1.88 25.334,14.627 28.589,16.506c0.248,0.143 0.401,0.408 0.401,0.694c-0,3.759 0.001,29.253 0.001,33.012c0,0.286 -0.153,0.551 -0.4,0.694c-3.256,1.879 -25.333,14.626 -28.588,16.506c-0.248,0.143 -0.553,0.143 -0.801,-0c-3.255,-1.88 -25.334,-14.627 -28.589,-16.506c-0.248,-0.143 -0.4,-0.408 -0.4,-0.694c-0,-3.759 -0.002,-29.253 -0.002,-33.012c0,-0.286 0.153,-0.551 0.401,-0.694c3.255,-1.879 25.332,-14.626 28.587,-16.506Z" style="fill:rgb(213,213,213);"/>
                    <path d="M733.759,818.707c0.828,-0.478 1.849,-0.478 2.677,-0l28.589,16.506c0.827,0.478 1.338,1.361 1.338,2.317l0.001,33.012c0,0.956 -0.51,1.84 -1.338,2.318l-28.587,16.505c-0.828,0.479 -1.848,0.479 -2.676,0.001l-28.589,-16.506c-0.828,-0.478 -1.338,-1.362 -1.338,-2.318l-0.002,-33.012c0,-0.956 0.51,-1.839 1.338,-2.317l28.587,-16.506Zm0.938,1.623l-28.587,16.506c-0.248,0.143 -0.401,0.408 -0.401,0.694l0.002,33.012c-0,0.286 0.152,0.551 0.4,0.694l28.589,16.506c0.248,0.143 0.553,0.143 0.801,-0l28.588,-16.506c0.247,-0.143 0.4,-0.408 0.4,-0.694l-0.001,-33.012c-0,-0.286 -0.153,-0.551 -0.401,-0.694l-28.589,-16.506c-0.248,-0.143 -0.553,-0.143 -0.801,0Z" style="fill:rgb(169,169,169);"/>
                    <ellipse cx="735.099" cy="854.036" rx="17.849" ry="17.848" style="fill:rgb(131,133,136);"/>
                </g>
                <g id="Flat-jack1" serif:id="Flat jack">
                    <path d="M734.53,941.686c0.248,-0.143 0.553,-0.143 0.801,0c3.255,1.88 25.334,14.627 28.589,16.506c0.248,0.143 0.4,0.408 0.4,0.694c0,3.759 0.002,29.253 0.002,33.012c-0,0.286 -0.153,0.55 -0.401,0.694c-3.255,1.879 -25.332,14.626 -28.587,16.505c-0.248,0.144 -0.553,0.144 -0.801,0.001c-3.255,-1.88 -25.334,-14.627 -28.589,-16.506c-0.248,-0.144 -0.401,-0.408 -0.401,-0.694c0,-3.759 -0.001,-29.253 -0.001,-33.012c-0,-0.286 0.153,-0.551 0.4,-0.694c3.255,-1.879 25.333,-14.626 28.588,-16.506Z" style="fill:rgb(213,213,213);"/>
                    <path d="M733.592,940.062c0.828,-0.478 1.848,-0.478 2.676,0l28.589,16.506c0.828,0.478 1.338,1.362 1.338,2.318l0.002,33.012c-0,0.956 -0.51,1.839 -1.338,2.317l-28.587,16.506c-0.828,0.478 -1.849,0.478 -2.677,0l-28.589,-16.506c-0.828,-0.478 -1.338,-1.361 -1.338,-2.317l-0.001,-33.012c-0,-0.956 0.51,-1.84 1.338,-2.318l28.587,-16.506Zm0.938,1.624l-28.588,16.506c-0.247,0.143 -0.4,0.408 -0.4,0.694l0.001,33.012c0,0.286 0.153,0.55 0.401,0.694l28.589,16.506c0.248,0.143 0.553,0.143 0.801,-0.001l28.587,-16.505c0.248,-0.144 0.401,-0.408 0.401,-0.694l-0.002,-33.012c0,-0.286 -0.152,-0.551 -0.4,-0.694l-28.589,-16.506c-0.248,-0.143 -0.553,-0.143 -0.801,0Z" style="fill:rgb(169,169,169);"/>
                    <ellipse cx="734.932" cy="975.392" rx="17.849" ry="17.848" style="fill:rgb(131,133,136);"/>
                </g>
                <g id="Flat-jack2" serif:id="Flat jack">
                    <path d="M845.446,820.33c0.248,-0.143 0.553,-0.143 0.801,0c3.255,1.88 25.334,14.627 28.589,16.506c0.248,0.143 0.4,0.408 0.4,0.694c0.001,3.759 0.002,29.253 0.002,33.012c-0,0.286 -0.153,0.551 -0.401,0.694c-3.255,1.879 -25.332,14.626 -28.587,16.506c-0.248,0.143 -0.553,0.143 -0.801,-0c-3.255,-1.88 -25.334,-14.627 -28.589,-16.506c-0.248,-0.143 -0.401,-0.408 -0.401,-0.694c0,-3.759 -0.001,-29.253 -0.001,-33.012c-0,-0.286 0.153,-0.551 0.401,-0.694c3.255,-1.879 25.332,-14.626 28.587,-16.506Z" style="fill:rgb(213,213,213);"/>
                    <path d="M844.508,818.707c0.828,-0.478 1.848,-0.478 2.676,-0l28.589,16.506c0.828,0.478 1.338,1.361 1.338,2.317l0.002,33.012c-0,0.956 -0.51,1.84 -1.338,2.318l-28.587,16.505c-0.828,0.479 -1.849,0.479 -2.677,0.001l-28.588,-16.506c-0.828,-0.478 -1.338,-1.362 -1.339,-2.318l-0.001,-33.012c-0,-0.956 0.51,-1.839 1.338,-2.317l28.587,-16.506Zm0.938,1.623l-28.587,16.506c-0.248,0.143 -0.401,0.408 -0.401,0.694l0.001,33.012c0,0.286 0.153,0.551 0.401,0.694l28.589,16.506c0.248,0.143 0.553,0.143 0.801,-0l28.587,-16.506c0.248,-0.143 0.401,-0.408 0.401,-0.694l-0.002,-33.012c0,-0.286 -0.152,-0.551 -0.4,-0.694l-28.589,-16.506c-0.248,-0.143 -0.553,-0.143 -0.801,0Z" style="fill:rgb(169,169,169);"/>
                    <ellipse cx="845.848" cy="854.036" rx="17.849" ry="17.848" style="fill:rgb(131,133,136);"/>
                </g>
                <g id="Flat-jack3" serif:id="Flat jack">
                    <path d="M845.278,941.686c0.248,-0.143 0.554,-0.143 0.802,0c3.255,1.88 25.333,14.627 28.588,16.506c0.248,0.143 0.401,0.408 0.401,0.694c0,3.759 0.001,29.253 0.002,33.012c-0,0.286 -0.153,0.55 -0.401,0.694c-3.255,1.879 -25.332,14.626 -28.587,16.505c-0.248,0.144 -0.554,0.144 -0.801,0.001c-3.256,-1.88 -25.334,-14.627 -28.589,-16.506c-0.248,-0.144 -0.401,-0.408 -0.401,-0.694c-0,-3.759 -0.001,-29.253 -0.001,-33.012c-0,-0.286 0.152,-0.551 0.4,-0.694c3.255,-1.879 25.332,-14.626 28.587,-16.506Z" style="fill:rgb(213,213,213);"/>
                    <path d="M844.341,940.062c0.828,-0.478 1.848,-0.478 2.676,0l28.589,16.506c0.828,0.478 1.338,1.362 1.338,2.318l0.002,33.012c-0,0.956 -0.51,1.839 -1.338,2.317l-28.588,16.506c-0.828,0.478 -1.848,0.478 -2.676,0l-28.589,-16.506c-0.828,-0.478 -1.338,-1.361 -1.338,-2.317l-0.001,-33.012c-0,-0.956 0.51,-1.84 1.338,-2.318l28.587,-16.506Zm0.937,1.624l-28.587,16.506c-0.248,0.143 -0.4,0.408 -0.4,0.694l0.001,33.012c0,0.286 0.153,0.55 0.401,0.694l28.589,16.506c0.247,0.143 0.553,0.143 0.801,-0.001l28.587,-16.505c0.248,-0.144 0.401,-0.408 0.401,-0.694l-0.002,-33.012c0,-0.286 -0.153,-0.551 -0.401,-0.694l-28.588,-16.506c-0.248,-0.143 -0.554,-0.143 -0.802,0Z" style="fill:rgb(169,169,169);"/>
                    <ellipse cx="845.681" cy="975.392" rx="17.849" ry="17.848" style="fill:rgb(131,133,136);"/>
                </g>
                <g id="Flat-jack4" serif:id="Flat jack">
                    <path d="M956.027,820.33c0.248,-0.143 0.554,-0.143 0.801,0c3.256,1.88 25.334,14.627 28.589,16.506c0.248,0.143 0.401,0.408 0.401,0.694c-0,3.759 0.001,29.253 0.001,33.012c0,0.286 -0.152,0.551 -0.4,0.694c-3.255,1.879 -25.332,14.626 -28.588,16.506c-0.247,0.143 -0.553,0.143 -0.801,-0c-3.255,-1.88 -25.333,-14.627 -28.589,-16.506c-0.247,-0.143 -0.4,-0.408 -0.4,-0.694c-0,-3.759 -0.001,-29.253 -0.002,-33.012c0,-0.286 0.153,-0.551 0.401,-0.694c3.255,-1.879 25.332,-14.626 28.587,-16.506Z" style="fill:rgb(213,213,213);"/>
                    <path d="M955.09,818.707c0.828,-0.478 1.848,-0.478 2.676,-0l28.589,16.506c0.828,0.478 1.338,1.361 1.338,2.317l0.001,33.012c0,0.956 -0.51,1.84 -1.338,2.318l-28.587,16.505c-0.828,0.479 -1.848,0.479 -2.676,0.001l-28.589,-16.506c-0.828,-0.478 -1.338,-1.362 -1.338,-2.318l-0.002,-33.012c0,-0.956 0.51,-1.839 1.338,-2.317l28.588,-16.506Zm0.937,1.623l-28.587,16.506c-0.248,0.143 -0.401,0.408 -0.401,0.694l0.002,33.012c-0,0.286 0.153,0.551 0.4,0.694l28.589,16.506c0.248,0.143 0.554,0.143 0.801,-0l28.588,-16.506c0.248,-0.143 0.4,-0.408 0.4,-0.694l-0.001,-33.012c-0,-0.286 -0.153,-0.551 -0.401,-0.694l-28.589,-16.506c-0.247,-0.143 -0.553,-0.143 -0.801,0Z" style="fill:rgb(169,169,169);"/>
                    <ellipse cx="956.429" cy="854.036" rx="17.849" ry="17.848" style="fill:rgb(131,133,136);"/>
                </g>
                <g id="Flat-jack5" serif:id="Flat jack">
                    <path d="M955.86,941.686c0.248,-0.143 0.553,-0.143 0.801,0c3.255,1.88 25.334,14.627 28.589,16.506c0.248,0.143 0.4,0.408 0.4,0.694c0.001,3.759 0.002,29.253 0.002,33.012c0,0.286 -0.153,0.55 -0.401,0.694c-3.255,1.879 -25.332,14.626 -28.587,16.505c-0.248,0.144 -0.553,0.144 -0.801,0.001c-3.255,-1.88 -25.334,-14.627 -28.589,-16.506c-0.248,-0.144 -0.4,-0.408 -0.4,-0.694c-0.001,-3.759 -0.002,-29.253 -0.002,-33.012c0,-0.286 0.153,-0.551 0.401,-0.694c3.255,-1.879 25.332,-14.626 28.587,-16.506Z" style="fill:rgb(213,213,213);"/>
                    <path d="M954.922,940.062c0.828,-0.478 1.849,-0.478 2.677,0l28.588,16.506c0.828,0.478 1.338,1.362 1.338,2.318l0.002,33.012c0,0.956 -0.51,1.839 -1.338,2.317l-28.587,16.506c-0.828,0.478 -1.848,0.478 -2.677,0l-28.588,-16.506c-0.828,-0.478 -1.338,-1.361 -1.338,-2.317l-0.002,-33.012c-0,-0.956 0.51,-1.84 1.338,-2.318l28.587,-16.506Zm0.938,1.624l-28.587,16.506c-0.248,0.143 -0.401,0.408 -0.401,0.694l0.002,33.012c-0,0.286 0.152,0.55 0.4,0.694l28.589,16.506c0.248,0.143 0.553,0.143 0.801,-0.001l28.587,-16.505c0.248,-0.144 0.401,-0.408 0.401,-0.694l-0.002,-33.012c0,-0.286 -0.152,-0.551 -0.4,-0.694l-28.589,-16.506c-0.248,-0.143 -0.553,-0.143 -0.801,0Z" style="fill:rgb(169,169,169);"/>
                    <ellipse cx="956.262" cy="975.392" rx="17.849" ry="17.848" style="fill:rgb(131,133,136);"/>
                </g>
                <g id="Flat-jack6" serif:id="Flat jack">
                    <path d="M1065.4,820.33c0.247,-0.143 0.553,-0.143 0.801,0c3.255,1.88 25.333,14.627 28.589,16.506c0.247,0.143 0.4,0.408 0.4,0.694c0,3.759 0.002,29.253 0.002,33.012c-0,0.286 -0.153,0.551 -0.401,0.694c-3.255,1.879 -25.332,14.626 -28.587,16.506c-0.248,0.143 -0.553,0.143 -0.801,-0c-3.256,-1.88 -25.334,-14.627 -28.589,-16.506c-0.248,-0.143 -0.401,-0.408 -0.401,-0.694c0,-3.759 -0.001,-29.253 -0.001,-33.012c-0,-0.286 0.152,-0.551 0.4,-0.694c3.255,-1.879 25.332,-14.626 28.588,-16.506Z" style="fill:rgb(213,213,213);"/>
                    <path d="M1064.46,818.707c0.828,-0.478 1.848,-0.478 2.676,-0l28.589,16.506c0.828,0.478 1.338,1.361 1.338,2.317l0.002,33.012c-0,0.956 -0.51,1.84 -1.338,2.318l-28.588,16.505c-0.828,0.479 -1.848,0.479 -2.676,0.001l-28.589,-16.506c-0.828,-0.478 -1.338,-1.362 -1.338,-2.318l-0.001,-33.012c-0,-0.956 0.51,-1.839 1.338,-2.317l28.587,-16.506Zm0.938,1.623l-28.588,16.506c-0.248,0.143 -0.4,0.408 -0.4,0.694l0.001,33.012c0,0.286 0.153,0.551 0.401,0.694l28.589,16.506c0.248,0.143 0.553,0.143 0.801,-0l28.587,-16.506c0.248,-0.143 0.401,-0.408 0.401,-0.694l-0.002,-33.012c0,-0.286 -0.153,-0.551 -0.4,-0.694l-28.589,-16.506c-0.248,-0.143 -0.554,-0.143 -0.801,0Z" style="fill:rgb(169,169,169);"/>
                    <ellipse cx="1065.8" cy="854.036" rx="17.849" ry="17.848" style="fill:rgb(131,133,136);"/>
                </g>
                <g id="Flat-jack7" serif:id="Flat jack">
                    <path d="M1065.23,941.686c0.248,-0.143 0.554,-0.143 0.801,0c3.256,1.88 25.334,14.627 28.589,16.506c0.248,0.143 0.401,0.408 0.401,0.694c0,3.759 0.001,29.253 0.001,33.012c0,0.286 -0.152,0.55 -0.4,0.694c-3.255,1.879 -25.332,14.626 -28.587,16.505c-0.248,0.144 -0.554,0.144 -0.802,0.001c-3.255,-1.88 -25.333,-14.627 -28.588,-16.506c-0.248,-0.144 -0.401,-0.408 -0.401,-0.694c-0,-3.759 -0.001,-29.253 -0.002,-33.012c0,-0.286 0.153,-0.551 0.401,-0.694c3.255,-1.879 25.332,-14.626 28.587,-16.506Z" style="fill:rgb(213,213,213);"/>
                    <path d="M1064.3,940.062c0.828,-0.478 1.848,-0.478 2.676,0l28.589,16.506c0.828,0.478 1.338,1.362 1.338,2.318l0.001,33.012c0,0.956 -0.51,1.839 -1.338,2.317l-28.587,16.506c-0.828,0.478 -1.848,0.478 -2.676,0l-28.589,-16.506c-0.828,-0.478 -1.338,-1.361 -1.338,-2.317l-0.002,-33.012c0,-0.956 0.51,-1.84 1.338,-2.318l28.588,-16.506Zm0.937,1.624l-28.587,16.506c-0.248,0.143 -0.401,0.408 -0.401,0.694l0.002,33.012c-0,0.286 0.153,0.55 0.401,0.694l28.588,16.506c0.248,0.143 0.554,0.143 0.802,-0.001l28.587,-16.505c0.248,-0.144 0.4,-0.408 0.4,-0.694l-0.001,-33.012c-0,-0.286 -0.153,-0.551 -0.401,-0.694l-28.589,-16.506c-0.247,-0.143 -0.553,-0.143 -0.801,0Z" style="fill:rgb(169,169,169);"/>
                    <ellipse cx="1065.63" cy="975.392" rx="17.849" ry="17.848" style="fill:rgb(131,133,136);"/>
                </g>
                <g id="Tall-Trimmer" serif:id="Tall Trimmer">
                    <circle cx="737.963" cy="721.754" r="23.953" style="fill:rgb(131,133,136);"/>
                    <rect x="735.629" y="697.801" width="4.667" height="12.839" style="fill:white;"/>
                </g>
                <g id="Tall-Trimmer1" serif:id="Tall Trimmer">
                    <circle cx="900.409" cy="721.754" r="23.953" style="fill:rgb(131,133,136);"/>
                    <rect x="898.075" y="697.801" width="4.667" height="12.839" style="fill:white;"/>
                </g>
                <g id="_1900h" serif:id="1900h">
                    <circle cx="750.679" cy="362.767" r="50.7" style="fill:rgb(131,133,136);"/>
                    <rect x="748.835" y="318.18" width="3.687" height="35.149" style="fill:white;"/>
                </g>
                <g id="_1900h1" serif:id="1900h">
                    <circle cx="852.48" cy="537.551" r="50.7" style="fill:rgb(131,133,136);"/>
                    <rect x="850.636" y="492.963" width="3.687" height="35.149" style="fill:white;"/>
                </g>
                <g id="_1900h2" serif:id="1900h">
                    <circle cx="1049.94" cy="528.246" r="50.7" style="fill:rgb(131,133,136);"/>
                    <rect x="1048.09" y="483.659" width="3.687" height="35.149" style="fill:white;"/>
                </g>
                <g id="Large-MXR" serif:id="Large MXR">
                    <circle cx="993.026" cy="277.497" r="99.803" style="fill:rgb(131,133,136);"/>
                    <rect x="988.856" y="202.762" width="8.341" height="69.654" style="fill:white;"/>
                    <circle cx="993.026" cy="187.265" r="4.171" style="fill:white;"/>
                </g>
                <g id="Tall-Trimmer2" serif:id="Tall Trimmer">
                    <circle cx="1062.86" cy="721.754" r="23.953" style="fill:rgb(131,133,136);"/>
                    <rect x="1060.52" y="697.801" width="4.667" height="12.839" style="fill:white;"/>
                </g>
            </g>
        </g>
        <g>
            <path d="M1088.16,1014.49c-21.53,12.431 -49.103,5.043 -61.533,-16.488c-12.431,-21.53 -5.043,-49.103 16.488,-61.533c21.53,-12.431 49.102,-5.043 61.533,16.488c12.431,21.53 5.043,49.102 -16.488,61.533Z" style="fill:none;stroke:rgb(35,31,32);stroke-width:10.42px;"/>
            <g id="Left-in" serif:id="Left in">
                <path d="M1053.37,1163.67l-0.002,-5.339l-4.523,-0.142l-0.007,-20.66l4.523,0.142l-0.002,-5.378l-5.149,-0.162l-0.002,-7.602c-1.679,-0.484 -2.924,-2.074 -2.925,-3.918l-0.023,-69.677c-0.001,-2.178 1.733,-3.892 3.869,-3.824l1.926,0.06l-0.001,-2.711l6.207,0.195l-0.014,-41.794l0.781,0.024l-0.001,-5.183c-0.001,-1.216 0.968,-2.174 2.161,-2.136l-0.564,-0.018l-0.82,-14.749l4.367,-5.405l5.234,0.155l4.347,5.544l-1.454,14.822l0.276,0.009c1.193,0.037 2.162,1.055 2.163,2.271l0.002,5.184l0.507,0.016l0.014,41.794l6.193,0.195l0.001,2.711l1.988,0.062c2.136,0.067 3.872,1.89 3.872,4.068l0.024,69.677c0,1.775 -1.151,3.241 -2.734,3.687l0.003,7.655l-5.313,-0.167l0.002,5.379l4.578,0.144l0.007,20.66l-4.578,-0.144l0.002,5.339l-24.002,-0.754l28.58,0.898l0.007,19.526c0,0.632 -0.503,1.129 -1.122,1.109l-31.792,-0.365c-0.619,-0.02 -1.122,-0.548 -1.123,-1.18l-0.006,-20.16l4.523,0.142Zm0.007,21.305l24.935,0.15l-24.935,-0.15Z" style="fill:rgb(35,31,32);"/>
                <path d="M1058.03,999.044l0,3.964l15.71,-0l-0,-3.964l-15.71,0Z" style="fill:rgb(244,244,245);"/>
                <path d="M1055.84,1181.75l0,409.563l19.935,0l-0,-409.563l-19.935,0Z" style="fill:rgb(35,31,32);"/>
            </g>
        </g>
        <g id="Tall-Trimmer3" serif:id="Tall Trimmer">
            <circle cx="900.409" cy="721.754" r="23.953" style="fill:rgb(131,133,136);"/>
            <rect x="898.075" y="697.801" width="4.667" height="12.839" style="fill:white;"/>
        </g>
        <g id="Tall-Trimmer4" serif:id="Tall Trimmer">
            <circle cx="737.962" cy="721.754" r="23.953" style="fill:rgb(131,133,136);"/>
            <rect x="735.629" y="697.801" width="4.667" height="12.839" style="fill:white;"/>
        </g>
        <g id="_1900h3" serif:id="1900h">
            <path d="M827.13,581.458c-24.233,-13.991 -32.549,-45.024 -18.558,-69.257c13.991,-24.234 45.025,-32.549 69.258,-18.558c24.233,13.991 32.549,45.024 18.558,69.258c-13.992,24.233 -45.025,32.548 -69.258,18.557Z" style="fill:rgb(131,133,136);"/>
            <path d="M828.59,575.243l3.193,1.843l17.574,-30.44l-3.193,-1.843l-17.574,30.44Z" style="fill:white;"/>
        </g>
        <g id="_1900h4" serif:id="1900h">
            <path d="M798.799,346.803c8.811,26.559 -5.597,55.275 -32.156,64.086c-26.558,8.812 -55.274,-5.597 -64.086,-32.155c-8.811,-26.559 5.597,-55.275 32.156,-64.087c26.558,-8.811 55.274,5.597 64.086,32.156Z" style="fill:rgb(131,133,136);"/>
            <path d="M793.578,350.478l-1.162,-3.5l-33.361,11.068l1.162,3.5l33.361,-11.068Z" style="fill:white;"/>
        </g>
        <g>
            <path d="M835.137,334.104l-16.999,19.818l-8.584,-25.036l25.583,5.218Z" style="fill:rgb(64,140,148);stroke:rgb(64,140,148);stroke-width:10.42px;"/>
            <circle cx="751.123" cy="362.911" r="66.308" style="fill:none;stroke:rgb(64,140,148);stroke-width:10.42px;"/>
        </g>
        <g>
            <path d="M921.927,138.647l38.722,24.701l-41.479,21.145l2.757,-45.846Z" style="fill:rgb(125,97,186);stroke:rgb(125,97,186);stroke-width:10.42px;"/>
            <circle cx="993.134" cy="277.835" r="116.639" style="fill:none;stroke:rgb(125,97,186);stroke-width:10.42px;"/>
        </g>
        <g id="Large-MXR1" serif:id="Large MXR">
            <path d="M948.153,188.35c49.202,-24.766 109.254,-4.927 134.02,44.274c24.766,49.202 4.928,109.254 -44.274,134.02c-49.201,24.766 -109.253,4.927 -134.019,-44.274c-24.766,-49.201 -4.928,-109.254 44.273,-134.02Z" style="fill:rgb(131,133,136);"/>
            <path d="M963.15,208.867l-7.451,3.75l31.318,62.217l7.45,-3.751l-31.317,-62.216Z" style="fill:white;"/>
            <path d="M950.582,193.175c2.056,-1.035 4.565,-0.206 5.6,1.85c1.035,2.056 0.206,4.565 -1.85,5.6c-2.056,1.035 -4.565,0.206 -5.6,-1.85c-1.035,-2.056 -0.206,-4.565 1.85,-5.6Z" style="fill:white;"/>
        </g>
    </g>
</svg>
